SplineFontDB: 3.0
FontName: Mina-Bold
FullName: Mina Bold
FamilyName: Mina
Weight: Bold
Copyright: Copyright 2015 The Mina Project Authors, with Reserved Font Name 'Exo'
UComments: "2015-7-16: Created with FontForge (http://fontforge.org)"
Version: 001.000
ItalicAngle: 0
UnderlinePosition: -24
UnderlineWidth: 24
Ascent: 800
Descent: 200
InvalidEm: 0
LayerCount: 2
Layer: 0 0 "Back" 1
Layer: 1 0 "Fore" 0
XUID: [1021 37 -475828938 8093]
FSType: 0
OS2Version: 4
OS2_WeightWidthSlopeOnly: 0
OS2_UseTypoMetrics: 0
CreationTime: 1437065704
ModificationTime: 1487679151
PfmFamily: 17
TTFWeight: 700
TTFWidth: 5
LineGap: 0
VLineGap: 0
OS2TypoAscent: 1075
OS2TypoAOffset: 0
OS2TypoDescent: -515
OS2TypoDOffset: 0
OS2TypoLinegap: 0
OS2WinAscent: 1075
OS2WinAOffset: 0
OS2WinDescent: 515
OS2WinDOffset: 0
HheadAscent: 1075
HheadAOffset: 0
HheadDescent: -515
HheadDOffset: 0
OS2SubXSize: 700
OS2SubYSize: 650
OS2SubXOff: 0
OS2SubYOff: 93
OS2SupXSize: 700
OS2SupYSize: 650
OS2SupXOff: 0
OS2SupYOff: 313
OS2StrikeYSize: 50
OS2StrikeYPos: 313
OS2CapHeight: 712
OS2XHeight: 511
OS2Vendor: 'SUBY'
OS2CodePages: 00000001.00000000
OS2UnicodeRanges: 80018003.80002042.00000000.00000000
Lookup: 5 0 0 "'psts' Post Base Substitutions lookup 34" { "'psts' Post Base Substitutions lookup 34 subtable"  } ['psts' ('beng' <'dflt' > 'bng2' <'dflt' > ) ]
Lookup: 4 0 0 "Ligature Substitution lookup 33" { "Ligature Substitution lookup 33 subtable"  } []
Lookup: 5 0 0 "'psts' Post Base Substitutions lookup 32" { "'psts' Post Base Substitutions lookup 32 subtable"  } ['psts' ('beng' <'dflt' > 'bng2' <'dflt' > ) ]
Lookup: 1 0 0 "Single Substitution lookup 31" { "Single Substitution lookup 31 subtable"  } []
Lookup: 6 0 0 "'psts' Post Base Substitutions lookup 30" { "'psts' Post Base Substitutions lookup 30 subtable"  } ['psts' ('beng' <'dflt' > 'bng2' <'dflt' > ) ]
Lookup: 1 0 0 "Single Substitution lookup 29" { "Single Substitution lookup 29 subtable"  } []

StartChar: bnA
Encoding: 256 2437 0
Width: 960
VWidth: 0
Flags: W
HStem: 0 21G<786 906> 0 21G<786 906> 48 112<391.28 535.085> 378 107<337 599.67> 530 106.328<-14 786 906 971>
VStem: 617 107<246.719 361.139> 786 120<0 120 221.005 530>
LayerCount: 2
Fore
SplineSet
711 249 m 21xbe
 786 221.004882812 l 5
 786 530 l 5
 -14 530 l 5
 -14 636.328125 l 5
 971 636.328125 l 5
 971 530 l 5
 906 530 l 29
 906 0 l 5
 786 0 l 5
 786 120 l 29
 668 156 l 13
 668 156 599 48 465 48 c 4
 408 48 336.000976562 76.052734375 263 153 c 4
 189 231 99 375 99 375 c 5
 156 418 l 5
 322 242 l 6
 370.038085938 189.958007812 411 160 458 160 c 4
 560.1015625 160 617 252.7265625 617 325 c 4
 617 376 546 378 485 378 c 4
 421 378 337 378 337 378 c 5
 324 466 l 5
 324 466 458 485 538 485 c 4
 671.126953125 485 724 408.158203125 724 326 c 4
 724 288.84375 711 249 711 249 c 21xbe
EndSplineSet
Validated: 1
EndChar

StartChar: bnAA
Encoding: 257 2438 1
Width: 1165
VWidth: 0
Flags: W
HStem: 0 21G<786 906 1003 1123> 0 21G<786 906 1003 1123> 48 112<391.28 535.085> 378 107<337 599.67> 530 106.328<-14 786 906 994.518 1123 1179>
VStem: 617 107<246.719 360.917> 786 120<0 120 221.005 530> 1003 120<0 530>
AnchorPoint: "anchor0" 934 636.228 basechar 0
LayerCount: 2
Fore
SplineSet
934 636.328125 m 5xbf
 1006 628 l 5
 1002 702 l 5
 1089 702 l 5
 1112 636.328125 l 13
 1179 636.328125 l 21
 1179 530 l 5
 1123 530 l 29
 1123 0 l 5
 1003 0 l 5
 1003 530 l 5
 906 530 l 25
 906 0 l 1
 786 0 l 1
 786 120 l 1
 668 156 l 1
 668 156 599 48 465 48 c 0
 408 48 336.000976562 76.052734375 263 153 c 0
 189 231 99 375 99 375 c 1
 156 418 l 1
 322 242 l 2
 370.038085938 189.958007812 411 160 458 160 c 0
 560.1015625 160 617 252.7265625 617 325 c 0
 617 375 549 378 485 378 c 0
 421 378 337 378 337 378 c 1
 324 466 l 1
 324 466 458 485 538 485 c 0
 671.126953125 485 724 408.158203125 724 326 c 0
 724 288.84375 711 249 711 249 c 1
 786 221.004882812 l 1
 786 530 l 1
 -14 530 l 1
 -14 636.328125 l 1
 934 636.328125 l 5xbf
EndSplineSet
Validated: 1
EndChar

StartChar: bnTA
Encoding: 258 2468 2
Width: 765
VWidth: 0
Flags: W
HStem: 9 120<341.77 470.563> 377 111<308 575.541> 530 106.328<-14 780>
VStem: 595 117<249.308 355.602>
AnchorPoint: "anchor 1" 381 24 basechar 0
AnchorPoint: "anchor0" 535 636.3 basechar 0
LayerCount: 2
Fore
SplineSet
408 9 m 4
 338 9 278.507889553 36.524136623 206 112 c 4
 130.061523438 191.046875 50 333 50 333 c 5
 115 381 l 5
 253 237 l 6
 305.686523438 182.0234375 346 129 402 129 c 4
 488 129 595 247.651367188 595 304 c 4
 595 363 558 377 467 377 c 4
 416 377 308 377 308 377 c 5
 294 468 l 5
 294 468 452 488 523 488 c 4
 660 488 712 418 712 330 c 4
 712 173.055664062 549.876953125 9 408 9 c 4
780 636.328125 m 21
 780 530 l 29
 -14 530 l 5
 -14 636.328125 l 5
 780 636.328125 l 21
EndSplineSet
Validated: 1
EndChar

StartChar: bnI
Encoding: 259 2439 3
Width: 585
VWidth: 0
Flags: W
HStem: 378 111<106 385.93> 530 106.328<-14 385 506 596> 682 97<116.778 382.157>
VStem: 395 114<227.549 366.505>
LayerCount: 2
Fore
SplineSet
308 378 m 4
 245 378 106 378 106 378 c 5
 92 468 l 5
 92 468 216.418780146 489 311 489 c 4
 479 489 509 408.578125 509 288 c 4
 509 171 261 120 261 120 c 5
 503 -18 l 5
 458 -102 l 5
 458 -102 211 3 69 92 c 5
 80 198 l 5
 80 198 395 240 395 318 c 4
 395 363 378 378 308 378 c 4
385 636.328125 m 17
 385 679.328125 369 682 321 682 c 0
 235.614257812 682 71 682 71 682 c 9
 67 765 l 1
 67 765 318.281219307 779 378 779 c 0
 480 779 506 714.328125 506 636.328125 c 9
 596 636.328125 l 1
 596 530 l 25
 -14 530 l 1
 -14 636.328125 l 1
 385 636.328125 l 17
EndSplineSet
Validated: 1
EndChar

StartChar: e
Encoding: 260 101 4
Width: 525
Flags: W
HStem: -5 111.95 208.5 100.5<177.9 346.9 177.9 177.9> 428 107<241.076 311.701>
VStem: 37.9 140 354.9 140
LayerCount: 2
Fore
SplineSet
37.900390625 268 m 0
 37.900390625 496.200195312 101.5 535 269.900390625 535 c 0
 423.5 535 494.900390625 517.5 494.900390625 341.5 c 0
 494.900390625 246.900390625 442.900390625 208.5 346.900390625 208.5 c 2
 177.900390625 208.5 l 1
 177.900390625 112.650390625 214.100585938 106.950195312 289.900390625 106.950195312 c 0
 370.900390625 106.950195312 409.900390625 106.5 484.900390625 117.5 c 1
 484.900390625 23 l 1
 409.950195312 -4.9501953125 295.900390625 -5 212.900390625 -5 c 0
 77.900390625 -5 37.900390625 73.2001953125 37.900390625 268 c 0
177.900390625 309 m 1
 310.599609375 309.000976562 l 2
 339.75 309.000976562 354.900390625 323.350585938 354.900390625 348.650390625 c 0
 354.900390625 415.700195312 345.350585938 428 278.05078125 428 c 0
 204.100585938 428 176.80078125 423.700195312 177.900390625 309 c 1
EndSplineSet
Validated: 33
EndChar

StartChar: bnHA
Encoding: 261 2489 5
Width: 585
VWidth: 0
Flags: W
HStem: 378 111<106 385.93> 530 106.328<-14 596>
VStem: 395 114<227.549 366.505>
AnchorPoint: "anchor 1" 264 -6 basechar 0
AnchorPoint: "anchor0" 323 636.2 basechar 0
LayerCount: 2
Fore
SplineSet
308 378 m 4
 245 378 106 378 106 378 c 5
 92 468 l 5
 92 468 216.418780146 489 311 489 c 4
 479 489 509 408.578125 509 288 c 4
 509 171 261 120 261 120 c 5
 503 -18 l 5
 458 -102 l 5
 458 -102 211 3 69 92 c 5
 80 198 l 5
 80 198 395 240 395 318 c 4
 395 363 378 378 308 378 c 4
596 636.328125 m 17
 596 530 l 25
 -14 530 l 1
 -14 636.328125 l 1
 596 636.328125 l 17
EndSplineSet
Validated: 1
EndChar

StartChar: bnU
Encoding: 262 2441 6
Width: 760
VWidth: 0
Flags: W
HStem: -3.35645 112.892<352.877 467.636> 347 106<435.653 585.796> 530 106.328<-14 314 434 535 656 778> 682 97<236.578 531.018>
VStem: 314 120<444.268 530> 591.639 112.363<242.967 337.752>
LayerCount: 2
Fore
SplineSet
314 530 m 13
 -14 530 l 5
 -14 636.328125 l 5
 535 636.328125 l 21
 535 679.328125 519 682 471 682 c 4
 385.614257812 682 101 682 101 682 c 13
 97 765 l 5
 97 765 279 779 498 779 c 4
 650 779 656 714.328125 656 636.328125 c 13
 778 636.328125 l 5
 778 530 l 21
 434 530 l 21
 434 444.267578125 l 5
 434 444.267578125 523 453 559 453 c 4
 641.998046875 453 704.001953125 403.59765625 704.001953125 325.791992188 c 4
 704.001953125 220.922851562 594 -3 409.94921875 -3.3564453125 c 4
 349.999023438 -3.47265625 272.525390625 28.8935546875 214 105 c 4
 92.5 263 56 396 56 396 c 5
 130 427 l 5
 130 427 236.165039062 265.72265625 300 183.267578125 c 4
 335.737304688 137.106445312 372.638671875 109.53515625 412.638671875 109.53515625 c 4
 496 109.53515625 591.638671875 248 591.638671875 305 c 4
 591.638671875 333 567.724609375 347 529 347 c 4
 475 347 314 337 314 337 c 5
 314 530 l 13
EndSplineSet
Validated: 33
EndChar

StartChar: bnDDA
Encoding: 263 2465 7
Width: 770
VWidth: 0
Flags: W
HStem: -0.356445 112.892<361.877 476.636> 350 106<444.151 588.107> 530 106.328<-14 322 442 784>
VStem: 322 120<447.268 530> 594.639 118.363<243.958 340.752>
AnchorPoint: "anchor 1" 404 11 basechar 0
AnchorPoint: "anchor0" 524 636.2 basechar 0
LayerCount: 2
Fore
SplineSet
322 530 m 9
 -14 530 l 1
 -14 636.328125 l 1
 784 636.328125 l 17
 784 530 l 1
 442 530 l 17
 442 447.267578125 l 1
 442 447.267578125 532 456 568 456 c 0
 650.998046875 456 713.001953125 406.59765625 713.001953125 328.791992188 c 0
 713.001953125 223.922851562 603 0 418.94921875 -0.3564453125 c 0
 358.999023438 -0.47265625 281.525390625 31.8935546875 223 108 c 0
 101.5 266 65 399 65 399 c 1
 141 428 l 1
 141 428 245.164657907 268.722361166 309 186.267578125 c 0
 344.737304688 140.106445312 381.638671875 112.53515625 421.638671875 112.53515625 c 0
 505 112.53515625 594.638671875 251 594.638671875 308 c 0
 594.638671875 336 570.724609375 350 532 350 c 0
 478 350 322 340 322 340 c 1
 322 530 l 9
EndSplineSet
Validated: 33
EndChar

StartChar: bnDDxA
Encoding: 264 2524 8
Width: 785
VWidth: 0
Flags: W
HStem: -190 138<302.146 436.837> -0.356445 112.892<361.877 476.636> 350 106<444.151 588.107> 530 106.328<-14 322 442 798>
VStem: 302 135<-189.896 -52.0717> 322 120<447.268 530> 594.639 118.363<243.958 340.752>
AnchorPoint: "anchor 1" 701 -73 basechar 0
AnchorPoint: "anchor0" 517 636.2 basechar 0
LayerCount: 2
Fore
SplineSet
322 530 m 9xf6
 -14 530 l 1
 -14 636.328125 l 1
 798 636.328125 l 17
 798 530 l 1
 442 530 l 17
 442 447.267578125 l 1
 442 447.267578125 532 456 568 456 c 0
 650.998046875 456 713.001953125 406.59765625 713.001953125 328.791992188 c 0
 713.001953125 223.922851562 603 0 418.94921875 -0.3564453125 c 0
 358.999023438 -0.47265625 281.525390625 31.8935546875 223 108 c 0
 101.5 266 65 399 65 399 c 1
 141 428 l 1
 141 428 245.164657907 268.722361166 309 186.267578125 c 0
 344.737304688 140.106445312 381.638671875 112.53515625 421.638671875 112.53515625 c 0
 505 112.53515625 594.638671875 251 594.638671875 308 c 0
 594.638671875 336 570.724609375 350 532 350 c 0
 478 350 322 340 322 340 c 1
 322 530 l 9xf6
302 -167 m 2xfa
 302 -77 l 2
 302 -62 310 -52 326 -52 c 2
 414 -52 l 2
 429 -52 437 -63 437 -77 c 2
 437 -167 l 2
 437 -182 428 -190 414 -190 c 2
 326 -190 l 2
 312 -190 302 -181 302 -167 c 2xfa
EndSplineSet
Validated: 33
EndChar

StartChar: bnUU
Encoding: 265 2442 9
Width: 850
VWidth: 0
Flags: W
HStem: -4.35645 113.892<449.069 568.46> 347 106<531.653 681.796> 682 97<332.578 627.018>
VStem: 687.639 112.363<242.886 337.752>
LayerCount: 2
Fore
SplineSet
504.94921875 -4.3564453125 m 0
 684 -4.3564453125 800.001953125 220.922851562 800.001953125 325.791992188 c 0
 800.001953125 403.59765625 737.998046875 453 655 453 c 0
 619 453 530 444.267578125 530 444.267578125 c 1
 530 530 l 1
 864 530 l 9
 864 636.328125 l 1
 752 636.328125 l 17
 752 714.328125 746 779 594 779 c 0
 375 779 193 765 193 765 c 1
 197 682 l 17
 197 682 481.614257812 682 567 682 c 0
 615 682 631 679.328125 631 636.328125 c 9
 -18 636.328125 l 1
 -18 530 l 1
 410 530 l 17
 410 337 l 1
 410 337 571 347 625 347 c 0
 663.724609375 347 687.638671875 333 687.638671875 305 c 0
 687.638671875 248 592 109.53515625 508.638671875 109.53515625 c 0
 468.638671875 109.53515625 432 137 396 183.267578125 c 0
 322.583666761 277.62302073 226 427 226 427 c 1
 152 396 l 1
 152 396 190.077148438 280 242 204 c 1
 112 355 l 1
 50 313 l 1
 50 313 101 215 186 130 c 0
 254.107421875 61.892578125 375.083984375 -4.3564453125 504.94921875 -4.3564453125 c 0
EndSplineSet
Validated: 9
EndChar

StartChar: bnKA
Encoding: 266 2453 10
Width: 860
VWidth: 0
Flags: W
HStem: 0 21G<396.027 543> 0 21G<396.027 543> 530 106.328<-14 423 543 872>
VStem: 423 120<140 386.99 507 530> 692 130.705<250.031 341.863>
AnchorPoint: "anchor 1" 425 7 basechar 0
AnchorPoint: "anchor0" 649 637 basechar 0
LayerCount: 2
Fore
SplineSet
71 261 m 1xb8
 71 348 l 1
 423 507 l 1
 423 530 l 1
 -14 530 l 1
 -14 636.328125 l 1
 872 636.328125 l 1
 872 530 l 1
 543 530 l 25
 544 502 l 1
 710 447 l 2
 771.698242188 424.69921875 822.705078125 390.88671875 822.705078125 327.375976562 c 0
 822.705078125 306.4765625 817.489122271 282.556709472 804 256 c 0
 772 193 722 129 722 129 c 1
 636 187 l 1
 672 252 l 2
 679.963867188 266.37890625 692 291.34765625 692 303 c 0
 692 334.176757812 678.077148438 340.971679688 632 358 c 2
 543 386.990234375 l 1
 543 0 l 1
 423 0 l 1
 71 261 l 1xb8
220 293 m 17
 423 140 l 1
 423 389 l 1
 220 293 l 17
EndSplineSet
Validated: 1
EndChar

StartChar: bnvR
Encoding: 267 2443 11
Width: 850
VWidth: 0
Flags: W
HStem: 0 21G<401.845 564> 0 21G<401.845 564> 442 91<161.873 256.065> 530 106.328<772 867>
VStem: 434 130<143 167 289 371 493.402 636.328> 652 120<39 145 264 530>
LayerCount: 2
Fore
SplineSet
652 145 m 25x1c
 564 167 l 25
 564 0 l 1
 434 0 l 1
 61 232 l 1
 61 330 l 1
 314 440 l 1
 299 476 l 1
 299 476 244 442 186 442 c 0
 141.278320312 442 109.5078125 459.4921875 94 475 c 0
 75 494 63 521 63 562 c 0
 63 603 83 623 109 635.328125 c 0
 133.808710263 647.091389662 194 655 194 655 c 1
 208 594 l 1
 208 594 197.782226562 590.439453125 170 576 c 0
 153.6875 567.521484375 159 533 192 533 c 0xac
 236 533 355 611 355 611 c 1
 415.697265625 485.306640625 l 1
 434 493.40234375 l 1
 434 636.328125 l 1
 564 636.328125 l 1
 564 289 l 25
 652 264 l 25
 652 636 l 1
 648 702 l 1
 735 702 l 1
 758 636.328125 l 1
 867 636.328125 l 1
 867 530 l 1
 772 530 l 25
 772 39 l 1
 652 39 l 1
 652 145 l 25x1c
434 143 m 1
 434 371 l 1
 221 274 l 1
 434 143 l 1
EndSplineSet
Validated: 33
EndChar

StartChar: bnJHA
Encoding: 268 2461 12
Width: 850
VWidth: 0
Flags: W
HStem: 0 21G<397.027 544> 0 21G<397.027 544> 530 106.328<-14 424 752 861>
VStem: 424 120<140 167 289 389 507 530> 632 120<39 145 264 530>
AnchorPoint: "anchor 1" 423 8 basechar 0
AnchorPoint: "anchor0" 632 636.3 basechar 0
LayerCount: 2
Fore
SplineSet
221 293 m 1x38
 424 140 l 1
 424 389 l 1
 221 293 l 1x38
424 0 m 1xb8
 72 261 l 1
 72 348 l 1
 424 507 l 1
 424 530 l 1
 -14 530 l 17
 -14 636.328125 l 1
 544 636.328125 l 9
 544 289 l 1
 632 264 l 25
 632 636.298828125 l 1
 628 702 l 1
 715 702 l 1
 738 636.328125 l 1
 861 636.328125 l 1
 861 530 l 1
 752 530 l 25
 752 39 l 1
 632 39 l 1
 632 145 l 1
 544 167 l 25
 544 0 l 1
 424 0 l 1xb8
EndSplineSet
Validated: 1
EndChar

StartChar: bnDHA
Encoding: 269 2471 13
Width: 610
VWidth: 0
Flags: W
HStem: 0 21G<391.027 538> 0 21G<391.027 538> 530 106.328<538 617> 571 97.3574<125.207 259.461>
VStem: 56 111<521.943 570.104> 418 120<140 389 507 530>
AnchorPoint: "anchor 1" 418 3 basechar 0
AnchorPoint: "anchor0" 418 636.326 basechar 0
LayerCount: 2
Fore
SplineSet
215 293 m 1x0c
 418 140 l 1
 418 389 l 1
 215 293 l 1x0c
320 462 m 5
 418 507 l 1
 418 636.32421875 l 1
 414 702 l 1
 501 702 l 1
 524 636.328125 l 1
 617 636.328125 l 1
 617 530 l 1
 538 530 l 1x2c
 538 0 l 1
 418 0 l 1
 66 261 l 1
 66 348 l 1
 193 405 l 5
 193 405 56 457.061523438 56 534 c 4
 56 580.846679688 99.70703125 668.357421875 150.70703125 668.357421875 c 4
 205.70703125 668.357421875 282 637 282 637 c 5
 264 564 l 5
 264 564 210.84765625 571 190 571 c 4x9c
 177 571 167 560.705078125 167 544.486328125 c 4
 167 514.209960938 320 462 320 462 c 5
EndSplineSet
Validated: 1
EndChar

StartChar: bnBA
Encoding: 270 2476 14
Width: 580
VWidth: 0
Flags: W
HStem: 0 21G<368.326 516> 0 21G<368.326 516> 530 106.328<-14 396 516 594>
VStem: 396 120<144 387 507 530>
AnchorPoint: "anchor0" 324 636.3 basechar 0
AnchorPoint: "anchor 1" 397 4 basechar 0
LayerCount: 2
Fore
SplineSet
193 292 m 1x30
 396 144 l 1
 396 387 l 1
 193 292 l 1x30
594 530 m 9
 516 530 l 25
 516 0 l 1
 396 0 l 1xb0
 39 258 l 1
 39 345 l 1
 396 507 l 1
 396 530 l 1
 -14 530 l 17
 -14 636.328125 l 1
 594 636.328125 l 9
 594 530 l 9
EndSplineSet
Validated: 1
EndChar

StartChar: bnRA
Encoding: 271 2480 15
Width: 578
VWidth: 0
Flags: W
HStem: -78 138<94.1992 228.89> 0 21G<368.326 516> 0 21G<368.326 516> 530 106.328<-14 396 516 594>
VStem: 94.0527 135<-77.8955 59.9283> 396 120<144 387 507 530>
AnchorPoint: "anchor0" 360 636.3 basechar 0
AnchorPoint: "anchor 1" 398 8 basechar 0
LayerCount: 2
Fore
SplineSet
193 292 m 1x1c
 396 144 l 1
 396 387 l 1
 193 292 l 1x1c
594 530 m 9
 516 530 l 25
 516 0 l 1
 396 0 l 1x5c
 39 258 l 1
 39 345 l 1
 396 507 l 1
 396 530 l 1
 -14 530 l 17
 -14 636.328125 l 1
 594 636.328125 l 9
 594 530 l 9
94.052734375 -55 m 2
 94.052734375 35 l 2
 94.052734375 50 102.052734375 60 118.052734375 60 c 2
 206.052734375 60 l 2
 221.052734375 60 229.052734375 49 229.052734375 35 c 2
 229.052734375 -55 l 2
 229.052734375 -70 220.052734375 -78 206.052734375 -78 c 2
 118.052734375 -78 l 2x9c
 104.052734375 -78 94.052734375 -69 94.052734375 -55 c 2
EndSplineSet
Validated: 1
EndChar

StartChar: bnE
Encoding: 272 2447 16
Width: 725
VWidth: 0
Flags: W
HStem: 0 113<240.591 413.383> 516 120<380.627 515.09>
VStem: 538 120<0 70 207 492.261>
LayerCount: 2
Fore
SplineSet
538 207 m 5
 538 433 l 5
 538 491 499 516 457 516 c 4
 389.774414062 516 217 407 217 407 c 5
 163 476 l 5
 277 584 376 636 456 636 c 4
 554 636 658 599 658 463 c 6
 658 0 l 5
 538 0 l 5
 538 70 l 5
 538 70 426.524414062 0 343 0 c 4
 300 0 194 2 133 91 c 4
 107.284179688 128.51953125 77 188 57 255 c 5
 126 289 l 5
 186 189 l 6
 232.042052262 119.936921607 287 113 324 113 c 4
 414.877929688 113 538 207 538 207 c 5
EndSplineSet
Validated: 1
EndChar

StartChar: bnAI
Encoding: 273 2448 17
Width: 875
VWidth: 0
Flags: W
HStem: 0 113<237.992 413.383> 268 111<658 710.21> 516 120<380.627 515.09>
VStem: 538 120<433 492.261> 721 108<388.744 659.502>
LayerCount: 2
Fore
SplineSet
658 268 m 17
 736 268 829 288 829 388 c 0
 829 446.061523438 815 743 815 743 c 1
 721 739 l 17
 721 739 721 549.432617188 721 443 c 0
 721 395 698 379 658 379 c 9
 658 463 l 2
 658 599 554 636 456 636 c 0
 376 636 277 584 163 476 c 1
 217 407 l 1
 217 407 389.774414062 516 457 516 c 0
 499 516 538 491 538 433 c 1
 538 207 l 1
 538 207 414.877929688 113 324 113 c 0
 287 113 228.680504502 117.865825831 186 189 c 2
 126 289 l 1
 57 255 l 1
 77 188 107.284179688 128.51953125 133 91 c 0
 194 2 300 0 343 0 c 0
 426.524414062 0 538 70 538 70 c 1
 538 0 l 1
 658 0 l 1
 658 268 l 17
EndSplineSet
Validated: 9
EndChar

StartChar: bnNYA
Encoding: 274 2462 18
Width: 965
VWidth: 0
Flags: W
HStem: 0 113<240.521 412.78> 74 94<658.054 804.735> 257 101<713 806.871> 443 105<658.9 804.526> 516 120<391.663 514.42>
VStem: 538 120<0 70 207 435> 809 102<170.735 254.679 360.937 439.215>
AnchorPoint: "anchor0" 762 636.2 basechar 0
LayerCount: 2
Fore
SplineSet
638 526.081054688 m 5xae
 638 526 736 548 773 548 c 4
 837 548 911 547 911 434 c 6
 911 396 l 6
 911 363 907 316 866 310 c 5
 907 303 910 256 910 223 c 6
 910 190 l 6
 910 81 830.017578125 74 773 74 c 4x76
 731 74 658 88 658 88 c 13
 658 0 l 1
 538 0 l 1
 538 70 l 17
 538 70 440.524414062 0 346 0 c 0
 303 0 191 2 130 91 c 0
 104.284179688 128.51953125 74 186 54 253 c 1
 120 293 l 1
 186 189 l 2
 232.042052262 119.936921607 287 113 324 113 c 0
 414.877929688 113 538 207 538 207 c 1
 538 433 l 1
 538 491 499 516 457 516 c 0
 389.774414062 516 220 382 220 382 c 1
 167 453 l 1
 271 571 376 636 456 636 c 0
 594.6171875 636 638 526.081054688 638 526.081054688 c 5xae
658 175 m 21
 658 175 732.905273438 168 773 168 c 4
 799 168 809 186 809 212 c 4
 809 250.677734375 803.59765625 257 766 257 c 6
 713 257 l 21
 713 358 l 13
 756 358 l 6
 795.34375 358 809 360.376953125 809 401 c 4
 809 434 790 443 765 443 c 4
 724.35546875 443 658 435 658 435 c 13
 658 175 l 21
EndSplineSet
Validated: 33
EndChar

StartChar: bnTTA
Encoding: 275 2463 19
Width: 650
VWidth: 0
Flags: W
HStem: 0 131<204.717 338.102> 337 104<279 442.025> 530 106.328<-14 72 192 417 538 664> 702 97<119.448 406.473>
VStem: 72 120<142.399 530> 417 121<636.328 691.095> 454 124<227.294 322.715>
AnchorPoint: "anchor0" 394 636.7 basechar 0
AnchorPoint: "anchor 1" 227 15 basechar 0
LayerCount: 2
Fore
SplineSet
192 530 m 1xfc
 192 530 192 264 192 223 c 0
 192 177.6015625 193 131 252 131 c 0
 316 131 376.399456876 161.74223643 423 215 c 0
 451 247 454 277 454 292 c 0
 454 332 400 337 333 337 c 0
 288 337 279 337 279 337 c 1
 269 433 l 1
 269 433 363 441 413 441 c 0
 521 441 578 376.557617188 578 305 c 0xfa
 578 279 570.4609375 241.928710938 551 202 c 0
 493 83 338 0 238 0 c 0
 173 0 72 37 72 159 c 2
 72 530 l 9
 -14 530 l 1
 -14 636.328125 l 1
 417 636.328125 l 17
 417 679.328125 401 702 353 702 c 0
 267.614257812 702 -7 702 -7 702 c 9
 -11 785 l 1
 -11 785 226 799 380 799 c 0
 532 799 538 714.328125 538 636.328125 c 9
 664 636.328125 l 1
 664 530 l 17
 192 530 l 1xfc
EndSplineSet
Validated: 1
EndChar

StartChar: bnDDHA
Encoding: 276 2466 20
Width: 650
VWidth: 0
Flags: W
HStem: 0 131<204.717 338.102> 337 104<279 442.025> 530 106.328<-14 72 192 664>
VStem: 72 120<142.399 530> 454 124<227.294 322.715>
AnchorPoint: "anchor 1" 219 21 basechar 0
AnchorPoint: "anchor0" 398 636.2 basechar 0
LayerCount: 2
Fore
SplineSet
664 636.328125 m 17
 664 530 l 17
 192 530 l 1
 192 530 192 264 192 223 c 0
 192 177.6015625 193 131 252 131 c 0
 316 131 376.399456876 161.74223643 423 215 c 0
 451 247 454 277 454 292 c 0
 454 332 400 337 333 337 c 0
 288 337 279 337 279 337 c 1
 269 433 l 1
 269 433 363 441 413 441 c 0
 521 441 578 376.557617188 578 305 c 0
 578 279 570.4609375 241.928710938 551 202 c 0
 493 83 338 0 238 0 c 0
 173 0 72 37 72 159 c 2
 72 530 l 9
 -14 530 l 1
 -14 636.328125 l 1
 664 636.328125 l 17
EndSplineSet
Validated: 1
EndChar

StartChar: bnDDHxA
Encoding: 277 2525 21
Width: 650
VWidth: 0
Flags: W
HStem: -190 138<164.146 298.837> 0 131<204.717 338.102> 337 104<279 442.025> 530 106.328<-14 72 192 664>
VStem: 72 120<142.399 530> 164 135<-189.896 -52.0717> 454 124<227.294 322.715>
AnchorPoint: "anchor 1" 603 20 basechar 0
AnchorPoint: "anchor0" 390 636.3 basechar 0
LayerCount: 2
Fore
SplineSet
664 636.328125 m 17xfa
 664 530 l 17
 192 530 l 1
 192 530 192 264 192 223 c 0
 192 177.6015625 193 131 252 131 c 0
 316 131 376.399456876 161.74223643 423 215 c 0
 451 247 454 277 454 292 c 0
 454 332 400 337 333 337 c 0
 288 337 279 337 279 337 c 1
 269 433 l 1
 269 433 363 441 413 441 c 0
 521 441 578 376.557617188 578 305 c 0
 578 279 570.4609375 241.928710938 551 202 c 0
 493 83 338 0 238 0 c 0
 173 0 72 37 72 159 c 2
 72 530 l 9
 -14 530 l 1
 -14 636.328125 l 1
 664 636.328125 l 17xfa
164 -167 m 2xf6
 164 -77 l 2
 164 -62 172 -52 188 -52 c 2
 276 -52 l 2
 291 -52 299 -63 299 -77 c 2
 299 -167 l 2
 299 -182 290 -190 276 -190 c 2
 188 -190 l 2
 174 -190 164 -181 164 -167 c 2xf6
EndSplineSet
Validated: 1
EndChar

StartChar: bnYA
Encoding: 278 2479 22
Width: 650
VWidth: 0
Flags: W
HStem: 0 21G<404.838 578> 0 21G<404.838 578> 530 106.328<-10 81 171 458 578 661>
VStem: 242 116<350.885 403.491> 458 120<123 530>
AnchorPoint: "anchor0" 403 636.3 basechar 0
AnchorPoint: "anchor 1" 446 5 basechar 0
LayerCount: 2
Fore
SplineSet
81 529.998046875 m 1xb8
 -10 530 l 1
 -10 636.328125 l 1
 661 636.328125 l 1
 661 530 l 9
 578 530 l 25
 578 0 l 1
 443 0 l 1
 90 185 l 1
 90.001953125 285 l 1
 90.001953125 285 242 343 242 377 c 0
 242 407.25 67 500 67 500 c 1
 81 529.998046875 l 1xb8
239 238 m 1
 458 123 l 1
 458 530 l 1
 171 530 l 1
 171 530 225 509 273 478 c 0
 307.287109375 455.856445312 358 425 358 378 c 0
 358 325 308 283 239 238 c 1
EndSplineSet
Validated: 1
EndChar

StartChar: bnYxA
Encoding: 279 2527 23
Width: 650
VWidth: 0
Flags: W
HStem: -107 138<163.146 297.837> 0 21G<404.838 578> 0 21G<404.838 578> 530 106.328<-10 81 171 458 578 661>
VStem: 163 135<-106.896 30.9283> 242 114<348.613 401.845> 458 120<120 530>
AnchorPoint: "anchor0" 403 636 basechar 0
LayerCount: 2
Fore
SplineSet
81 529.998046875 m 1x56
 -10 530 l 1
 -10 636.328125 l 1
 661 636.328125 l 1
 661 530 l 9
 578 530 l 25
 578 0 l 1
 443 0 l 1
 90 185 l 1
 90.001953125 269 l 1
 90.001953125 269 242 343 242 377 c 0
 242 407.25 62 491 62 491 c 1
 81 529.998046875 l 1x56
239 238 m 1
 458 120 l 1
 458 530 l 1
 171 530 l 1
 171 530 225 509 273 478 c 0
 307.287109375 455.856445312 356 425 356 378 c 0
 356 325 308 283 239 238 c 1
163 -84 m 2x9a
 163 6 l 2
 163 21 171 31 187 31 c 2
 275 31 l 2
 290 31 298 20 298 6 c 2
 298 -84 l 2
 298 -99 289 -107 275 -107 c 2
 187 -107 l 2
 173 -107 163 -98 163 -84 c 2x9a
EndSplineSet
Validated: 1
EndChar

StartChar: bnSSA
Encoding: 280 2487 24
Width: 650
VWidth: 0
Flags: W
HStem: 0 21G<414.838 588> 0 21G<414.838 588> 297 104<390.393 468> 530 106.328<-10 91 183 468 588 661>
VStem: 468 120<123 297 401 530>
AnchorPoint: "anchor0" 403 636.4 basechar 0
AnchorPoint: "anchor 1" 466 7 basechar 0
LayerCount: 2
Fore
SplineSet
91 529.998046875 m 1xb8
 -10 530 l 1
 -10 636.328125 l 1
 661 636.328125 l 1
 661 530 l 9
 588 530 l 25
 588 0 l 1
 453 0 l 1
 100 185 l 1
 100.001953125 285 l 1
 100.001953125 285 252 343 252 377 c 0
 252 407.25 77 500 77 500 c 1
 91 529.998046875 l 1xb8
468 401 m 1
 468 530 l 1
 183 530 l 1
 183 530 247 499 302 468 c 0
 367.360351562 431.161132812 424 401 468 401 c 1
468 297 m 1
 416 297 358 326 358 326 c 1
 358 326 340.405273438 301.9609375 326 291 c 0
 280 256 249 238 249 238 c 1
 468 123 l 1
 468 297 l 1
EndSplineSet
Validated: 1
EndChar

StartChar: bnPHA
Encoding: 281 2475 25
Width: 900
VWidth: 0
Flags: W
HStem: 0 21G<425.447 598> 0 21G<425.447 598> 382 100<598 746.283> 530 106.328<-10 108 190 911>
VStem: 251 120<344.529 397.801> 478 120<125 382> 748 111<300.927 377.408>
AnchorPoint: "anchor 1" 477 8 basechar 0
AnchorPoint: "anchor0" 637 636.3 basechar 0
LayerCount: 2
Fore
SplineSet
693 382 m 2xbe
 598 382 l 1
 598 0 l 1
 463 0 l 1
 110 188 l 1
 110 284 l 1
 110 284 251 336 251 371 c 0
 251 403.25 87 484 87 484 c 1
 108 530 l 1
 -10 530 l 1
 -10 636.328125 l 1
 911 636.328125 l 1
 911 530 l 1
 190 530 l 1
 190 530 240.456054688 508.037109375 293 477 c 0
 330.381835938 454.918945312 371 422 371 371 c 0
 371 312 298 270 259 243 c 1
 478 125 l 1
 478 482 l 25
 703 482 l 2
 815 482 859 439 859 366 c 0
 859 344 850.401757814 318.803515628 838 294 c 0
 816 250 731 166 731 166 c 1
 664 210 l 1
 664 210 708.416913926 271.492296473 728 304 c 0
 739.231666405 322.644440423 748 340 748 356 c 0
 748 382 709 382 693 382 c 2xbe
EndSplineSet
Validated: 1
EndChar

StartChar: bnGHA
Encoding: 282 2456 26
Width: 650
VWidth: 0
Flags: W
HStem: 0 21G<421.182 598> 0 21G<421.182 598> 360.544 93.4561<187.141 282.98> 530 106.328<-10 86.9961 193 478 598 661>
VStem: 478 120<117 530>
AnchorPoint: "anchor 1" 475 7.4 basechar 0
AnchorPoint: "anchor0" 398 635.8 basechar 0
LayerCount: 2
Fore
SplineSet
193 530 m 1x38
 194 530 169.712890625 489.701171875 188.002929688 471.190429688 c 0
 204 455 254.599609375 454 316 454 c 0
 349.087890625 454 380.002929688 454.190429688 380.002929688 454.190429688 c 1
 412 322 l 1
 246 227 l 1
 478 117 l 1
 478 530 l 1
 193 530 l 1x38
86.99609375 530 m 1
 -10 530 l 1
 -10 636.328125 l 1
 661 636.328125 l 1
 661 530 l 9
 598 530 l 25
 598 0 l 1
 463 0 l 1xb8
 118 165 l 1
 118 274 l 1
 283 360.428710938 l 1
 283 360.428710938 256.048828125 360.543945312 232.78125 360.543945312 c 0
 175.145507812 360.543945312 98.9997553865 370.9998215 72 408 c 0
 62.4951171875 421.025390625 59 436 59 451 c 0
 59 489 86.99609375 530 86.99609375 530 c 1
EndSplineSet
Validated: 33
EndChar

StartChar: bnBHA
Encoding: 283 2477 27
Width: 800
VWidth: 0
Flags: W
HStem: -26 110<353 502.639> 222 111<368.874 495.059> 287 128<560.886 625.611> 392 102.098<366.455 485> 530 106.328<-14 812>
VStem: 255 111<337.585 391.029> 640 123<198.068 273.478>
AnchorPoint: "anchor 1" 407 -18 basechar 0
AnchorPoint: "anchor0" 567 636.2 basechar 0
LayerCount: 2
Fore
SplineSet
425 222 m 0xce
 296.8515625 222 255 266.602539062 255 360 c 0
 255 406 272.678919806 454.08275749 285 467 c 0
 305.4453125 488.434570312 326 494.09765625 358.72265625 494.09765625 c 0
 394 494.09765625 494 481 494 481 c 1
 485 392 l 17
 485 392 426.595703125 392 389.498046875 392 c 0
 369.498046875 392 366 379 366 361 c 0
 366 333.8125 391.337890625 333 440 333 c 0xde
 496.115234375 333 554.598632812 415 610 415 c 0
 673 415 763 293 763 234 c 0
 763 164.56640625 649.000976562 54.9990234375 555 7 c 0
 532.241210938 -4.62109375 476 -26 421 -26 c 0
 351 -26 273 5 198 84 c 0
 118.157022599 168.101269529 43 305 43 305 c 1
 108 353 l 1
 265 182 l 2
 314.20703125 128.091796875 365 84 421 84 c 0
 452 84 487.40625 95.96875 513 111 c 0
 576 148 640 210.272460938 640 237 c 0
 640 249 614 287 600 287 c 0xae
 580.631835938 287 522.34765625 222 425 222 c 0xce
812 636.328125 m 17
 812 530 l 25
 -14 530 l 1
 -14 636.328125 l 1
 812 636.328125 l 17
EndSplineSet
Validated: 1
EndChar

StartChar: bnKHA
Encoding: 284 2454 28
Width: 740
VWidth: 0
Flags: W
HStem: 0 21G<513.493 669> 0 21G<513.493 669> 420 103<218.942 293.042> 530 106.328<669 750>
VStem: 109 104<523.712 580.895> 549 120<119 530>
AnchorPoint: "anchor 1" 549 9 basechar 0
AnchorPoint: "anchor0" 549 636.4 basechar 0
LayerCount: 2
Fore
SplineSet
506 369 m 5xbc
 283 269 l 1
 549 119 l 1
 549 636.294921875 l 9
 545 702 l 1
 632 702 l 1
 655 636.328125 l 1
 750 636.328125 l 1
 750 530 l 25
 669 530 l 25
 669 0 l 1
 549 0 l 1
 146 227 l 1
 146 330 l 1
 368 425 l 5
 368.013239727 425.000000013 362.770507812 438.40625 359 448 c 4
 357.1171875 452.791015625 353.703125 459 347 459 c 4
 337 459 263 420 222 420 c 4
 177.278320312 420 152.15902732 448.45463024 139 466 c 4
 124 486 109 519 109 548 c 4
 109 587 119.237163421 606.375860981 142 625 c 4
 175 652 249 654 249 654 c 5
 267 595 l 5
 267 595 245.931932656 586.15087848 228 578 c 4
 217 573 213 568 213 560 c 4
 213 552.380859375 222.126300782 536.833187144 225.352539062 531 c 4
 227.901367188 526.391601562 230.84765625 523 236 523 c 4
 268 523 363 589 402 589 c 4
 435 589 440 567 449 545 c 4
 460.534179688 516.8046875 506 369 506 369 c 5xbc
EndSplineSet
Validated: 1
EndChar

StartChar: bnTHA
Encoding: 285 2469 29
Width: 700
VWidth: 0
Flags: W
HStem: 496 109<101 325.086>
VStem: 338 119<416.218 482.541>
AnchorPoint: "anchor 1" 509 4 basechar 0
AnchorPoint: "anchor0" 509 636.2 basechar 0
LayerCount: 2
Fore
SplineSet
265 274 m 5
 265 274 457 335 457 441 c 4
 457 562 418.10546875 605 259 605 c 4
 185 605 86 592 86 592 c 5
 101 496 l 5
 101 496 149 496 207 496 c 4
 308 496 338 481 338 454 c 4
 338 381 115 330 115 330 c 5
 115 222 l 5
 509 0 l 5
 629 0 l 5
 629 530 l 29
 710 530 l 29
 710 636.328125 l 29
 623 636.328125 l 29
 602 711 l 5
 508.95703125 711 l 5
 509 134 l 5
 265 274 l 5
EndSplineSet
Validated: 9
EndChar

StartChar: bnCA
Encoding: 286 2458 30
Width: 620
VWidth: 0
Flags: W
HStem: 0 116<199.371 299.423> 530 106.328<-10 71.9951 192 631>
VStem: 71.9951 120.005<119.874 389 490 530> 447 121<249.514 341.744>
AnchorPoint: "anchor 1" 214 10.6 basechar 0
AnchorPoint: "anchor0" 366 636.5 basechar 0
LayerCount: 2
Fore
SplineSet
192 389 m 1
 192 208 l 1
 192 148 192 116 232 116 c 0
 276 116 360 162 417 238 c 0
 441.298828125 270.397460938 447 288 447 307 c 0
 447 343 422.219726562 344 388 351 c 0
 290.258789062 370.993164062 192 389 192 389 c 1
192 490 m 25
 192 490 238.709960938 484.448242188 276 480 c 0
 394.9765625 465.806640625 419.131835938 461.709960938 448 456 c 0
 539 438 568 375.7421875 568 316 c 0
 568 287 557.532226562 249.840820312 546 228 c 0
 480 103 331 0 233 0 c 0
 168 0 71.9951171875 29 71.9951171875 159 c 2
 71.9951171875 530 l 1
 -10 530 l 1
 -10 636.328125 l 1
 631 636.328125 l 1
 631 530 l 1
 192 530 l 17
 192 490 l 25
EndSplineSet
Validated: 1
EndChar

StartChar: bnCHA
Encoding: 287 2459 31
Width: 685
VWidth: 0
Flags: W
HStem: 155 114.98<180.615 265.115> 530 106.328<-14 59 179 696>
VStem: 59 120.071<270.038 416.411 506 530> 506 120<221.305 349.475>
AnchorPoint: "anchor 1" 357 -35 basechar 0
AnchorPoint: "anchor0" 425 636.2 basechar 0
LayerCount: 2
Fore
SplineSet
323 327 m 0
 341.397460938 341.37109375 344.170898438 354.290039062 344.170898438 364.74609375 c 0
 344.170898438 390.73046875 318.337890625 391.133789062 292.15234375 395.7265625 c 0
 221.358398438 408.1484375 179.071289062 416.411132812 179.071289062 416.411132812 c 1
 179.071289062 303.268554688 l 1
 179.721679688 274.514648438 190.578125 269.98046875 202.931640625 269.98046875 c 0
 231.54296875 269.98046875 291.014648438 302.015625 323 327 c 0
459 359 m 1
 459 359 462 349 458.33203125 336 c 0
 454.800737077 323.484401484 436.837890625 281.618164062 391 244 c 0
 350.279296875 210.58203125 267.76953125 155 183 155 c 0
 144 155 59 184 59 268 c 2
 59 530 l 1
 -14 530 l 1
 -14 636.328125 l 1
 696 636.328125 l 1
 696 530 l 1
 179 530 l 1
 179 506 l 1
 179 506 246 500 461 463 c 0
 557.444335938 446.40234375 626 415 626 320 c 0
 626 292 614.897460938 217.271484375 608 187 c 0
 590 108 415 58 415 58 c 1
 615 -30 l 1
 587 -111 l 1
 587 -111 425 -73 212 12 c 1
 212 116 l 1
 212 116 475.055664062 185.692382812 493 233 c 0
 504 262 506 311 506 321 c 0
 506 333 505.923199315 341.791874038 484 350 c 0
 467.113842757 356.322238998 459 359 459 359 c 1
EndSplineSet
Validated: 1
EndChar

StartChar: bnNGA
Encoding: 288 2457 32
Width: 760
Flags: W
HStem: -0.356445 103.892<349.151 489.403> 263.208 102<439.063 584.047> 401 88<439 537.824> 547 90<440.041 536.399>
VStem: 318.998 120<360.476 401 505 544.824> 538 98<490.072 543.375> 592.637 117.363<180.847 252.931>
AnchorPoint: "anchor 1" 386 16.6 basechar 0
AnchorPoint: "anchor0" 503 636.7 basechar 0
LayerCount: 2
Fore
SplineSet
439 401 m 1xfc
 438.998046875 360.475585938 l 1
 438.998046875 360.475585938 528.998046875 365.208007812 564.998046875 365.208007812 c 0
 647.99609375 365.208007812 710 319.805664062 710 242 c 0
 710 137.130859375 565 0 399.94921875 -0.3564453125 c 0
 339.999023438 -0.486328125 262.525390625 31.8935546875 204 108 c 0
 82.5 266 50 402 50 402 c 1
 120 428.267578125 l 1
 120 428.267578125 226.165039062 268.72265625 290 186.267578125 c 0
 325.737304688 140.106445312 362.638671875 103.53515625 402.638671875 103.53515625 c 0
 490 103.53515625 592.63671875 185.208007812 592.63671875 216.208007812 c 0xfa
 592.63671875 244.208007812 568.72265625 263.208007812 529.998046875 263.208007812 c 0
 475.998046875 263.208007812 318.998046875 263.208007812 318.998046875 263.208007812 c 1
 318.998046875 410.208007812 l 1
 318.998046875 410.208007812 266.275390625 431.262695312 212 458 c 0
 186.70665262 470.460084169 168 482 168 482 c 9
 204 554 l 1
 320 505 l 1
 320 542 322.30078125 580.4140625 348 607 c 0
 371 631 413 637 473 637 c 0
 579 637 636 628 636 529 c 0
 636 464 625 401 548 401 c 2
 439 401 l 1xfc
436 489 m 1
 491 489 l 2
 523 489 538 490 538 515 c 0xfc
 538 539 531 547 482 547 c 0
 442 547 436 538 436 489 c 1
EndSplineSet
Validated: 33
EndChar

StartChar: bnNA
Encoding: 289 2472 33
Width: 645
VWidth: 0
Flags: W
HStem: 0 21G<462 582> 0 21G<462 582> 319 114.398<192.034 335.148> 530 106.328<-14 462 582 655>
VStem: 65.3555 116.684<220.125 308.528> 462 120<0 253 367 530>
AnchorPoint: "anchor0" 425 636 basechar 0
AnchorPoint: "anchor 1" 462 14 basechar 0
LayerCount: 2
Fore
SplineSet
462 253 m 5xbc
 462 253 296.079101562 319 236 319 c 4
 206.736328125 319 182.0390625 297.961914062 182.0390625 267.479492188 c 4
 182.0390625 228.557617188 283 127 283 127 c 5
 233 62 l 5
 233 62 143 120 108 157 c 4
 77.462890625 189.28125 65.35546875 236.028320312 65.35546875 277.431640625 c 4
 65.35546875 317.131835938 86.212890625 361.365234375 115 387 c 4
 154.502929688 422.177734375 187.908203125 433.3984375 224.963867188 433.3984375 c 4
 318.952148438 433.3984375 462 367 462 367 c 5
 462 530 l 5
 -14 530 l 5
 -14 636.328125 l 5
 655 636.328125 l 5
 655 530 l 5
 582 530 l 5
 582 0 l 5
 462 0 l 5
 462 253 l 5xbc
EndSplineSet
Validated: 1
EndChar

StartChar: bnNNA
Encoding: 290 2467 34
Width: 640
VWidth: 0
Flags: W
HStem: 0 21G<462 582> 0 21G<462 582> 487 120.844<224.858 366.747> 530 106.328<582 652>
VStem: 75.3555 121.645<357.503 457.563> 462 120<0 423 636.328 659.003>
AnchorPoint: "anchor0" 460.9 636.3 basechar 0
LayerCount: 2
Fore
SplineSet
579.80078125 636.328125 m 21x1c
 652 636.328125 l 5
 652 530 l 5
 582 530 l 29x1c
 582 0 l 5
 462 0 l 5
 462 423 l 5
 462 423 346 487 268 487 c 4
 226.68359375 487 197 431.666015625 197 408 c 4
 197 363.735351562 297 264 297 264 c 5
 240 200 l 5
 240 200 170.23046875 238.041015625 132 279.735351562 c 4
 107 307 75.35546875 354.763671875 75.35546875 405.166992188 c 4
 75.35546875 456.8671875 119.928710938 540.03515625 149.298828125 565 c 4
 183.846679688 594.365234375 222.677734375 607.84375 261.091796875 607.84375 c 4xac
 286.393554688 607.84375 321.456054688 603.2421875 345 597 c 4
 422.834127256 576.36389973 462 555 462 555 c 5
 462 636.298828125 l 5
 487.498046875 719 l 5
 579.796875 719 l 5
 579.80078125 636.328125 l 21x1c
EndSplineSet
Validated: 1
EndChar

StartChar: bnGA
Encoding: 291 2455 35
Width: 600
VWidth: 0
Flags: W
HStem: 513 111.778<154.062 304.412>
VStem: 31 131<407.758 509.343> 231.035 105.965<225.287 326.831>
AnchorPoint: "anchor 1" 408 9.9 basechar 0
AnchorPoint: "anchor0" 409.1 636.2 basechar 0
LayerCount: 2
Fore
SplineSet
159 121 m 5
 159 121 337 197.31640625 337 256 c 4
 337 287.665039062 326.575195312 334.231445312 323 347 c 4
 309 397 305.459960938 404.104492188 264.959960938 420.31640625 c 4
 233.896484375 432.750976562 162 451 162 467 c 4
 162 480 174.521484375 513 194 513 c 4
 214 513 262.241210938 502.090820312 285 496 c 4
 408 465 l 13
 408 0 l 21
 528 0 l 5
 528 530 l 29
 612 530 l 5
 612 636.328125 l 5
 515 636.328125 l 5
 492 702 l 5
 405 702 l 5
 409 636.19921875 l 5
 408.837890625 571 l 5
 408.837890625 571 261.486328125 624.778320312 167.014648438 624.778320312 c 4
 141.110351562 624.778320312 121.220703125 622 98.220703125 603 c 4
 78.5732630354 586.769506013 31 491.19921875 31 436 c 4
 31 379.516601562 142.75 354.682617188 204 330 c 4
 226.856445312 320.4765625 231.03515625 300.245117188 231.03515625 280.23828125 c 4
 231.03515625 258.698242188 117 189 117 189 c 5
 159 121 l 5
EndSplineSet
Validated: 9
EndChar

StartChar: bnPA
Encoding: 292 2474 36
Width: 640
VWidth: 0
Flags: W
HStem: 0 21G<464.149 584.149> 0 21G<464.149 584.149> 500 122<217.701 329.163> 530 106.328<584.149 654.149>
VStem: 464.149 190<530 636.328> 464.149 120<0 344 509 530>
AnchorPoint: "anchor0" 464.149 636.3 basechar 0
AnchorPoint: "anchor 1" 466.149 8 basechar 0
LayerCount: 2
Fore
SplineSet
464.149414062 344 m 1x94
 452.149414062 357 l 1
 273.149414062 203 l 1
 206.149414062 212 l 1
 83.1494140625 375 l 1
 36.1494140625 343 l 1
 -26.8505859375 433 l 1
 -26.8505859375 433 47.150390625 516.999023438 161.149414062 587 c 0
 191.697265625 605.7578125 232.149414062 622 261.149414062 622 c 0
 297.149414062 622 327.487304688 613.57421875 350.149414062 598 c 0
 423.078125 547.881835938 464.149414062 509 464.149414062 509 c 1xa4
 464.149414062 636.291015625 l 1
 458.647460938 702 l 1
 545.149414062 702 l 1
 572.750976562 636.328125 l 1
 654.149414062 636.328125 l 1
 654.149414062 530 l 1x18
 584.149414062 530 l 25
 584.149414062 0 l 1
 464.149414062 0 l 1
 464.149414062 344 l 1x94
387.149414062 431 m 1
 387.149414062 431 372.149414062 445 356.149414062 458 c 0
 326.810546875 481.837890625 299.149414062 500 271.149414062 500 c 0
 243.149414062 500 224.483398438 483.067382812 211.149414062 474 c 0
 186.149414062 457 163.149414062 439 163.149414062 439 c 1
 255.149414062 324 l 1
 387.149414062 431 l 1
EndSplineSet
Validated: 1
EndChar

StartChar: bnLA
Encoding: 293 2482 37
Width: 770
VWidth: 0
Flags: W
HStem: 0 21G<588 708> 0 21G<588 708> 351 111<176.774 311.563 464.176 582.71> 530 106.328<-14 588 708 781>
VStem: 46 120<200.214 341.582> 337 94<179 234.417> 588 120<0 346.984 435 530>
AnchorPoint: "anchor0" 563 636.3 basechar 0
AnchorPoint: "anchor 1" 588 12 basechar 0
LayerCount: 2
Fore
SplineSet
588 274 m 0xbe
 588 325 588 352 538 352 c 0
 487.796875 352 458.461914062 351.307617188 443 274 c 2
 431 179 l 1
 337 179 l 1
 333 250 l 1
 328.635742188 347.26171875 297.225585938 351 228 351 c 0
 177.37109375 351 166 327 166 281 c 0
 166 232.916015625 204 104 204 104 c 1
 125 75 l 1
 125 75 46 200.530273438 46 321 c 0
 46 435 148 462 209 462 c 0
 289.517578125 462 373.249023438 459.481445312 393 392 c 1
 421 451 469 458 527 458 c 0
 570.284179688 458 588 435 588 435 c 1
 588 530 l 1
 -14 530 l 1
 -14 636.328125 l 1
 781 636.328125 l 1
 781 530 l 1
 708 530 l 1
 708 0 l 1
 588 0 l 1
 588 274 l 0xbe
EndSplineSet
Validated: 1
EndChar

StartChar: bnDA
Encoding: 294 2470 38
Width: 575
Flags: W
AnchorPoint: "anchor 1" 325 -20 basechar 0
AnchorPoint: "anchor0" 353 636 basechar 0
LayerCount: 2
Fore
SplineSet
57 530 m 17
 57.103515625 280.500976562 l 1
 119 203 l 1
 371 318 l 1
 323 -35 l 1
 443 -35 l 1
 503.900390625 441 l 1
 432 479 l 1
 177 369 l 1
 177 530 l 1
 590 530 l 1
 590 636.328125 l 1
 -11 636.328125 l 1
 -11 530 l 1
 57 530 l 17
EndSplineSet
Validated: 9
EndChar

StartChar: bnSHA
Encoding: 295 2486 39
Width: 670
VWidth: 0
Flags: W
HStem: 0 21G<488 608> 0 21G<488 608> 530 106.328<345.323 461.436 608 678>
VStem: 200 123<360.344 507.399> 488 120<0 510.573>
AnchorPoint: "anchor 1" 488 10 basechar 0
AnchorPoint: "anchor0" 488 636.328 basechar 0
LayerCount: 2
Fore
SplineSet
597.00390625 636.328125 m 17xb8
 678 636.328125 l 1
 678 530 l 1
 608 530 l 25
 608 0 l 1
 488 0 l 1
 488 479 l 1
 488 511 438 526 401 526 c 0
 346.770507812 526 323 497 323 444 c 0
 323 390.71484375 323.6953125 371.182617188 359 350 c 0
 394 329 449 308 449 308 c 1
 425 226 l 1
 425 226 376 234 339 249 c 0
 298.330078125 265.487304688 274 283 274 283 c 1
 274 283 254.553936806 264.167389973 208 246 c 0
 167 230 97 226 97 226 c 1
 75 312 l 1
 75 312 108.999175958 322.00065625 151 342 c 0
 195.701171875 363.28515625 200 388.141601562 200 450 c 0
 200 500 184.918945312 513.958007812 148 518.00390625 c 0
 110.108398438 522.15625 -10 530 -10 530 c 1
 -10 636.328125 l 1
 -10 636.328125 126 636.328125 178 636.328125 c 0
 218 636.328125 244 629 268 599 c 1
 295 630 333 634 369 634 c 0
 413 634 450 622 488 602 c 1
 488 636 l 1
 513.498046875 717 l 1
 597 717 l 1
 597.00390625 636.328125 l 17xb8
EndSplineSet
Validated: 1
EndChar

StartChar: bnMA
Encoding: 296 2478 40
Width: 630
VWidth: 0
Flags: W
HStem: 0 21G<458 578> 0 21G<458 578> 530 106.328<-17 86 203 458 578 641>
VStem: 92 110.581<168.059 247.141> 458 120<0 185 300 530>
AnchorPoint: "anchor0" 393 636.4 basechar 0
AnchorPoint: "anchor 1" 458 6 basechar 0
LayerCount: 2
Fore
SplineSet
458 300 m 1x38
 458 530 l 1
 203 530 l 5
 203 530 262 498 286 485 c 4
 345.772454431 452.62325385 366 434 366 392 c 4
 366 373 356 346 356 346 c 5
 458 300 l 1x38
86 530 m 5
 -17 530 l 1
 -17 636.328125 l 1
 641 636.328125 l 1
 641 530 l 9
 578 530 l 25
 578 0 l 1
 458 0 l 1xb8
 458 185 l 1
 458 185 265.87890625 259 246 259 c 0
 235 259 225.571289062 252.8203125 214 231 c 0
 209.751953125 222.990234375 202.581054688 209 202.581054688 198 c 0
 202.581054688 186.993164062 209.525390625 181.500976562 219 173 c 0
 257.926757812 138.072265625 292 108 292 108 c 1
 248 47 l 1
 248 47 179.81640625 74.5537109375 133 113 c 0
 112.7734375 129.610351562 92 164 92 190 c 0
 92 213 93.068359375 247.958007812 118 288 c 0
 151 341 193 369 220 369 c 0
 236 369 253 367 253 367 c 5
 253 367 256 377 256 384 c 4
 256 392 238.745117188 401.219726562 223 410 c 4
 186.3046875 430.463867188 71 495 71 495 c 5
 86 530 l 5
EndSplineSet
Validated: 1
EndChar

StartChar: bnSA
Encoding: 297 2488 41
Width: 722
VWidth: 0
Flags: W
HStem: 0 21G<540 660> 0 21G<540 660> 76 120<164.984 254.859> 237 127<416 482.975> 530 106.328<-10 116 224 540 660 733>
VStem: 540 120<0 198.717 313 530>
AnchorPoint: "anchor0" 460 636.2 basechar 0
AnchorPoint: "anchor 1" 540 13 basechar 0
LayerCount: 2
Fore
SplineSet
540 313 m 1x3c
 540 530 l 1
 224 530 l 5
 224 530 253.463867188 515.0625 266 508 c 4
 314.744140625 480.540039062 370.740234375 448.719726562 394 416 c 4
 411.625976562 391.205078125 416 364 416 364 c 5
 452 364 540 313 540 313 c 1x3c
116 530 m 21
 -10 530 l 1
 -10 636.328125 l 1
 733 636.328125 l 1
 733 530 l 9
 660 530 l 25
 660 0 l 1
 540 0 l 1xbc
 540 188 l 1
 532.810546875 190.913085938 452.759765625 237 423 237 c 0
 411 237 402.059570312 234.975585938 387 199 c 0
 351 113 305 76 252 76 c 0
 182 76 64 146 64 146 c 1
 96 233 l 1
 96 233 197.547851562 196 214 196 c 0
 248 196 256 213 286 275 c 0
 290.69140625 284.6953125 303 314 303 332 c 4
 303 363 277.657297695 383.403884743 246 402 c 4
 205.870848698 425.572647608 99 490 99 490 c 13
 116 530 l 21
EndSplineSet
Validated: 1
EndChar

StartChar: bnJA
Encoding: 298 2460 42
Width: 950
Flags: W
HStem: -10.3564 112.892<358.091 473.406> 273.208 92<446.08 580.485>
VStem: 583 123<208.998 325.903>
AnchorPoint: "anchor 1" 666 -27 basechar 0
AnchorPoint: "anchor0" 695 636.7 basechar 0
LayerCount: 2
Fore
SplineSet
325 530 m 1
 324.998046875 263.208007812 l 1
 324.998046875 263.208007812 446.998046875 273.208007812 500.998046875 273.208007812 c 0
 556.72265625 273.208007812 583 273 583 241 c 0
 583 225.3671875 550.89453125 183.860351562 500 143 c 0
 475.6484375 123.44921875 442.1015625 102.53515625 416.638671875 102.53515625 c 0
 376.638671875 102.53515625 329.737304688 140.106445312 294 186.267578125 c 0
 230.165039062 268.72265625 111 422.267578125 111 422.267578125 c 1
 41 386 l 1
 41 386 86.5 266 208 108 c 0
 266.525390625 31.8935546875 353.999023438 -10.486328125 413.94921875 -10.3564453125 c 0
 470.6953125 -10.234375 501.779433919 10.6352492636 552 50 c 0
 629 110.35546875 706 210.186523438 706 287 c 0
 706 364.805664062 601.99609375 365.208007812 518.998046875 365.208007812 c 0
 482.998046875 365.208007812 444.998046875 360.475585938 444.998046875 360.475585938 c 1
 445 426 l 1
 445 426 679.518554688 377.977539062 737.518554688 360.977539062 c 4
 786.256835938 346.692382812 788.969659015 316.509334754 772.518554688 267.977539062 c 4
 741.561523438 176.65234375 663 -36 663 -36 c 5
 781 -36 l 5
 890 285 l 6
 894.103515625 299.455078125 896.184570312 311.653320312 896.184570312 326 c 4
 896.184570312 401 811.2734375 443.974609375 736 467 c 4
 651 493 445 513 445 513 c 1
 445 530 l 1
 964 530 l 1
 964 636.328125 l 1
 -15 636.328125 l 1
 -15 530 l 1
 325 530 l 1
EndSplineSet
Validated: 41
EndChar

StartChar: bnO
Encoding: 299 2451 43
Width: 725
VWidth: 0
Flags: W
HStem: 0 121<338.963 470.079> 319 100<368 501.61> 530 106<253 505.406>
VStem: 555 120<195.243 290.401>
AnchorPoint: "anchor0" 363 634 basechar 0
LayerCount: 2
Fore
SplineSet
423 530 m 0
 365.293945312 530 253 530 253 530 c 1
 245 616 l 1
 245 616 335 636 432 636 c 0
 546.003759453 636 622 606 622 546 c 0
 622 530 621.6875 503.8125 620 483 c 0
 617 446 614 388 594 374 c 1
 649 353 675 275.76953125 675 232 c 0
 675 171 604 82 510 26 c 0
 482.294921875 9.4951171875 443 0 409 0 c 0
 348 0 265 26 190 136 c 0
 111.921875 250.515625 54 395 54 395 c 1
 116 432 l 1
 252 240 l 2
 305.98745597 163.782415101 347 121 394 121 c 0
 440 121 484.369140625 148.557617188 500 162 c 0
 550 205 555 228 555 244 c 0
 555 271 521 319 479 319 c 1
 368 319 l 1
 368 419 l 1
 368 419 428.060546875 419 462 419 c 0
 501 419 503.081054688 428.088867188 508 474 c 0
 514 530 505.705078125 530 423 530 c 0
EndSplineSet
Validated: 33
EndChar

StartChar: bnAU
Encoding: 300 2452 44
Width: 825
VWidth: 0
Flags: W
HStem: 0 121<338.963 470.079> 319 100<368 501.61> 530 106<253 505.406>
VStem: 555 120<195.243 290.223> 673 104<439.923 729.963>
AnchorPoint: "anchor0" 376 636 basechar 0
LayerCount: 2
Fore
SplineSet
645 329 m 1xe8
 645 329 675 286.1171875 675 232 c 0
 675 171 603.999973574 81.9990677961 510 26 c 0
 482.294921875 9.4951171875 443 0 409 0 c 0
 348 0 264.999534278 25.9996824641 190 136 c 0
 111.921875 250.515625 54 395 54 395 c 1
 116 432 l 1
 252 240 l 2
 305.98745597 163.782415101 347 121 394 121 c 0
 440 121 484.369140625 148.557617188 500 162 c 0
 550 205 555 228 555 244 c 0xf0
 555 271 521 319 479 319 c 1
 368 319 l 1
 368 419 l 1
 368 419 428.060546875 419 462 419 c 0
 501 419 503.081054688 428.088867188 508 474 c 0
 514 530 505.705078125 530 423 530 c 0
 365.293945312 530 253 530 253 530 c 1
 245 616 l 1
 245 616 335 636 432 636 c 0
 546.003759453 636 622 606 622 546 c 0
 622 530 621.6875 503.8125 620 483 c 0
 618.59765625 465.708007812 615 429 615 429 c 1
 651 429 673 445 673 493 c 0
 673 599.432617188 670 739 670 739 c 9
 760 743 l 1
 760 743 777 509.061523438 777 451 c 0
 777 351 694 329 645 329 c 1xe8
EndSplineSet
Validated: 33
EndChar

StartChar: bnII
Encoding: 301 2440 45
Width: 780
VWidth: 0
Flags: W
HStem: 382.313 106.687<153.469 309> 530 106.328<-14 575 696 798> 682 97<283.24 571.018>
VStem: 280 119<306.543 421.5>
LayerCount: 2
Fore
SplineSet
80 355 m 5
 58 441 l 5
 58 441 214 489 283 489 c 4
 335 489 399 454 399 389 c 4
 399 341 371 293 371 293 c 5
 573 418 l 5
 686 418 l 5
 696 318 l 5
 628 293 l 5
 571 -117 l 5
 451 -117 l 5
 502 231 l 5
 146 16 l 5
 104 103 l 5
 170 169 l 5
 170 169 280 321.67578125 280 353 c 4
 280 375.201171875 267 382.313476562 240.877929688 382.313476562 c 4
 195.552734375 382.313476562 80 355 80 355 c 5
575 636.328125 m 17
 575 679.328125 559 682 511 682 c 0
 425.614257812 682 71 682 71 682 c 9
 67 765 l 1
 67 765 319 779 538 779 c 0
 690 779 696 714.328125 696 636.328125 c 9
 798 636.328125 l 1
 798 530 l 25
 -14 530 l 1
 -14 636.328125 l 1
 575 636.328125 l 17
EndSplineSet
Validated: 1
EndChar

StartChar: bnvL
Encoding: 302 2444 46
Width: 650
Flags: W
HStem: -0.356445 21G<302.83 307.221> -0.356445 21G<302.83 307.221>
VStem: 186.273 117.727<423.99 535.474> 483.106 113.894<133.726 230.064>
AnchorPoint: "anchor0" 499 531 basechar 0
LayerCount: 2
Fore
SplineSet
156 42 m 1xb0
 77 12 l 1
 77 12 46.9999165819 65.9999817747 40.673828125 94.955078125 c 0
 21.4638671875 182.880859375 51.15234375 232.12890625 141.989257812 252.068359375 c 0
 254.229492188 276.706054688 349.208007812 277.975585938 368 162 c 0
 372.03515625 137.096679688 376 114 376 114 c 1
 376 114 407.8046875 118.659179688 436.794921875 124.859375 c 0
 464.048828125 130.688476562 483.106445312 144 483.106445312 172.84765625 c 0
 483.106445312 187.629882812 482.408203125 203.002929688 471.599609375 219.708007812 c 0
 441 267 186.2734375 384 186.2734375 464.548828125 c 0
 186.2734375 531 258 619 325.216796875 665.635742188 c 1
 382 605 l 1
 334 554 304 514.698242188 304 493 c 0
 304 450.825195312 531.130859375 353.65234375 574 278 c 0
 591 248 597 166.409179688 597 143 c 0
 597 75 534 32 458.901367188 17.58203125 c 0
 409.089569394 8.01880863078 307.220703125 -0.3564453125 307.220703125 -0.3564453125 c 1
 289.424804688 80.7138671875 l 2
 274.272460938 149.7421875 257.919871932 169.919153534 191.142578125 153.90234375 c 0
 128.747070312 138.936523438 138 106 156 42 c 1xb0
EndSplineSet
Validated: 33
EndChar

StartChar: bnTTHA
Encoding: 303 2464 47
Width: 580
Flags: W
HStem: -0.148438 123.208<243.228 338.727> 530.001 106.327<-14 134.592 274 593>
VStem: 192 82<444 530.001> 403.276 124.724<186.372 261.647>
AnchorPoint: "anchor0" 338 636.4 basechar 0
AnchorPoint: "anchor 1" 249 20 basechar 0
LayerCount: 2
Fore
SplineSet
528 225 m 0
 528 143 391.399414062 -0.1484375 269.408203125 -0.1484375 c 0
 161.00463601 -0.1484375 38 218 38 311 c 1
 38 311 120.739846738 344.266644409 175.094726562 397.038085938 c 0
 191.286132812 412.7578125 192 425.7890625 192 444 c 0
 192 472.421875 140 530 140 530 c 1
 -14 530 l 1
 -14 636.328125 l 1
 134.591796875 636.328125 l 1
 134.591796875 636.328125 135.686523438 659.389648438 161 687 c 0
 214.553710938 745.412109375 341 841 341 841 c 1
 393 781 l 1
 393 781 294.852539062 689.1796875 264 658 c 0
 253.51953125 647.408203125 249.81640625 636.328125 249.81640625 636.328125 c 1
 593 636.328125 l 1
 593 530 l 1
 274 530.000976562 l 17
 274 500.822265625 528 335 528 225 c 0
403.276367188 224.666015625 m 0
 403.276367188 255.768554688 276.341796875 369.704101562 276.341796875 369.704101562 c 1
 276.341796875 369.704101562 261.447448395 344.78791392 240 322 c 0
 208 288 161 257 161 257 c 1
 161 257 234.288085938 123.059570312 281.268554688 123.059570312 c 0
 335.924804688 123.059570312 403.276367188 198.764648438 403.276367188 224.666015625 c 0
EndSplineSet
Validated: 1
EndChar

StartChar: A
Encoding: 304 65 48
Width: 692
Flags: W
HStem: 0 21G<34 34 34 184.4 528.95 528.95 528.95 678> 0 21G<34 34 34 184.4 528.95 528.95 528.95 678> 162.2 124.05 712 20G<281 440.25 440.25 440.25>
LayerCount: 2
Fore
SplineSet
34 0 m 1xb0
 281 732 l 1
 440.25 732 l 1
 678 0 l 1
 528.950195312 0 l 1
 476.950195312 162.200195312 l 1
 237.200195312 162.200195312 l 1
 184.400390625 0 l 1
 34 0 l 1xb0
273.549804688 286.25 m 1
 443.799804688 286.25 l 1
 361.549804688 547.5 l 1
 273.549804688 286.25 l 1
EndSplineSet
Validated: 1
EndChar

StartChar: B
Encoding: 305 66 49
Width: 604
Flags: W
HStem: 0 123.5<201.2 201.2 201.2 365.3> 324 118 608.5 123.5
VStem: 60.75 140.45 431.25 137.8 440.75 140<182.524 248.225>
LayerCount: 2
Fore
SplineSet
60.75 0 m 1xf4
 60.75 732 l 1
 362.549804688 732 l 2
 514.049804688 732 569.049804688 641.599609375 569.049804688 536.5 c 0xf8
 569.049804688 469.099609375 540.349609375 393.19921875 468.799804688 379.999023438 c 1
 529.849609375 368.899414062 580.75 308.099609375 580.75 215 c 0
 580.75 78.900390625 519.299804688 0 365.299804688 0 c 2
 60.75 0 l 1xf4
201.200195312 123.5 m 1
 359.799804688 123.499023438 l 2
 402.299804688 123.499023438 440.75 143.649414062 440.75 221.399414062 c 0xf4
 440.75 275.049804688 419.049804688 324 359.799804688 324 c 2
 201.200195312 324 l 1
 201.200195312 123.5 l 1
201.200195312 441.999023438 m 1
 354.299804688 441.999023438 l 2
 404.549804688 441.999023438 431.25 472.649414062 431.25 524.94921875 c 0xf8
 431.25 592.798828125 389.799804688 608.499023438 354.299804688 608.499023438 c 2
 201.200195312 608.499023438 l 1
 201.200195312 441.999023438 l 1
EndSplineSet
Validated: 1
EndChar

StartChar: C
Encoding: 306 67 50
Width: 571
Flags: W
HStem: -6 129 611 129<272.524 342.05 191.25 372.774>
VStem: 41.8 140
LayerCount: 2
Fore
SplineSet
41.7998046875 368 m 0
 41.7998046875 602 91.75 740 290.75 740 c 0
 393.349609375 740 466.94921875 730.200195312 545.749023438 706.75 c 1
 545.749023438 597.150390625 l 2
 544.749023438 597.150390625 421.798828125 611 323.749023438 611 c 0
 221.298828125 611 181.798828125 587.549804688 181.798828125 366 c 0
 181.798828125 202 208.8984375 123 324.298828125 123 c 0
 429.298828125 123 545.749023438 131.099609375 545.749023438 131.099609375 c 1
 545.749023438 21.5 l 1
 480.149414062 1.349609375 395.549804688 -7.650390625 290.75 -6 c 0
 105.75 -4.349609375 41.7998046875 135.950195312 41.7998046875 368 c 0
EndSplineSet
Validated: 33
EndChar

StartChar: D
Encoding: 307 68 51
Width: 662
Flags: W
HStem: 0 124.85 608.5 123.5<200.75 360.8 200.75 200.75>
VStem: 60.75 140<124.85 124.85 124.85 608.5> 485.75 140<290.575 453.675 255.25 461.925>
LayerCount: 2
Fore
SplineSet
60.75 0 m 1
 60.75 732 l 1
 371.799804688 732 l 2
 582.5 732 625.75 544.349609375 625.75 363 c 0
 625.75 147.5 550.5 0 371.799804688 0 c 2
 60.75 0 l 1
200.75 124.849609375 m 1
 360.799804688 124.850585938 l 2
 451.549804688 124.850585938 485.75 217.150390625 485.75 364 c 0
 485.75 559.849609375 438.849609375 608.5 360.799804688 608.5 c 2
 200.75 608.5 l 1
 200.75 124.849609375 l 1
EndSplineSet
Validated: 1
EndChar

StartChar: E
Encoding: 308 69 52
Width: 567
Flags: W
HStem: -3 131.75 14 114.75 294.95 135.1 304.4 115.1 600.25 115.75 600.25 131.75
VStem: 58 140
LayerCount: 2
Fore
SplineSet
58 143.900390625 m 2x82
 58.0009765625 580 l 2
 58.0009765625 707.025390625 147.965820312 733.350585938 217.000976562 732.000976562 c 2x86
 217.000976562 732.000976562 474.701171875 724.80078125 539.05078125 716.000976562 c 1
 539.05078125 600.250976562 l 1x0a
 250.000976562 600.250976562 l 2
 198.000976562 600.250976562 198.000976562 571.250976562 198.000976562 544.250976562 c 2
 198.000976562 430.05078125 l 1x26
 493.55078125 419.500976562 l 1
 493.55078125 304.401367188 l 1x12
 198.000976562 294.951171875 l 1
 198.000976562 180.750976562 l 2
 198.451171875 127.750976562 231.000976562 128.750976562 260.000976562 128.750976562 c 2xa2
 539.05078125 128.750976562 l 1
 539.05078125 14.0009765625 l 1x42
 482.400390625 6.30078125 227 -2.9990234375 227 -2.9990234375 c 2
 161.71484375 -5.8994140625 58 8.900390625 58 143.900390625 c 2x82
EndSplineSet
Validated: 33
EndChar

StartChar: F
Encoding: 309 70 53
Width: 567
Flags: W
HStem: 0 21G<58 58 58 198> 0 21G<58 58 58 198> 294.95 135.1 304.4 115.1 600.25 115.75<250 539.05> 600.25 131.75<217 250 217 539.05>
VStem: 58 140<0 294.95 430.05 544.25>
LayerCount: 2
Fore
SplineSet
58 0 m 1xa2
 58 577.799804688 l 2
 58 697.25 140.264648438 733.900390625 217 732 c 2xa6
 217 732 474.700195312 724.799804688 539.049804688 716 c 1
 539.049804688 600.25 l 1x0a
 250 600.25 l 2
 198 600.25 198 571.25 198 544.25 c 2
 198 430.049804688 l 1x26
 493.549804688 419.5 l 1
 493.549804688 304.400390625 l 1x12
 198 294.950195312 l 1
 198 0 l 1
 58 0 l 1xa2
EndSplineSet
Validated: 33
EndChar

StartChar: G
Encoding: 310 71 54
Width: 614
Flags: W
HStem: -5 130.75 303 88.5<330.75 433.3 330.75 330.75> 303 113.5<330.75 515.8> 616.5 123.5<258.475 336.175 181.25 370.95>
VStem: 41.8 140 433.3 140
LayerCount: 2
Fore
SplineSet
41.7998046875 370 m 0xbc
 41.7998046875 582.650390625 81.75 740 280.75 740 c 0
 391.599609375 740 456.5 733.700195312 562.25 707.5 c 1
 562.25 599 l 1
 556.25 599 428.150390625 616.5 313.75 616.5 c 0
 203.200195312 616.5 181.799804688 548.549804688 181.799804688 368 c 0
 181.799804688 177.900390625 203.549804688 126.650390625 307.299804688 125.75 c 0
 375.599609375 125.299804688 433.299804688 171.75 433.299804688 171.75 c 1
 433.299804688 303 l 1xbc
 330.75 303 l 1
 330.75 391.5 l 1xdc
 373.5 409.650390625 432.549804688 416.5 505.299804688 416.5 c 0
 526.299804688 416.5 549.299804688 415.5 573.299804688 413.5 c 1
 573.299804688 0 l 1
 472.75 0 l 1
 435.299804688 49 l 1
 402.799804688 19.2001953125 364.299804688 -2.25 279.799804688 -5 c 0
 72.7998046875 -13.0498046875 41.7998046875 161.299804688 41.7998046875 370 c 0xbc
EndSplineSet
Validated: 33
EndChar

StartChar: H
Encoding: 311 72 55
Width: 636
Flags: W
HStem: 0 21G<60.75 60.75 60.75 200.75 451.75 451.75 451.75 591.75> 0 21G<60.75 60.75 60.75 200.75 451.75 451.75 451.75 591.75> 289.5 129<200.75 451.75 200.75 451.75> 712 20G<60.75 200.75 200.75 200.75 451.75 591.75 591.75 591.75>
VStem: 60.75 140<0 289.5 418.5 732> 451.75 140<0 289.5 289.5 289.5 418.5 732 0 732>
LayerCount: 2
Fore
SplineSet
60.75 0 m 1xbc
 60.75 732 l 1
 200.75 732 l 1
 200.75 418.5 l 1
 451.75 418.5 l 1
 451.75 732 l 1
 591.75 732 l 1
 591.75 0 l 1
 451.75 0 l 1
 451.75 289.5 l 1
 200.75 289.5 l 1
 200.75 0 l 1
 60.75 0 l 1xbc
EndSplineSet
Validated: 1
EndChar

StartChar: I
Encoding: 312 73 56
Width: 245
Flags: W
HStem: 0 21G<60.75 60.75 60.75 200.75> 0 21G<60.75 60.75 60.75 200.75> 712 20G<60.75 200.75 200.75 200.75>
VStem: 60.75 140<0 732 0 732>
LayerCount: 2
Fore
SplineSet
60.75 0 m 1xb0
 60.75 732 l 1
 200.75 732 l 1
 200.75 0 l 1
 60.75 0 l 1xb0
EndSplineSet
Validated: 1
EndChar

StartChar: J
Encoding: 313 74 57
Width: 356
Flags: W
HStem: 712 20G<171.649 311.649 311.649 311.649>
VStem: 171.65 140
LayerCount: 2
Fore
SplineSet
26.75 23.2001953125 m 1
 28.5498046875 132.19921875 l 1
 119.599609375 124.099609375 171.19921875 121.149414062 171.649414062 226.049804688 c 2
 171.649414062 732 l 1
 311.649414062 732 l 1
 311.649414062 165 l 2
 311.649414062 118 308.549804688 50 258.549804688 18 c 0
 205.549804688 -16 78.75 -10.7998046875 26.75 23.2001953125 c 1
EndSplineSet
Validated: 33
EndChar

StartChar: K
Encoding: 314 75 58
Width: 628
Flags: W
HStem: 0 21G<60.75 60.75 60.75 196.25 439.601 439.601 439.601 602.751> 0 21G<60.75 60.75 60.75 196.25 439.601 439.601 439.601 602.751> 302.5 123.5<196.25 254.15 196.25 196.25> 712 20G<60.75 195.25 195.25 195.25 439.601 602.751 602.751 602.751>
VStem: 60.75 134.5<426 732 426 732 426 732>
LayerCount: 2
Fore
SplineSet
60.75 0 m 1xb8
 60.75 732 l 1
 195.25 732 l 1
 195.25 426 l 1
 254.150390625 426 l 1
 439.600585938 732 l 1
 602.750976562 732 l 1
 378.80078125 365.349609375 l 1
 602.750976562 0 l 1
 439.600585938 0 l 1
 254.150390625 302.5 l 1
 196.25 302.5 l 1
 196.25 0 l 1
 60.75 0 l 1xb8
EndSplineSet
Validated: 1
EndChar

StartChar: L
Encoding: 315 76 59
Width: 539
Flags: W
HStem: 0 129<173.375 513.75 262.75 513.75 262.75 513.75> 712 20G<60.75 200.75 200.75 200.75>
VStem: 60.75 140<154.5 181 181 732>
LayerCount: 2
Fore
SplineSet
60.75 142.5 m 2
 60.75 732 l 1
 200.75 732 l 1
 200.75 181 l 2
 200.75 128 233.75 129 262.75 129 c 2
 513.75 129 l 1
 513.75 0 l 1
 213.25 0 l 2
 133.5 0 60.75 29.5 60.75 142.5 c 2
EndSplineSet
Validated: 33
EndChar

StartChar: M
Encoding: 316 77 60
Width: 847
Flags: W
HStem: 0 21G<41.7998 41.7998 41.7998 180.149 345.949 345.949 345.949 502.249 668.149 668.149 668.149 806.499> 0 21G<41.7998 41.7998 41.7998 180.149 345.949 345.949 345.949 502.249 668.149 668.149 668.149 806.499> 712 20G<106.299 300.699 300.699 300.699 543.898 737.849 737.849 737.849>
LayerCount: 2
Fore
SplineSet
41.7998046875 0 m 1xa0
 106.298828125 732 l 1
 300.69921875 732 l 1
 422.548828125 231.900390625 l 1
 543.8984375 732 l 1
 737.848632812 732 l 1
 806.499023438 0 l 1
 668.149414062 -0 l 1
 620.399414062 488.549804688 l 1
 502.249023438 0 l 1
 345.94921875 -0 l 1
 223.44921875 488.549804688 l 1
 180.149414062 0 l 1
 41.7998046875 0 l 1xa0
EndSplineSet
Validated: 1
EndChar

StartChar: N
Encoding: 317 78 61
Width: 678
Flags: W
HStem: 0 21G<60.75 60.75 60.75 201.75 493.2 493.2 493.2 633.2> 0 21G<60.75 60.75 60.75 201.75 493.2 493.2 493.2 633.2> 712 20G<60.75 202.75 202.75 202.75 493.2 633.2 633.2 633.2>
VStem: 60.75 141<0 467.5 0 732> 493.2 140
LayerCount: 2
Fore
SplineSet
60.75 0 m 1xb8
 60.75 732 l 1
 202.75 732 l 1
 493.200195312 259 l 1
 493.200195312 732 l 1
 633.200195312 732 l 1
 633.200195312 0 l 1
 493.200195312 0 l 1
 201.75 467.5 l 1
 201.75 0 l 1
 60.75 0 l 1xb8
EndSplineSet
Validated: 1
EndChar

StartChar: O
Encoding: 318 79 62
Width: 671
Flags: W
HStem: -4 129<281.55 402.8 281.55 434.05> 608 129<289.925 399.675>
VStem: 49.6 140 497.6 140
LayerCount: 2
Fore
SplineSet
49.599609375 361 m 0
 49.599609375 704 176.049804688 737 344.049804688 737 c 0
 517.049804688 737 637.599609375 704 637.599609375 361 c 0
 637.599609375 38 524.049804688 -4 344.049804688 -4 c 0
 164.049804688 -4 49.599609375 28 49.599609375 361 c 0
189.599609375 361 m 0
 189.599609375 161.200195312 219.049804688 125 344.049804688 125 c 0
 461.549804688 125 497.599609375 163.700195312 497.599609375 361 c 0
 497.599609375 589.049804688 455.299804688 608 344.049804688 608 c 0
 235.799804688 608 189.599609375 594 189.599609375 361 c 0
EndSplineSet
Validated: 1
EndChar

StartChar: P
Encoding: 319 80 63
Width: 602
Flags: W
HStem: 0 21G<51.2002 51.2002 51.2002 191.2> 0 21G<51.2002 51.2002 51.2002 191.2> 270.5 123.5 290.5 103.5<191.2 191.2> 607.5 124.5<191.2 354.95 191.2 191.2>
VStem: 51.2 140 428 141
LayerCount: 2
Fore
SplineSet
51.2001953125 0 m 1x9e
 51.2001953125 732 l 1
 365.950195312 732 l 2
 457.600585938 732 569.000976562 703.400390625 569.000976562 506.25 c 0
 569.000976562 282.950195312 449.850585938 266.650390625 365.950195312 270.5 c 0xae
 325.950195312 272.150390625 196.200195312 287.5 191.200195312 290.5 c 1
 191.200195312 0 l 1
 51.2001953125 0 l 1x9e
191.200195312 394 m 1x1e
 354.951171875 393.999023438 l 2x2e
 399.250976562 393.999023438 428.000976562 416.69921875 428.000976562 504.599609375 c 0
 427.100585938 591.049804688 389.950195312 607.5 354.950195312 607.5 c 2
 191.200195312 607.5 l 1
 191.200195312 394 l 1x1e
EndSplineSet
Validated: 33
EndChar

StartChar: Q
Encoding: 320 81 64
Width: 671
Flags: W
HStem: -174.25 113<541.949 541.949> -4 129<280.649 343.149> 608 129<289.024 398.774>
VStem: 49.6 140 497.6 140
LayerCount: 2
Fore
SplineSet
49.599609375 361 m 0
 49.599609375 704 173.349609375 737 343.149414062 737 c 0
 516.149414062 737 637.599609375 704 637.599609375 361 c 0
 637.599609375 38 523.149414062 -2.900390625 343.149414062 -4 c 0
 163.149414062 -4 49.599609375 28 49.599609375 361 c 0
189.599609375 361 m 0
 189.599609375 161.200195312 218.149414062 125 343.149414062 125 c 0
 460.649414062 125 497.599609375 163.700195312 497.599609375 361 c 0
 497.599609375 589.049804688 454.399414062 608 343.149414062 608 c 0
 234.899414062 608 189.599609375 594 189.599609375 361 c 0
299.94921875 -33 m 1
 379.44921875 -33 l 1
 410.649414062 -86.349609375 482.849609375 -77.2998046875 541.94921875 -61.25 c 1
 541.94921875 -174.25 l 1
 441.349609375 -196.299804688 307.69921875 -161.049804688 299.94921875 -33 c 1
EndSplineSet
Validated: 33
EndChar

StartChar: R
Encoding: 321 82 65
Width: 607
Flags: W
HStem: 0 21G<51.2002 51.2002 51.2002 191.2 435.2 435.2 435.2 592.75> 0 21G<51.2002 51.2002 51.2002 191.2 435.2 435.2 435.2 592.75> 291 110<191.2 357.701> 607.5 124.5<191.751 357.701 191.751 191.751>
VStem: 51.2 140 429.7 141
LayerCount: 2
Fore
SplineSet
51.2001953125 0 m 1xbc
 51.201171875 732 l 1
 371.451171875 732 l 2
 485.701171875 732 570.701171875 678.549804688 570.701171875 503.75 c 0
 570.701171875 322.549804688 494.80078125 301.049804688 454.150390625 288.25 c 1
 592.75 0 l 1
 435.200195312 0 l 1
 314.200195312 277 l 1
 191.200195312 291 l 1
 191.200195312 0 l 1
 51.2001953125 0 l 1xbc
191.750976562 401 m 1
 357.701171875 401 l 2
 406.451171875 401 429.701171875 415.299804688 429.701171875 503.75 c 0
 429.701171875 586.900390625 401.701171875 607.5 357.701171875 607.5 c 2
 191.750976562 607.5 l 1
 191.750976562 401 l 1
EndSplineSet
Validated: 1
EndChar

StartChar: S
Encoding: 322 83 66
Width: 590
Flags: W
HStem: -8 129<292.149 348.149 280.6 404.1> 291.75 140<150.35 384.1 268.5 351.1> 609 129
VStem: 49.6 140 417.15 140
LayerCount: 2
Fore
SplineSet
49.599609375 485.75 m 2
 49.599609375 548.999023438 l 2
 49.599609375 693.999023438 135.599609375 736.348632812 247.599609375 737.999023438 c 0
 352.849609375 740.19921875 472.799804688 726.149414062 530.599609375 709.049804688 c 1
 530.599609375 599 l 1
 466.599609375 604.650390625 322.399414062 609 286.099609375 609 c 0
 224.899414062 610.349609375 189.599609375 606.099609375 189.599609375 538 c 2
 189.599609375 502.25 l 2
 189.599609375 444.25 211.799804688 431.75 268.5 431.75 c 2
 384.099609375 431.75 l 2
 527.549804688 431.75 557.149414062 318.650390625 557.149414062 237.75 c 2
 557.149414062 189 l 2
 557.149414062 22.7998046875 453.599609375 -8 354.599609375 -8 c 0
 229.69921875 -8 147.849609375 -0.349609375 72.1494140625 21.9501953125 c 1
 72.1494140625 132 l 1
 112.149414062 128 234.099609375 121 327.099609375 121 c 0
 369.19921875 121 417.149414062 127.950195312 417.149414062 184.049804688 c 2
 417.149414062 223.450195312 l 2
 417.149414062 265.049804688 404.549804688 291.75 351.099609375 291.75 c 2
 238.599609375 291.75 l 2
 62.099609375 291.75 49.599609375 422.099609375 49.599609375 485.75 c 2
EndSplineSet
Validated: 33
EndChar

StartChar: T
Encoding: 323 84 67
Width: 593
Flags: W
HStem: 0 21G<228.75 368.75 228.75 228.75> 0 21G<228.75 368.75 228.75 228.75> 603 129<31.25 572.25 31.25 228.75 368.75 368.75 368.75 572.25>
VStem: 228.75 140<0 603 0 603>
LayerCount: 2
Fore
SplineSet
31.25 603 m 1xb0
 31.25 732 l 1
 572.25 732 l 1
 572.25 603 l 1
 368.75 603 l 1
 368.75 0 l 1
 228.75 0 l 1
 228.75 603 l 1
 31.25 603 l 1xb0
EndSplineSet
Validated: 1
EndChar

StartChar: U
Encoding: 324 85 68
Width: 664
Flags: W
HStem: -5 129<290.3 389.5 290.3 403.25> 712 20G<60.75 200.75 200.75 200.75 478.75 619.75 619.75 619.75>
VStem: 60.75 140<320 732> 478.75 141<320 732>
LayerCount: 2
Fore
SplineSet
60.75 320 m 2
 60.75 732 l 1
 200.75 732 l 1
 200.75 320 l 2
 200.75 152.650390625 237.849609375 124 342.75 124 c 0
 436.25 124 478.75 158.450195312 478.75 320 c 2
 478.75 732 l 1
 619.75 732 l 1
 619.75 320 l 2
 619.75 -3 463.75 -5 342.75 -5 c 0
 206.75 -5 60.75 -13 60.75 320 c 2
EndSplineSet
Validated: 33
EndChar

StartChar: V
Encoding: 325 86 69
Width: 685
Flags: W
HStem: 0 21G<263.5 425.5 263.5 263.5> 0 21G<263.5 425.5 263.5 263.5> 712 20G<34 182.65 182.65 182.65 518.35 667 667 667>
LayerCount: 2
Fore
SplineSet
34 732 m 1xa0
 182.650390625 732 l 1
 345.5 184 l 1
 518.349609375 732 l 1
 667 732 l 1
 425.5 0 l 1
 263.5 0 l 1
 34 732 l 1xa0
EndSplineSet
Validated: 1
EndChar

StartChar: W
Encoding: 326 87 70
Width: 992
Flags: W
HStem: 0 21G<263.5 425.5 263.5 263.5 610.9 772.9 610.9 610.9> 0 21G<263.5 425.5 263.5 263.5 610.9 772.9 610.9 610.9> 712 20G<34 182.649 182.649 182.649 476.55 626.55 626.55 626.55 825.75 974.4 974.4 974.4>
LayerCount: 2
Fore
SplineSet
34 732 m 1xa0
 182.649414062 732 l 1
 345.049804688 188.950195312 l 1
 476.549804688 732 l 1
 626.549804688 732 l 1
 575.599609375 543.099609375 l 1
 691.549804688 186.25 l 1
 825.75 732 l 1
 974.400390625 732 l 1
 772.900390625 0 l 1
 610.900390625 0 l 1
 512.400390625 299.75 l 1
 425.5 0 l 1
 263.5 0 l 1
 34 732 l 1xa0
EndSplineSet
Validated: 1
EndChar

StartChar: X
Encoding: 327 88 71
Width: 641
Flags: W
HStem: 0 21G<37 191.7 37 37 463 617.7 463 463> 0 21G<37 191.7 37 37 463 617.7 463 463> 712 20G<34 188.7 188.7 188.7 468 622.7 622.7 622.7>
LayerCount: 2
Fore
SplineSet
34 732 m 1xa0
 188.700195312 732 l 1
 327.450195312 482.200195312 l 1
 468 732 l 1
 622.700195312 732 l 1
 402.850585938 366.599609375 l 1
 617.700195312 0 l 1
 463 0 l 1
 327.450195312 246.400390625 l 1
 191.700195312 0 l 1
 37 -0 l 1
 251.5 366.599609375 l 1
 34 732 l 1xa0
EndSplineSet
Validated: 1
EndChar

StartChar: Y
Encoding: 328 89 72
Width: 656
Flags: W
HStem: 0 21G<257.1 397.1 257.1 257.1> 0 21G<257.1 397.1 257.1 257.1> 712 20G<34 186.5 186.5 186.5 485.5 638 638 638>
VStem: 257.1 140
LayerCount: 2
Fore
SplineSet
34 732 m 1xb0
 186.5 732 l 1
 329.299804688 381 l 1
 485.5 732 l 1
 638 732 l 1
 397.099609375 227 l 1
 397.099609375 0 l 1
 257.099609375 0 l 1
 257.099609375 227 l 1
 34 732 l 1xb0
EndSplineSet
Validated: 1
EndChar

StartChar: Z
Encoding: 329 90 73
Width: 556
Flags: W
HStem: 0 129<26.75 26.75 211.75 530.75> 603 129<26.75 362.25 26.75 530.75 26.75 530.75>
LayerCount: 2
Fore
SplineSet
26.75 0 m 1
 26.75 129 l 1
 362.25 603 l 1
 26.75 603 l 1
 26.75 732 l 1
 530.75 732 l 1
 530.75 603 l 1
 211.75 129 l 1
 530.75 129 l 1
 530.75 0 l 1
 26.75 0 l 1
EndSplineSet
Validated: 1
EndChar

StartChar: a
Encoding: 330 97 74
Width: 519
Flags: W
HStem: -6 112.5 430.5 110.5
VStem: 30.1 140 341.65 140
LayerCount: 2
Fore
SplineSet
30.099609375 135.349609375 m 2
 30.1005859375 185.34765625 l 2
 30.1005859375 262.59765625 71.8505859375 330.998046875 185.650390625 330.998046875 c 2
 185.650390625 330.998046875 341.650390625 329.998046875 341.650390625 330.998046875 c 2
 341.650390625 330.998046875 342.650390625 363.998046875 341.650390625 364.998046875 c 0
 341.650390625 421.59765625 315.150390625 430.498046875 270.650390625 430.498046875 c 0
 224.5 430.498046875 91.2998046875 422.198242188 47.6494140625 419.047851562 c 1
 47.6494140625 505.498046875 l 1
 117.549804688 532.6484375 190.599609375 540.548828125 289.599609375 540.999023438 c 0
 403.94921875 541.44921875 481.649414062 501.94921875 481.649414062 370.499023438 c 2
 481.649414062 -0.0009765625 l 1
 371.099609375 -0.0009765625 l 1
 341.649414062 58.4990234375 l 1
 335.799804688 46.94921875 261.25 -7.650390625 180.150390625 -6 c 0
 78 -3.25 30.099609375 66.2998046875 30.099609375 135.349609375 c 2
170.100585938 155.197265625 m 2
 170.100585938 111.046875 194.000976562 106.498046875 219.750976562 106.498046875 c 0
 278.30078125 106.498046875 341.650390625 147.59765625 341.650390625 147.59765625 c 1
 341.650390625 244.947265625 l 1
 213.150390625 234.997070312 l 2
 176.200195312 231.546875 170.100585938 204.197265625 170.100585938 180.997070312 c 2
 170.100585938 155.197265625 l 2
EndSplineSet
Validated: 33
EndChar

StartChar: b
Encoding: 331 98 75
Width: 556
Flags: W
HStem: -6 119.65 429.25 109.75<323.551 331.851>
VStem: 45.7 139.1 379.4 140
LayerCount: 2
Fore
SplineSet
45.7001953125 0 m 1
 45.701171875 785 l 1
 184.80078125 785 l 1
 184.80078125 504.5 l 1
 233.400390625 526.650390625 301.05078125 539 346.05078125 539 c 0
 493.201171875 539 519.401367188 428.150390625 519.401367188 263 c 0
 519.401367188 101.950195312 476.750976562 -6 346.05078125 -6 c 0
 283.000976562 -6 218.951171875 26.7998046875 185.80078125 53.5 c 1
 160.850585938 0 l 1
 45.7001953125 0 l 1
185.80078125 146.450195312 m 1
 215.600585938 127.200195312 257.151367188 113.649414062 309.750976562 113.649414062 c 0
 354.951171875 113.649414062 379.401367188 150.049804688 379.401367188 268.5 c 0
 379.401367188 404 353.951171875 429.25 309.750976562 429.25 c 0
 261.350585938 429.25 222.350585938 423.450195312 185.80078125 409.299804688 c 1
 185.80078125 146.450195312 l 1
EndSplineSet
Validated: 1
EndChar

StartChar: c
Encoding: 332 99 76
Width: 494
Flags: W
HStem: -5 112.5 423.5 112.5
VStem: 37.9 140
LayerCount: 2
Fore
SplineSet
37.900390625 266 m 0
 37.900390625 484.799804688 110.900390625 536.000976562 212.900390625 536.000976562 c 0
 264.900390625 536.000976562 369.80078125 532.901367188 457.400390625 504.500976562 c 1
 457.400390625 417.500976562 l 1
 457.400390625 417.500976562 361.850585938 423.500976562 272.850585938 423.500976562 c 0
 208.450195312 423.500976562 177.900390625 419.651367188 177.900390625 263.1015625 c 0
 177.900390625 127.151367188 200.850585938 107.500976562 272.850585938 107.500976562 c 0
 364.850585938 107.500976562 464.400390625 116.850585938 464.400390625 116.850585938 c 1
 464.400390625 28.9501953125 l 1
 386.700195312 -10.5498046875 295.900390625 -4 212.900390625 -5 c 0
 113.900390625 -5 37.900390625 46.75 37.900390625 266 c 0
EndSplineSet
Validated: 33
EndChar

StartChar: d
Encoding: 333 100 77
Width: 556
Flags: W
HStem: -6 119.65 429.25 109.75<225.452 233.752 137.677 271.752>
VStem: 37.9 140 372.05 139.55
LayerCount: 2
Fore
SplineSet
37.900390625 263 m 0
 37.900390625 432.549804688 64.1015625 539 211.251953125 539 c 0
 256.251953125 539 323.452148438 526.650390625 372.051757812 504.5 c 1
 372.051757812 785 l 1
 511.6015625 785 l 1
 511.6015625 0 l 1
 396.451171875 0 l 1
 371.500976562 53.5 l 1
 338.350585938 26.7998046875 274.30078125 -6 211.250976562 -6 c 0
 80.55078125 -6 37.900390625 97.5498046875 37.900390625 263 c 0
177.901367188 268.5 m 0
 177.901367188 150.049804688 202.352539062 113.650390625 247.552734375 113.650390625 c 0
 300.15234375 113.650390625 341.702148438 127.200195312 371.501953125 146.450195312 c 1
 371.501953125 409.299804688 l 1
 334.952148438 423.450195312 295.952148438 429.25 247.551757812 429.25 c 0
 203.3515625 429.25 177.901367188 404 177.901367188 268.5 c 0
EndSplineSet
Validated: 1
EndChar

StartChar: f
Encoding: 334 102 78
Width: 403
Flags: W
HStem: 0 21G<98.2998 238.3 98.2998 98.2998> 0 21G<98.2998 238.3 98.2998 98.2998> 424 90<15.0498 15.0498 15.0498 98.2998> 424 107<15.0498 98.2998 15.0498 98.2998 238.3 358.8> 679.9 106.1
VStem: 98.3 140
LayerCount: 2
Fore
SplineSet
15.0498046875 424 m 1x6c
 15.0498046875 514 l 1x6c
 98.2998046875 531 l 1
 98.2998046875 630 l 2
 98.2998046875 720.849609375 134.849609375 786 254.849609375 786 c 0
 303.849609375 786 345.299804688 779.75 388.799804688 762 c 1
 388.799804688 678.900390625 l 2
 387.799804688 678.900390625 293.299804688 679.900390625 293.299804688 679.900390625 c 2
 237 680.900390625 238.299804688 652.700195312 238.299804688 597 c 2
 238.299804688 531 l 1
 358.799804688 531 l 1
 358.799804688 424 l 1
 238.299804688 424 l 1
 238.299804688 0 l 1x9c
 98.2998046875 0 l 1
 98.2998046875 424 l 1
 15.0498046875 424 l 1x6c
EndSplineSet
Validated: 33
EndChar

StartChar: g
Encoding: 335 103 79
Width: 560
Flags: W
HStem: -270 112.5 -14.3 113.05 149 112.5 420.5 112.5
VStem: 35.35 126.25 38.55 140 366.55 140 382.6 139.45
LayerCount: 2
Fore
SplineSet
35.349609375 102.349609375 m 0xf9
 35.349609375 144.149414062 53.900390625 183.399414062 97.1005859375 196.899414062 c 1
 53.1005859375 224.899414062 38.55078125 290.999023438 38.55078125 343.999023438 c 0
 38.55078125 470.999023438 102.900390625 532.999023438 222.55078125 532.999023438 c 2
 545.55078125 532.999023438 l 1
 545.55078125 449.499023438 l 1
 486.55078125 431.499023438 l 1
 495.900390625 409.399414062 506.55078125 391.149414062 506.55078125 327.499023438 c 0xf6
 506.55078125 250.999023438 474.750976562 148.999023438 325.05078125 148.999023438 c 2
 202.05078125 148.999023438 l 2
 186.05078125 148.999023438 161.600585938 148.848632812 161.600585938 125.598632812 c 0
 161.600585938 102.348632812 179.908203125 98.7490234375 202.049804688 98.7490234375 c 2
 365 98.7490234375 l 2
 461.01953125 98.7490234375 522.049804688 48.69921875 522.049804688 -58.5009765625 c 2
 522.049804688 -116.000976562 l 2
 522.049804688 -192.500976562 486.549804688 -270.000976562 355.549804688 -270.000976562 c 2
 205.549804688 -270.000976562 l 2
 111.549804688 -270.000976562 40.0498046875 -221.100585938 40.0498046875 -116.000976562 c 2
 40.0498046875 -48.6005859375 l 1
 86.6494140625 -0.1005859375 l 1
 58.6494140625 15.4990234375 35.349609375 51.69921875 35.349609375 102.349609375 c 0xf9
180.600585938 -98.9501953125 m 2
 180.600585938 -151.600585938 208.5 -157.5 243.5 -157.5 c 2
 326.400390625 -157.5 l 2
 376.600585938 -157.5 382.600585938 -132.75 382.600585938 -101.700195312 c 2
 382.600585938 -62.9501953125 l 2xf1
 382.600585938 -33 370.2578125 -14.7177734375 330.55078125 -14.2998046875 c 2
 222.850585938 -14.2998046875 l 2
 203.374023438 -14.2998046875 180.600585938 -10.7001953125 180.600585938 -10.7001953125 c 1
 180.600585938 -98.9501953125 l 2
178.549804688 344.000976562 m 0xf6
 178.549804688 295.000976562 193.549804688 261.500976562 243.049804688 261.500976562 c 2
 299.25 261.500976562 l 2
 352.299804688 261.500976562 367.450195312 295.901367188 366.549804688 344.000976562 c 0
 365.200195312 399.176757812 347.549804688 420.500976562 298.25 420.500976562 c 2
 244.549804688 420.500976562 l 2
 187.849609375 420.500976562 178.549804688 383.600585938 178.549804688 344.000976562 c 0xf6
EndSplineSet
Validated: 33
EndChar

StartChar: h
Encoding: 336 104 80
Width: 550
Flags: W
HStem: 0 21G<45.7002 45.7002 45.7002 185.7 372.7 372.7 372.7 512.7> 0 21G<45.7002 45.7002 45.7002 185.7 372.7 372.7 372.7 512.7> 427.5 112.5<313.7 331.8> 762.9 20G
VStem: 45.7 140 372.7 140
LayerCount: 2
Fore
SplineSet
45.7001953125 0 m 1xbc
 45.7001953125 782.900390625 l 1
 185.150390625 782.900390625 l 1
 185.150390625 474.5 l 1
 229.100585938 506.200195312 273.200195312 540 354.200195312 540 c 0
 477.799804688 540 512.700195312 454.700195312 512.700195312 353.5 c 2
 512.700195312 0 l 1
 372.700195312 0 l 1
 372.700195312 355.700195312 l 2
 372.700195312 408.5 349.549804688 427.5 314.049804688 427.5 c 0
 257.700195312 427.5 226.950195312 413 185.700195312 381.5 c 1
 185.700195312 0 l 1
 45.7001953125 0 l 1xbc
EndSplineSet
Validated: 1
EndChar

StartChar: i
Encoding: 337 105 81
Width: 227
Flags: W
HStem: 0 21G<42.9502 42.9502 42.9502 182.95> 0 21G<42.9502 42.9502 42.9502 182.95> 511 20G<42.9502 182.95 182.95 182.95> 586.85 136.65
VStem: 42.95 140
LayerCount: 2
Fore
SplineSet
37.900390625 609.849609375 m 2x38
 37.900390625 698.5 l 2
 37.900390625 713.5 45.900390625 723.5 61.900390625 723.5 c 2
 166.900390625 723.5 l 2
 181.900390625 723.5 189.350585938 712.5 189.350585938 698.5 c 2
 189.350585938 609.849609375 l 2
 189.350585938 594.849609375 180.900390625 586.849609375 166.900390625 586.849609375 c 2
 61.900390625 586.849609375 l 2
 47.900390625 586.849609375 37.900390625 595.849609375 37.900390625 609.849609375 c 2x38
42.9501953125 0 m 1xb8
 42.9501953125 531 l 1
 182.950195312 531 l 1
 182.950195312 0 l 1
 42.9501953125 0 l 1xb8
EndSplineSet
Validated: 1
EndChar

StartChar: j
Encoding: 338 106 82
Width: 242
Flags: W
HStem: 511 20G<51.75 191.75 191.75 191.75> 586.85 136.65
VStem: 51.75 103<-270 531> 51.75 140<-4 531 -4 531 -4 531>
LayerCount: 2
Fore
SplineSet
45.7001953125 609.849609375 m 2xc0
 45.7001953125 698.5 l 2
 45.7001953125 713.5 53.7001953125 723.5 69.7001953125 723.5 c 2
 174.700195312 723.5 l 2
 189.700195312 723.5 197.700195312 712.5 197.700195312 698.5 c 2
 197.700195312 609.849609375 l 2
 197.700195312 594.849609375 188.700195312 586.849609375 174.700195312 586.849609375 c 2
 69.7001953125 586.849609375 l 2
 55.7001953125 586.849609375 45.7001953125 595.849609375 45.7001953125 609.849609375 c 2xc0
51.75 -270 m 1xe0
 51.75 531 l 1
 191.75 531 l 1
 191.75 -4 l 2xd0
 192.75 -90 190.75 -191.099609375 154.75 -270 c 1
 51.75 -270 l 1xe0
EndSplineSet
Validated: 33
EndChar

StartChar: k
Encoding: 339 107 83
Width: 557
Flags: W
HStem: 0 21G<45.7002 45.7002 45.7002 185.7 376.45 376.45 376.45 542.7> 0 21G<45.7002 45.7002 45.7002 185.7 376.45 376.45 376.45 542.7> 511 20G<365.45 542.7 542.7 542.7> 762 20G<45.7002 185.7 185.7 185.7>
VStem: 45.7 140
LayerCount: 2
Fore
SplineSet
45.7001953125 0 m 1xb8
 45.7001953125 782 l 1
 185.700195312 782 l 1
 185.700195312 353 l 1
 214.700195312 353 l 1
 365.450195312 531 l 1
 542.700195312 531 l 1
 343.549804688 299.5 l 1
 542.700195312 0 l 1
 376.450195312 0 l 1
 214.700195312 246 l 1
 185.700195312 246 l 1
 185.700195312 0 l 1
 45.7001953125 0 l 1xb8
EndSplineSet
Validated: 1
EndChar

StartChar: l
Encoding: 340 108 84
Width: 313
Flags: W
HStem: 0 86<295.2 298.7 295.2 298.7> 763 20G<45.7002 185.7 185.7 185.7>
VStem: 45.7 140
LayerCount: 2
Fore
SplineSet
45.7001953125 189 m 2
 45.7001953125 783 l 1
 185.700195312 783 l 1
 185.700195312 211 l 2
 185.700195312 133.900390625 204.299804688 117.200195312 231.700195312 107 c 2
 231.700195312 107 291.700195312 86 298.700195312 86 c 1
 298.700195312 0 l 1
 183.200195312 0 l 2
 96.2998046875 0 45.7001953125 48 45.7001953125 189 c 2
EndSplineSet
Validated: 1
EndChar

StartChar: m
Encoding: 341 109 85
Width: 875
Flags: W
HStem: 0 21G<45.7002 45.7002 45.7002 185.7> 0 21G<45.7002 45.7002 45.7002 185.7> 426.15 112.5 511 20G
VStem: 45.7 140 370 140<-0.000976562 352.599 -0.000976562 353.899 -0.000976562 378.725> 698.1 140
LayerCount: 2
Fore
SplineSet
45.7001953125 0 m 1xae
 45.701171875 530.999023438 l 1
 158.201171875 530.999023438 l 1x9e
 185.701171875 473.598632812 l 1
 232.951171875 507.499023438 270.951171875 538.649414062 351.05078125 538.649414062 c 0
 418.80078125 538.649414062 466.80078125 512.94921875 488.701171875 469.999023438 c 1
 536.30078125 504.749023438 597.201171875 538.649414062 679.6015625 538.649414062 c 0
 796.901367188 538.649414062 838.1015625 459.19921875 838.1015625 351.69921875 c 2
 838.1015625 -0.0009765625 l 1
 698.1015625 -0.0009765625 l 1
 698.1015625 353.899414062 l 2
 698.1015625 403.549804688 674.951171875 426.149414062 639.451171875 426.149414062 c 0
 585.750976562 426.149414062 546.850585938 415.899414062 509.450195312 384.44921875 c 0
 509.450195312 380.048828125 510 357.548828125 510 352.598632812 c 2
 510 -0.0009765625 l 1
 370 -0.0009765625 l 1
 370 353.899414062 l 2
 370 403.549804688 346.400390625 426.149414062 310.900390625 426.149414062 c 0
 255.900390625 426.149414062 226.950195312 412.099609375 185.700195312 380.599609375 c 1
 185.700195312 0 l 1
 45.7001953125 0 l 1xae
EndSplineSet
Validated: 1
EndChar

StartChar: n
Encoding: 342 110 86
Width: 550
Flags: W
HStem: 0 21G<45.7002 45.7002 45.7002 185.7 372.699 372.699 372.699 512.699> 0 21G<45.7002 45.7002 45.7002 185.7 372.699 372.699 372.699 512.699> 427.5 112.5<313.699 331.575> 511 20G<45.6992 158.199 158.199 158.199>
VStem: 45.7 140 372.7 140
LayerCount: 2
Fore
SplineSet
45.7001953125 0 m 1xac
 45.69921875 531 l 1
 158.19921875 531 l 1x9c
 185.69921875 474.5 l 1
 231.298828125 507.299804688 273.19921875 540 354.19921875 540 c 0
 477.798828125 540 512.69921875 454.700195312 512.69921875 353.5 c 2
 512.69921875 0 l 1
 372.69921875 0 l 1
 372.69921875 355.700195312 l 2
 372.69921875 408.5 349.099609375 427.5 314.049804688 427.5 c 0
 257.700195312 427.5 226.950195312 413 185.700195312 381.5 c 1
 185.700195312 0 l 1
 45.7001953125 0 l 1xac
EndSplineSet
Validated: 1
EndChar

StartChar: o
Encoding: 343 111 87
Width: 560
Flags: W
HStem: -5 112.5<242.95 319.575 242.95 372.95> 423.5 112.5<238.726 321.875>
VStem: 37.9 140 382.4 140
LayerCount: 2
Fore
SplineSet
37.900390625 258 m 0
 37.900390625 475 100.650390625 536 280.150390625 536 c 0
 463 536 522.400390625 469 522.400390625 258 c 0
 522.400390625 61 465.75 -5 280.150390625 -5 c 0
 96.75 -5 37.900390625 68 37.900390625 258 c 0
177.900390625 258 m 0
 177.900390625 120.599609375 205.75 107.5 280.150390625 107.5 c 0
 359 107.5 382.400390625 118.200195312 382.400390625 258 c 0
 382.400390625 406.75 363.600585938 423.5 280.150390625 423.5 c 0
 197.30078125 423.5 177.900390625 406.650390625 177.900390625 258 c 0
EndSplineSet
Validated: 1
EndChar

StartChar: p
Encoding: 344 112 88
Width: 556
Flags: W
HStem: -8 109.75 417.35 119.65
VStem: 45.7 139.1 379.4 140
LayerCount: 2
Fore
SplineSet
45.7001953125 -270 m 1
 45.69921875 531 l 1
 160.849609375 531 l 1
 185.349609375 477.5 l 1
 218.5 504.200195312 283 537 346.049804688 537 c 0
 476.75 537 519.400390625 427.400390625 519.400390625 268 c 0
 519.400390625 114.400390625 493.200195312 -8 346.049804688 -8 c 0
 301.049804688 -8 233.399414062 4.349609375 184.799804688 26.5 c 1
 184.799804688 -270 l 1
 45.7001953125 -270 l 1
185.349609375 121.700195312 m 1
 221.899414062 107.549804688 261.348632812 101.749023438 309.749023438 101.749023438 c 0
 353.94921875 101.749023438 379.399414062 126.999023438 379.399414062 262.499023438 c 0
 379.399414062 380.94921875 354.94921875 417.349609375 309.749023438 417.349609375 c 0
 257.149414062 417.349609375 215.149414062 403.799804688 185.349609375 384.549804688 c 1
 185.349609375 121.700195312 l 1
EndSplineSet
Validated: 1
EndChar

StartChar: q
Encoding: 345 113 89
Width: 555
Flags: W
HStem: -10 110.3 430 107
VStem: 37.9 140 369.85 140
LayerCount: 2
Fore
SplineSet
37.900390625 268 m 0
 37.900390625 453.599609375 107.350585938 537 232.350585938 537 c 0
 338.350585938 537 459.000976562 520.75 509.850585938 506.849609375 c 1
 509.850585938 -270 l 1
 369.850585938 -270 l 1
 369.850585938 29 l 1
 328.950195312 1.349609375 277.350585938 -10 232.350585938 -10 c 0
 79.3505859375 -10 37.900390625 91.2998046875 37.900390625 268 c 0
177.900390625 271.849609375 m 0
 177.900390625 171.099609375 178.850585938 100.298828125 258.750976562 100.298828125 c 0
 303.05078125 100.298828125 325.900390625 104.298828125 369.850585938 121.999023438 c 1
 369.850585938 429.999023438 l 1
 259.850585938 429.999023438 l 2
 179.80078125 429.999023438 177.900390625 333.19921875 177.900390625 271.849609375 c 0
EndSplineSet
Validated: 1
EndChar

StartChar: r
Encoding: 346 114 90
Width: 417
Flags: W
HStem: 0 21G<45.7002 45.7002 45.7002 185.7> 0 21G<45.7002 45.7002 45.7002 185.7> 397.65 138.8
VStem: 45.7 140
LayerCount: 2
Fore
SplineSet
45.7001953125 0 m 1xb0
 45.7001953125 531.001953125 l 1
 163.700195312 531.001953125 l 1
 185.700195312 464.001953125 l 1
 222.5 499.551757812 272 536.452148438 338.049804688 536.452148438 c 0
 361 536.452148438 383 535.551757812 397.200195312 530.1015625 c 1
 397.200195312 394.951171875 l 1
 383 396.30078125 350.549804688 397.650390625 320.450195312 397.650390625 c 0
 262.450195312 397.650390625 220.350585938 388.200195312 185.700195312 338.549804688 c 1
 185.700195312 0 l 1
 45.7001953125 0 l 1xb0
EndSplineSet
Validated: 1
EndChar

StartChar: s
Encoding: 347 115 91
Width: 508
Flags: W
HStem: -5 116.35 204.45 121.3 420.65 115.35
VStem: 30.1 140 338.1 140
LayerCount: 2
Fore
SplineSet
30.099609375 347 m 2
 30.1015625 393.000976562 l 2
 30.1015625 475.000976562 65.1015625 536.000976562 168.1015625 536.000976562 c 0
 270.151367188 536.000976562 410.651367188 532.701171875 451.651367188 509.000976562 c 1
 451.651367188 420.651367188 l 1
 211.000976562 420.651367188 l 2
 175.05078125 420.651367188 170.100585938 409.401367188 170.100585938 384.201171875 c 2
 170.100585938 360.201171875 l 2
 170.100585938 326.651367188 187.750976562 325.750976562 211.000976562 325.750976562 c 2
 337.100585938 325.750976562 l 2
 438.400390625 325.750976562 478.100585938 265.701171875 478.100585938 188.500976562 c 2
 478.100585938 134.000976562 l 2
 478.100585938 25.0009765625 412.100585938 -4.9990234375 348.100585938 -4.9990234375 c 0
 247.400390625 -4.9990234375 89 -0.44921875 52.099609375 23.900390625 c 1
 52.099609375 111.350585938 l 1
 303 111.350585938 l 2
 312.349609375 111.350585938 338.099609375 112.500976562 338.099609375 145.000976562 c 2
 338.099609375 169.80078125 l 2
 338.099609375 192.150390625 331.599609375 204.450195312 303 204.450195312 c 2
 179.099609375 204.450195312 l 2
 85.099609375 204.450195312 30.099609375 244 30.099609375 347 c 2
EndSplineSet
Validated: 1
EndChar

StartChar: t
Encoding: 348 116 92
Width: 381
Flags: W
HStem: -0.100006 86 425 107
VStem: 100.85 140
LayerCount: 2
Fore
SplineSet
15.0498046875 425 m 1
 15.0498046875 503.000976562 l 1
 100.849609375 532.000976562 l 1
 124.349609375 680.000976562 l 1
 240.849609375 680.000976562 l 1
 240.849609375 532.000976562 l 1
 359.549804688 532.000976562 l 1
 359.549804688 425.000976562 l 1
 240.849609375 425.000976562 l 1
 240.849609375 212.000976562 l 2
 240.849609375 133.80078125 258.899414062 117.100585938 286.299804688 106.900390625 c 2
 286.299804688 106.900390625 346.299804688 85.900390625 353.299804688 85.900390625 c 1
 353.299804688 -0.099609375 l 1
 231.200195312 -0.099609375 l 2
 152.549804688 -0.099609375 100.849609375 49 100.849609375 190 c 2
 100.849609375 425 l 1
 15.0498046875 425 l 1
EndSplineSet
Validated: 1
EndChar

StartChar: u
Encoding: 349 117 93
Width: 550
Flags: W
HStem: -9 112.5<219.026 236.9> 0 21G<392.4 504.9 392.4 392.4> 0 21G<392.4 504.9 392.4 392.4> 511 20G<37.9014 177.901 177.901 177.901 364.9 504.9 504.9 504.9>
VStem: 37.9 140 364.9 140
LayerCount: 2
Fore
SplineSet
37.900390625 177.5 m 2x9c
 37.9013671875 531 l 1
 177.901367188 531 l 1
 177.901367188 175.299804688 l 2
 177.901367188 122.5 201.500976562 103.5 236.55078125 103.5 c 0x9c
 292.900390625 103.5 323.650390625 118 364.900390625 149.5 c 1
 364.900390625 531 l 1
 504.900390625 531 l 1
 504.900390625 0 l 1
 392.400390625 0 l 1x5c
 364.900390625 56.5 l 1
 312.150390625 24.7998046875 277.400390625 -9 196.400390625 -9 c 0
 72.80078125 -9 37.900390625 76.2998046875 37.900390625 177.5 c 2x9c
EndSplineSet
Validated: 1
EndChar

StartChar: v
Encoding: 350 118 94
Width: 564
Flags: W
HStem: 0 21G<200.399 356.899 200.399 200.399> 0 21G<200.399 356.899 200.399 200.399> 511 20G<15.0498 164.8 164.8 164.8 400.35 549.55 549.55 549.55>
LayerCount: 2
Fore
SplineSet
15.0498046875 531 m 1xa0
 164.799804688 531 l 1
 280.75 164 l 1
 400.349609375 531 l 1
 549.549804688 531 l 1
 356.899414062 0 l 1
 200.399414062 0 l 1
 15.0498046875 531 l 1xa0
EndSplineSet
Validated: 1
EndChar

StartChar: w
Encoding: 351 119 95
Width: 826
Flags: W
HStem: 0 21G<184.899 344.1 184.899 184.899 483.649 640.149 483.649 483.649> 0 21G<184.899 344.1 184.899 184.899 483.649 640.149 483.649 483.649> 511 20G<15.0498 164.8 164.8 164.8 366.3 505.7 505.7 505.7 661.5 811.8 811.8 811.8>
LayerCount: 2
Fore
SplineSet
15.0498046875 531 m 1xa0
 164.799804688 531 l 1
 271.200195312 164 l 1
 366.299804688 531 l 1
 505.700195312 531 l 1
 468.75 387.950195312 l 1
 556.700195312 164 l 1
 661.5 531 l 1
 811.799804688 531 l 1
 640.149414062 0 l 1
 483.649414062 -0 l 1
 404.149414062 192.349609375 l 1
 344.099609375 0 l 1
 184.899414062 0 l 1
 15.0498046875 531 l 1xa0
EndSplineSet
Validated: 1
EndChar

StartChar: x
Encoding: 352 120 96
Width: 572
Flags: W
HStem: 0 21G<18.5 18.5 18.5 187.5 384.9 384.9 384.9 545.9> 0 21G<18.5 18.5 18.5 187.5 384.9 384.9 384.9 545.9> 511 20G<18.5 187.5 187.5 187.5 384.9 553.9 553.9 553.9>
LayerCount: 2
Fore
SplineSet
18.5 0 m 1xa0
 201.700195312 266 l 1
 18.5 531 l 1
 187.5 531 l 1
 284.75 372.099609375 l 1
 384.900390625 531 l 1
 553.900390625 531 l 1
 368.150390625 263 l 1
 545.900390625 0 l 1
 384.900390625 0 l 1
 286.200195312 157.450195312 l 1
 187.5 0 l 1
 18.5 0 l 1xa0
EndSplineSet
Validated: 1
EndChar

StartChar: y
Encoding: 353 121 97
Width: 578
Flags: W
HStem: 511 20G<16.0498 163.051 163.051 163.051 414.35 560.05 560.05 560.05>
LayerCount: 2
Fore
SplineSet
16.0498046875 531 m 1
 163.05078125 531 l 1
 254.650390625 159.450195312 l 2
 266.05078125 116.75 299.650390625 121 308 120.450195312 c 1
 414.349609375 531 l 1
 560.049804688 531 l 1
 376.099609375 -168 l 1
 303.299804688 -270 l 1
 203.399414062 -270 l 1
 278.149414062 0 l 1
 204.349609375 0 146.049804688 37.2001953125 120.200195312 135.299804688 c 2
 16.0498046875 531 l 1
EndSplineSet
Validated: 1
EndChar

StartChar: z
Encoding: 354 122 98
Width: 474
Flags: W
HStem: 1 118<224.5 451.85 224.5 451.85> 413 118<22.8496 451.85 22.8496 276.25 22.8496 451.85>
LayerCount: 2
Fore
SplineSet
22.849609375 413 m 1
 22.849609375 531 l 1
 451.849609375 531 l 1
 451.849609375 413 l 1
 224.5 119 l 1
 451.849609375 119 l 2
 452.849609375 118 451.849609375 1 451.849609375 1 c 1
 37.849609375 1 l 1
 37.849609375 117.900390625 l 1
 276.25 413 l 1
 22.849609375 413 l 1
EndSplineSet
Validated: 33
EndChar

StartChar: bnmAA
Encoding: 355 2494 99
Width: 280
VWidth: 0
Flags: W
HStem: 0 21G<77 197> 0 21G<77 197> 530 106.313<-51 68.3707 197 293>
VStem: 77 120<0 530>
AnchorPoint: "anchor0" 45 635 basechar 0
LayerCount: 2
Fore
SplineSet
-920 636.328125 m 1025,0,-1
8 636.342773438 m 17,1,-1
 80 628 l 1,2,-1
 76 702 l 1,3,-1
 163 702 l 1,4,-1
 186 636.328125 l 1,5,-1
 293 636.328125 l 1,6,-1
 293 530 l 1,7,-1
 197 530 l 25,8,-1
 197 0 l 1,9,-1
 77 0 l 1,10,-1
 77 530 l 1,11,-1
 -51 530 l 25,12,-1
 -51 636.313476562 l 25,13,-1
 8 636.342773438 l 17,1,-1
EndSplineSet
Validated: 1
EndChar

StartChar: bnmI
Encoding: 356 2495 100
Width: 275
VWidth: 0
Flags: W
HStem: 0 21G<104 224> 0 21G<104 224> 530 106.328<-13 100.634 224 291> 791 109.5<196.389 352.157>
VStem: 81 114<636.943 789.037> 104 120<0 530>
LayerCount: 2
Fore
SplineSet
216 636.328125 m 9xb8
 291 636.328125 l 1
 291 530 l 1
 224 530 l 25
 224 0 l 1
 104 0 l 1
 104 530 l 1xb4
 -13 530 l 25
 -13 636.328125 l 25
 46 636.328125 l 17
 111 628 l 1
 84 646 81 680 81 704 c 2
 81 785 l 2
 81 872.026367188 129.84375 900.5 207.3125 900.5 c 0
 270.4921875 900.5 359.560482861 880.92257486 450 860 c 0
 584 829 750 782 750 782 c 1
 726 702 l 5
 338 777 l 2
 338 777 270.708984375 791 245 791 c 0
 207.466796875 791 195 787.104492188 195 755 c 2
 195 706 l 2
 195 670 191 649.328125 216 636.328125 c 9xb8
EndSplineSet
Validated: 33
EndChar

StartChar: bnmII
Encoding: 357 2496 101
Width: 330
VWidth: 0
Flags: W
HStem: 0 21G<107 227> 0 21G<107 227> 530 106.328<-13.0195 103 228.522 342.98> 530 98<227 273.458> 680 87<-389.673 -132.716> 820 100<-272.195 48.8604>
VStem: -490 99<768.907 806.027> 103 115<636.328 756.341> 107 120<0 530>
AnchorPoint: "anchor0" -154 636.4 mark 0
LayerCount: 2
Fore
SplineSet
107 530 m 25x9e80
 -13.01953125 530 l 1
 -13.01953125 636.328125 l 1
 103 636.328125 l 17x2f
 103 703.328125 92 820 -14 820 c 0
 -106 820 -323.011346837 811.15297332 -351 809 c 0
 -390 806 -391 805 -391 783 c 0
 -391 763 -376 767 -228 767 c 0
 -68 767 -17 740 -17 635 c 9
 -124 635 l 17
 -124 680 -169 680 -288 680 c 0
 -480 680 -490 685 -490 783 c 0
 -490 882 -467 896 -377 901 c 2
 -377 901 -56.501953125 920 -5 920 c 0
 191 920 218.01953125 751 218 628 c 1x1f
 283.98046875 636.328125 l 1
 342.98046875 636.328125 l 25
 342.98046875 530 l 1x2f
 227 530 l 1
 227 0 l 1
 107 0 l 1
 107 530 l 25x9e80
EndSplineSet
Validated: 33
Substitution2: "Single Substitution lookup 17 subtable" bnmII2
Substitution2: "Single Substitution lookup 31 subtable" bnmII3
EndChar

StartChar: bnmE
Encoding: 358 2503 102
Width: 335
VWidth: 0
Flags: W
HStem: 530 106.328<-27 121 247 350>
VStem: 55.0088 122.078<163.596 384.326>
LayerCount: 2
Fore
SplineSet
247 530 m 5
 247 530 177.086914062 377 177.086914062 237.426757812 c 4
 177.086914062 194.400390625 189.516601562 160.451171875 234 130 c 6
 383 28 l 5
 341.78515625 -52.4794921875 l 5
 341.78515625 -52.4794921875 201.056640625 9.96484375 162 33 c 4
 84.185546875 78.8935546875 55.0087890625 152 55.0087890625 225.8984375 c 4
 55.0087890625 365.052734375 121 530 121 530 c 13
 -27 530 l 29
 -27 636.328125 l 5
 350 636.328125 l 5
 350 530 l 5
 247 530 l 5
EndSplineSet
Validated: 1
Substitution2: "'init' Initial Forms in Bengali lookup 0 subtable" bnmE.init
Substitution2: "'init' Initial Forms in Bengali2 lookup 11 subtable" bnmE.init
EndChar

StartChar: bnmAI
Encoding: 359 2504 103
Width: 325
VWidth: 0
Flags: W
HStem: 702.328 108<-121.804 147.473>
VStem: 68.0088 122.078<164.466 376.831> 158 119<636.328 689.038>
LayerCount: 2
Fore
SplineSet
277 636.328125 m 17xa0
 277 714.65625 251 810.328125 149 810.328125 c 0
 89.28125 810.328125 -162 796.328125 -162 796.328125 c 1
 -158 702.328125 l 17
 -158 702.328125 8.6142578125 702.328125 94 702.328125 c 0
 142 702.328125 158 679.65625 158 636.328125 c 9xa0
 -14 636.328125 l 1
 -14 530 l 25
 134 530 l 1
 134 530 68.0087890625 347.052734375 68.0087890625 225.8984375 c 0
 68.0087890625 152 97 80 175 33 c 0
 213.837588277 9.59786347417 354.78515625 -52.4794921875 354.78515625 -52.4794921875 c 1
 396 28 l 1
 247 130 l 2
 207.854797002 156.797387287 190.086914062 194.400390625 190.086914062 237.426757812 c 0xc0
 190.086914062 361 260 530 260 530 c 1
 339 530 l 1
 339 636.328125 l 1
 277 636.328125 l 17xa0
EndSplineSet
Validated: 9
Substitution2: "'init' Initial Forms in Bengali lookup 0 subtable" bnmAI.init
Substitution2: "'init' Initial Forms in Bengali2 lookup 11 subtable" bnmAI.init
EndChar

StartChar: bnAUlntmk
Encoding: 362 2519 106
Width: 320
VWidth: 0
Flags: W
HStem: 0 21G<115 235> 0 21G<115 235> 530 106.328<-13 106.518 239 331> 530 98<57.4822 115> 715 106<-169.29 100.6>
VStem: 115 120<0 530 636.328 702.017>
LayerCount: 2
Fore
SplineSet
239 636.328125 m 9x2c
 331 636.328125 l 1
 331 530 l 1x2c
 235 530 l 25
 235 0 l 1
 115 0 l 1
 115 530 l 1x9c
 -13 530 l 25
 -13 636.328125 l 25
 46 636.328125 l 17x2c
 118 628 l 1x1c
 118 677 105 715 57 715 c 0
 -11 715 -285 715 -285 715 c 9
 -292 807 l 1
 -292 807 36.9248046875 821 96 821 c 0
 195 821 239 714.328125 239 636.328125 c 9x2c
EndSplineSet
Validated: 1
EndChar

StartChar: bnNukta
Encoding: 363 2492 107
Width: 0
VWidth: 0
Flags: W
HStem: -179.752 97.9033<-204.327 -109>
VStem: -204.327 95.3271<-179.752 -81.8486>
LayerCount: 2
Fore
SplineSet
-225 -177 m 2xe0
 -225 -87 l 2
 -225 -72 -217 -62 -201 -62 c 2
 -113 -62 l 2
 -98 -62 -90 -73 -90 -87 c 2
 -90 -177 l 2
 -90 -192 -99 -200 -113 -200 c 2
 -201 -200 l 2
 -215 -200 -225 -191 -225 -177 c 2xe0
EndSplineSet
Validated: 1
EndChar

StartChar: bnmU
Encoding: 364 2497 108
Width: 0
VWidth: 2048
GlyphClass: 4
Flags: W
HStem: -320 107<-317.812 -219.812> -133.947 107.966<-358.063 -244.887>
VStem: -437 111<-240.478 -138.718>
AnchorPoint: "anchor 1" -190 0 mark 0
LayerCount: 2
Fore
SplineSet
-189.568359375 13.119140625 m 25
 -71.3994140625 13.119140625 l 5
 -71.3994140625 0 l 5
 -100 -115 l 1
 -65.8876953125 -133.701171875 59 -254 59 -254 c 1
 16 -312 l 1
 -142 -218 l 1
 -142 -218 -195.624023438 -320 -244 -320 c 0
 -290.04296875 -320 -437 -276.955078125 -437 -204 c 0
 -437 -159.65234375 -392.764648438 -25.9814453125 -323.361328125 -25.9814453125 c 0
 -273.336914062 -25.9814453125 -209 -64 -209 -64 c 1
 -189.568359375 -0.19921875 l 1
 -189.568359375 13.119140625 l 25
-231 -165 m 1
 -231 -165 -273.25 -133.947265625 -294.36328125 -133.947265625 c 0
 -309.618164062 -133.947265625 -326 -166.546875 -326 -178 c 0
 -326 -196.334960938 -278.782226562 -213 -267 -213 c 0
 -250.297851562 -213 -231 -165 -231 -165 c 1
EndSplineSet
Validated: 1
Substitution2: "Single Substitution lookup 29 subtable" bnmU5
Substitution2: "Single Substitution lookup 28 subtable" bnmU4
Substitution2: "Single Substitution lookup 26 subtable" bnmU3
Substitution2: "Single Substitution lookup 25 subtable" bnmU2
Substitution2: "Single Substitution lookup 24 subtable" bnmU1
EndChar

StartChar: bnmUU
Encoding: 365 2498 109
Width: 0
VWidth: 2048
GlyphClass: 4
Flags: W
HStem: -328 117<-301.641 -208.141>
VStem: -434.605 116.605<-240.04 -145.094>
AnchorPoint: "anchor 1" -261 0 mark 0
LayerCount: 2
Fore
SplineSet
-149.399414062 0 m 5
 -149.399414062 13.119140625 l 5
 -269.568359375 13.119140625 l 5
 -269.568359375 -0.19921875 l 5
 -290 -44 l 5
 -290 -44 -320.525390625 -37.955078125 -343.004882812 -37.955078125 c 4
 -400.254882812 -37.955078125 -434.60546875 -138.134765625 -434.60546875 -209.125 c 4
 -434.60546875 -270.955078125 -291.424804688 -328 -217 -328 c 4
 -160.895507812 -328 -104 -240 -104 -240 c 5
 50 -306 l 5
 94 -236 l 5
 94 -236 -23.8798828125 -155.640625 -88 -119 c 5
 -160.91015625 -119 l 5
 -160.91015625 -119 -205.84375 -211 -242 -211 c 4
 -260.48828125 -211 -318 -188.900390625 -318 -172 c 4
 -318 -157.161132812 -308.625 -145 -297 -145 c 4
 -279.825195312 -145 -228 -165 -228 -165 c 5
 -149.399414062 0 l 5
EndSplineSet
Validated: 9
Substitution2: "Single Substitution lookup 29 subtable" bnmUU5
Substitution2: "Single Substitution lookup 28 subtable" bnmUU4
Substitution2: "Single Substitution lookup 26 subtable" bnmUU3
Substitution2: "Single Substitution lookup 25 subtable" bnmUU2
Substitution2: "Single Substitution lookup 24 subtable" bnmUU1
EndChar

StartChar: bnmvR
Encoding: 366 2499 110
Width: 0
VWidth: 2048
GlyphClass: 4
Flags: W
AnchorPoint: "anchor 1" -178 0 mark 0
LayerCount: 2
Fore
SplineSet
14 -387 m 1
 -385 -226 l 1
 -397 -118 l 1
 -127 27 l 1
 -66 -77 l 1
 -203 -157 l 1
 -203 -157 -45 -238 60 -299 c 1
 14 -387 l 1
EndSplineSet
Validated: 1
Substitution2: "Single Substitution lookup 26 subtable" bnmvR3
Substitution2: "Single Substitution lookup 25 subtable" bnmvR2
Substitution2: "Single Substitution lookup 24 subtable" bnmvR1
EndChar

StartChar: bnOne
Encoding: 369 2535 113
Width: 615
Flags: W
HStem: -16.0645 128.321<259.197 379.832>
VStem: 428 139<166.014 286.241>
LayerCount: 2
Fore
SplineSet
322 540 m 0
 343 485 567 352 567 251 c 0
 567 152.705078125 484.35546875 -16.064453125 340.838867188 -16.064453125 c 0
 289.890625 -16.064453125 242.00004083 -5.99994094221 161 50 c 0
 105.059570312 88.6748046875 43 154 43 154 c 1
 103 236 l 1
 103 236 199 172.000976562 237 148 c 0
 265.053710938 130.28125 289.989257812 112.256835938 321.919921875 112.256835938 c 0
 392.57421875 112.256835938 428 189.094726562 428 239 c 0
 428 315 231.9392451 408.54581176 200 502 c 0
 183.183289316 551.205672862 188 684 188 684 c 1
 293 694 l 1
 293 694 309.393554688 573.016601562 322 540 c 0
EndSplineSet
Validated: 33
EndChar

StartChar: bnTwo
Encoding: 370 2536 114
Width: 596
VWidth: 0
Flags: W
VStem: 365 161.335<325.545 400.117>
LayerCount: 2
Fore
SplineSet
483 255 m 0
 411 194 323 163 323 163 c 1
 517 29 l 1
 463 -76 l 1
 463 -76 242.48046875 31.654296875 40 197 c 1
 109 307 l 1
 178 266 l 1
 178 266 365 304 365 356 c 0
 365 399 293.999985391 438.999976869 275 451 c 0
 244.819335938 470.061523438 94 567 94 567 c 1
 145 662 l 1
 145 662 345.854449291 559.193299121 429 500 c 0
 461.309570312 476.998046875 526.334960938 420.879882812 526.334960938 356.750976562 c 0
 526.334960938 329.340820312 515.350317998 282.407908304 483 255 c 0
EndSplineSet
Validated: 1
EndChar

StartChar: bnThree
Encoding: 371 2537 115
Width: 800
VWidth: 0
Flags: W
HStem: -3 127<359.913 498.311> 475 126<327.3 566.687>
VStem: 622 134<267.989 424.587>
LayerCount: 2
Fore
SplineSet
437 -3 m 0
 354 -3 287.999898894 29.9999086783 204 123 c 0
 131.932617188 202.7890625 40 375 40 375 c 1
 116 429 l 1
 263 239 l 2
 331.009592277 151.096445357 385 124 430 124 c 0
 523 124 622 248 622 360 c 0
 622 436 555 475 481 475 c 0
 417 475 256 456 256 456 c 1
 238 556 l 1
 238 556 366 601 532 601 c 0
 688 601 756 479 756 382 c 0
 756 259.822265625 664.296875 -3 437 -3 c 0
EndSplineSet
Validated: 1
EndChar

StartChar: bnFour
Encoding: 372 2538 116
Width: 650
Flags: W
HStem: -1 106<199.509 460.268> 294 115<223.016 434.622> 539 97<223.004 436.189>
VStem: 72 120<112.761 284.687> 103 115<415.324 533.26> 441 115<415.391 532.04> 468 116<115.688 285.453>
LayerCount: 2
Fore
SplineSet
435 636 m 2xe8
 497 636 556 622 556 518 c 2
 556 456 l 18xec
 556 422 553 376 517 362 c 1
 559 349 583 326 584 279 c 2
 584 124 l 2
 584 123 584 121 584 120 c 0
 584 27 552 -1 451 -1 c 2
 211 -1 l 2
 128 -1 72 21 72 122 c 2
 72 274 l 2xf2
 72 321 104 350 146 363 c 1
 106 377 103 422 103 456 c 2
 103 520 l 2
 103 618 166 636 236 636 c 2
 435 636 l 2xe8
389 409 m 2
 415 409 441 419 441 453 c 2
 441 493 l 2
 440 529 422 539 390 539 c 2
 270 539 l 2
 238 539 219 529 218 493 c 2
 218 452 l 2
 218 419 244 409 270 409 c 2
 389 409 l 2
192 152 m 2xf2
 192 109 226 105 260 105 c 2
 400 105 l 2
 455 105 468 125 468 153 c 2
 468 243 l 2
 468 276 453 294 400 294 c 2
 260 294 l 2
 218 294 192 286 192 241 c 2
 192 152 l 2xf2
EndSplineSet
Validated: 1
EndChar

StartChar: bnSix
Encoding: 373 2540 117
Width: 750
VWidth: 0
Flags: W
HStem: 0 108<338.792 472.966> 344 103<367.083 577.294>
VStem: 311 112<442 614> 583 125<243.047 368.194>
LayerCount: 2
Fore
SplineSet
311 614 m 5
 423 614 l 1
 423 442 l 1
 423 442 497.735351562 447 557 447 c 0
 660 447 708 399 708 335 c 0
 708 232.13671875 585.81640625 0 395 0 c 0
 340 0 268 29 210 97 c 0
 111.871771482 212.046888607 51 401 51 401 c 1
 131 438 l 1
 131 438 233.989257812 243.911132812 296 168 c 0
 333.61941001 121.947785031 377 108 413 108 c 0
 505.231445312 108 583 254 583 303 c 0
 583 335.6953125 558 344 511 344 c 0
 464.732421875 344 311 338 311 338 c 5
 311 614 l 5
EndSplineSet
Validated: 1
EndChar

StartChar: bnNine
Encoding: 374 2543 118
Width: 700
Flags: W
HStem: 235 122<213.463 304.155>
VStem: 532 140<206.166 293.048>
LayerCount: 2
Fore
SplineSet
348.135742188 -9.8291015625 m 1
 348.135742188 -9.8291015625 343.878416008 68.2579153268 326.135742188 152.170898438 c 0
 316.52734375 197.61328125 303 235 273 235 c 0
 252.8984375 235 235.44921875 228.307617188 218 217 c 0
 182.995117188 194.314453125 189.146633007 172.36293637 209.995117188 122.314453125 c 0
 218.393554688 102.153320312 236 63 236 63 c 1
 157 16 l 1
 157 16 94.4950719963 104.200176284 87 122 c 0
 49.359375 211.391601562 71.1514406624 284.313312912 164 326 c 0
 203.541015625 343.752929688 241 357 285 357 c 0
 363.556640625 357 402.177734375 296.5625 417 264 c 0
 437.333984375 219.331054688 450 157 450 157 c 1
 451 157 532 204 532 247 c 0
 532 314 231 601 231 601 c 1
 306 691 l 1
 503 523 672 376 672 252 c 0
 672 135 462 -10 348.135742188 -9.8291015625 c 1
EndSplineSet
Validated: 33
EndChar

StartChar: bnEight
Encoding: 375 2542 119
Width: 715
VWidth: 0
Flags: W
HStem: 0 125<179.619 302.667> 331 121<218.737 429.961>
VStem: 43 120<139.788 313.896 420 636> 433 131.451<244.733 326.403>
LayerCount: 2
Fore
SplineSet
164 312 m 1
 163 218 l 1
 163 158 179 125 228 125 c 0
 281 125 346 165 399 229 c 0
 425.025390625 260.426757812 433 274 433 293 c 0
 433 329 402 331 375 331 c 0
 335.169921875 331 178.2890625 313.145507812 164 312 c 1
43 636 m 1
 163 636 l 1
 163 420 l 17
 163 420 196.8984375 426.979492188 234 433 c 0
 365.119140625 454.276367188 421.01171875 449.727539062 471 452 c 0
 493 453 668 495 668 495 c 1
 688 419 l 1
 688 419 643 386 557 358 c 1
 557 358 564.451171875 348.219726562 564.451171875 315.05078125 c 0
 564.451171875 285.383789062 553.263671875 254.807617188 539 230 c 0
 468 106 323 0 219 0 c 0
 110 0 43 63 43 217 c 2
 43 636 l 1
EndSplineSet
Validated: 1
EndChar

StartChar: bnSeven
Encoding: 376 2541 120
Width: 635
VWidth: 0
Flags: W
HStem: 226 112<191.578 419.908> 527 130<300.379 409.293>
VStem: 50 135<347.611 429.622> 420 115<36.0759 237 338 516.862>
LayerCount: 2
Fore
SplineSet
420 101 m 0
 420 152.002929688 420 237 420 237 c 1
 420 237 294 226 191 226 c 0
 96 226 50 288 50 355 c 0
 50 397 70.595703125 436.255859375 84 457 c 0
 168 587 309 657 380 657 c 0
 445 657 535 618 535 473 c 1
 535 473 535 137 535 117 c 0
 535 71.7294921875 574 -2 574 -2 c 1
 507 -48 l 1
 507 -48 420 23 420 101 c 0
420 338 m 1
 420 439 l 1
 420 499 413 527 361 527 c 0
 332 527 289 503 245 467 c 0
 213.657226562 441.35546875 185 410 185 383 c 0
 185 349 216 338 243 338 c 0
 316.821289062 338 420 338 420 338 c 1
EndSplineSet
Validated: 1
EndChar

StartChar: bnZero
Encoding: 377 2534 121
Width: 600
Flags: W
HStem: 31 112<196.98 407.988> 458 115<199.964 409.478>
VStem: 36 139<163.698 433.097> 430 131<163.306 437.597>
LayerCount: 2
Fore
SplineSet
36 295 m 0
 36 512 120 573 302 573 c 0
 489 573 561 512 561 295 c 0
 561 98 481 31 302 31 c 0
 123 31 36 96 36 295 c 0
175 295 m 0
 175 153 185 143 302 143 c 0
 425 143 430 153 430 296 c 0
 430 450 423 458 306 458 c 0
 185 458 175 449 175 295 c 0
EndSplineSet
Validated: 1
EndChar

StartChar: bnFive
Encoding: 378 2539 122
Width: 635
VWidth: 0
Flags: W
VStem: 82.1836 126.816<132.986 464.184> 393 128<273.763 403.911> 440.517 170.483<136.397 216.046>
LayerCount: 2
Fore
SplineSet
222 660 m 1xa0
 217 582 l 1
 452 514 l 1
 494 596 l 1
 596 561 l 1
 596 561 521 376 521 310 c 0xc0
 521 283.59375 611 210.053710938 611 173 c 0
 611 99.7939453125 212.553781119 -78.8457987693 126 24 c 0
 97.8232421875 57.48046875 82.18359375 127 82.18359375 233.508789062 c 0
 82.18359375 425.5703125 128 667 128 667 c 1
 222 660 l 1xa0
417 413 m 1
 223.140625 464.596679688 l 1
 223.140625 464.596679688 209 360.762695312 209 250 c 0
 209 180.0703125 215.317382812 148.462890625 226 136 c 0
 256 101 440.516601562 165.459960938 440.516601562 195.658203125 c 0xa0
 440.516601562 210.327148438 393 239.73046875 393 289 c 0
 393 331 417 413 417 413 c 1
EndSplineSet
Validated: 33
EndChar

StartChar: bnCandrabindu
Encoding: 379 2433 123
Width: 0
VWidth: 0
GlyphClass: 4
Flags: W
HStem: 680.862 121.054<-164.216 -80.3755>
AnchorPoint: "anchor0" -218 635 mark 0
LayerCount: 2
Fore
SplineSet
-132.14453125 867.135742188 m 6
 -193.525390625 914.659179688 l 6
 -209.3671875 926.5390625 -213.327148438 942.377929688 -201.4453125 958.220703125 c 6
 -153.923828125 1021.58300781 l 6
 -142.043945312 1037.42285156 -124.223632812 1037.42285156 -108.381835938 1025.54296875 c 6
 -47 980 l 6
 -29.1796875 966.139648438 -31.1591796875 950.30078125 -41.0595703125 936.439453125 c 6
 -88.58203125 873.077148438 l 6
 -100.462890625 859.216796875 -116.301757812 857.235351562 -132.14453125 867.135742188 c 6
-325 827 m 5
 -263 900 l 5
 -263 900 -150.46484375 801.916015625 -120.416015625 801.916015625 c 4
 -114.919921875 801.916015625 -109.787109375 803.208007812 -105 806 c 4
 -64.28515625 829.744140625 61 950 61 950 c 5
 121 888 l 5
 121 888 25 752 -50 702 c 4
 -75.19140625 685.206054688 -100.008789062 680.862304688 -120.16796875 680.862304688 c 4
 -200.213867188 680.862304688 -325 827 -325 827 c 5
EndSplineSet
Validated: 33
Substitution2: "Single Substitution lookup 17 subtable" bnCandrabindu2
EndChar

StartChar: bnAnusvara
Encoding: 380 2434 124
Width: 445
Flags: W
HStem: 168 120.306<80.0022 201.651> 336.235 97.4629<171.512 276.042> 538.698 97.6299<172.145 275.968>
VStem: 73.6943 95.5469<436.701 534.157> 279.529 93.8516<438.001 534.503>
LayerCount: 2
Fore
SplineSet
73.6943359375 484.6875 m 0
 73.6943359375 613.5546875 124.974609375 636.328125 223 636.328125 c 0
 323.844726562 636.328125 373.380859375 613.400390625 373.380859375 484.6875 c 0
 373.380859375 366.73828125 323.844726562 336.235351562 223 336.235351562 c 0
 122.157226562 336.235351562 73.6943359375 370.559570312 73.6943359375 484.6875 c 0
169.241210938 487.698242188 m 0
 169.241210938 443.3203125 170.61328125 433.698242188 226 433.698242188 c 0
 278.844726562 433.698242188 279.529296875 442.401367188 279.529296875 486.6875 c 0
 279.529296875 528.015625 278.111328125 538.698242188 226 538.698242188 c 0
 171.706054688 538.698242188 169.241210938 527.720703125 169.241210938 487.698242188 c 0
72 276 m 1
 75.6103515625 276.369140625 158.896484375 288.305664062 177.775390625 288.305664062 c 0
 241 288.305664062 292.87890625 259.134765625 344 177 c 4
 367.872375722 138.644952387 421 54 449 -21 c 1
 365 -55 l 1
 251 96 l 6
 199.658203125 161.700195312 167 168 141 168 c 4
 116.861328125 168 81 165 81 165 c 1
 72 276 l 1
EndSplineSet
Validated: 1
EndChar

StartChar: bnVisarga
Encoding: 381 2435 125
Width: 445
Flags: W
HStem: 0 97.4629<171.512 276.042> 202.463 97.6299<172.145 275.968> 336.235 97.4629<171.512 276.042> 538.698 97.6299<172.145 275.968>
VStem: 73.6943 95.5469<100.466 197.922 436.701 534.157> 279.529 93.8516<101.765 198.268 438.001 534.503>
LayerCount: 2
Fore
SplineSet
73.6943359375 148.452148438 m 0
 73.6943359375 277.319335938 124.974609375 300.092773438 223 300.092773438 c 0
 323.844726562 300.092773438 373.380859375 277.165039062 373.380859375 148.452148438 c 0
 373.380859375 30.5029296875 323.844726562 0 223 0 c 0
 122.157226562 0 73.6943359375 34.32421875 73.6943359375 148.452148438 c 0
169.241210938 151.462890625 m 0
 169.241210938 107.084960938 170.61328125 97.462890625 226 97.462890625 c 0
 278.844726562 97.462890625 279.529296875 106.166015625 279.529296875 150.452148438 c 0
 279.529296875 191.780273438 278.111328125 202.462890625 226 202.462890625 c 0
 171.706054688 202.462890625 169.241210938 191.485351562 169.241210938 151.462890625 c 0
73.6943359375 484.6875 m 0
 73.6943359375 613.5546875 124.974609375 636.328125 223 636.328125 c 0
 323.844726562 636.328125 373.380859375 613.400390625 373.380859375 484.6875 c 0
 373.380859375 366.73828125 323.844726562 336.235351562 223 336.235351562 c 0
 122.157226562 336.235351562 73.6943359375 370.559570312 73.6943359375 484.6875 c 0
169.241210938 487.698242188 m 0
 169.241210938 443.3203125 170.61328125 433.698242188 226 433.698242188 c 0
 278.844726562 433.698242188 279.529296875 442.401367188 279.529296875 486.6875 c 0
 279.529296875 528.015625 278.111328125 538.698242188 226 538.698242188 c 0
 171.706054688 538.698242188 169.241210938 527.720703125 169.241210938 487.698242188 c 0
EndSplineSet
Validated: 1
EndChar

StartChar: bnVirama
Encoding: 382 2509 126
Width: 0
VWidth: 2048
Flags: W
HStem: -285 272.148
VStem: -222 330
AnchorPoint: "anchor 1" -207 0 mark 0
LayerCount: 2
Fore
SplineSet
-162.615234375 -12.8515625 m 1
 -162.615234375 -12.8515625 -153.416816453 -18.3920700749 -117 -44 c 0
 -43.0169524943 -96.0241163478 50 -167 108 -218 c 1
 60 -285 l 1
 -222 -110 l 1
 -162.615234375 -12.8515625 l 1
EndSplineSet
Validated: 1
Substitution2: "Single Substitution lookup 26 subtable" bnVirama3
Substitution2: "Single Substitution lookup 25 subtable" bnVirama2
Substitution2: "Single Substitution lookup 24 subtable" bnVirama1
EndChar

StartChar: bnTAkhanda
Encoding: 383 2510 127
Width: 475
VWidth: 0
Flags: W
HStem: 518 119<124.847 325.051>
VStem: 55 122<314.854 502.65> 284.045 128.955<83.849 194.446>
AnchorPoint: "anchor0" 162 637.328 basechar 0
LayerCount: 2
Fore
SplineSet
399 503 m 1
 399 503 261 518 228 518 c 0
 186.305664062 518 177 458.548828125 177 399 c 0
 177 337 413 287 413 183 c 1
 413 113 345 -33 345 -33 c 1
 252 -10 l 1
 252 -10 284.044921875 113 284.044921875 168 c 0
 284.044921875 216.666992188 55 272.805664062 55 356.90234375 c 0
 55 510.072265625 66.6943359375 637 183 637 c 0
 284 637 416 587 416 587 c 1
 399 503 l 1
EndSplineSet
Validated: 1
LCarets2: 2 0 0
Ligature2: "'half' Half Forms in Bengali2 lookup 7 subtable" bnTA bnVirama uni200D
Ligature2: "'half' Half Forms in Bengali lookup 6 subtable" bnTA.half bnVirama uni200D
EndChar

StartChar: NameMe.65536
Encoding: 384 -1 128
Width: 633
VWidth: 2048
Flags: W
HStem: 0 48<132 495> 648 48<132 495>
VStem: 84 48<48 648> 495 48<48 648>
LayerCount: 2
Fore
SplineSet
84 696 m 1
 543 696 l 1
 543 0 l 1
 84 0 l 1
 84 696 l 1
132 48 m 1
 495 48 l 1
 495 648 l 1
 132 648 l 1
 132 48 l 1
EndSplineSet
Validated: 1
EndChar

StartChar: bnGA.nukt
Encoding: 387 -1 131
Width: 600
VWidth: 0
GlyphClass: 3
Flags: W
HStem: -50.752 97.9033<199.673 295> 513 111.778<154.062 304.412>
VStem: 31 131<407.758 509.343> 199.673 95.3271<-50.752 47.1514> 231.035 105.965<225.287 326.831>
AnchorPoint: "anchor0" 409.1 636.2 basechar 0
AnchorPoint: "anchor 1" 408 9.9 basechar 0
LayerCount: 2
Fore
SplineSet
408 0 m 1045,64,-1
EndSplineSet
Refer: 107 2492 N 1 0 0 1 404 129 2
Refer: 35 2455 N 1 0 0 1 0 0 2
Validated: 9
LCarets2: 1 0
Ligature2: "'nukt' Nukta Forms lookup 1 subtable" bnGA bnNukta
EndChar

StartChar: bnGHA.nukt
Encoding: 388 -1 132
Width: 650
VWidth: 0
GlyphClass: 3
Flags: W
HStem: -41.752 97.9033<164.673 260> 0 21G<421.182 598 421.182 598> 360.544 93.4561<187.141 282.98> 530 106.328<-10 86.9961 193 478 598 661>
VStem: 164.673 95.3271<-41.752 56.1514> 478 120<117 530>
AnchorPoint: "anchor0" 398 635.8 basechar 0
AnchorPoint: "anchor 1" 467 4.4 basechar 0
LayerCount: 2
Fore
SplineSet
463 0 m 1025,52,-1
EndSplineSet
Refer: 107 2492 N 1 0 0 1 369 138 2
Refer: 26 2456 N 1 0 0 1 0 0 2
Validated: 1
LCarets2: 1 0
Ligature2: "'nukt' Nukta Forms lookup 1 subtable" bnGHA bnNukta
EndChar

StartChar: bnDHA.nukt
Encoding: 401 -1 145
Width: 615
VWidth: 0
GlyphClass: 3
Flags: W
HStem: -24.752 97.9033<114.673 210> 0 21G<391.027 538 391.027 538> 530 106.328<538 617> 571 97.3574<125.207 259.461>
VStem: 56 111<521.943 570.104> 114.673 95.3271<-24.752 73.1514> 418 120<140 389 507 530>
AnchorPoint: "anchor0" 434 636.326 basechar 0
AnchorPoint: "anchor 1" 434 9 basechar 0
LayerCount: 2
Fore
SplineSet
434 0 m 1029,51,-1
EndSplineSet
Refer: 107 2492 N 1 0 0 1 319 155 2
Refer: 13 2471 N 1 0 0 1 0 0 2
Validated: 1
LCarets2: 1 0
Ligature2: "'nukt' Nukta Forms lookup 1 subtable" bnDHA bnNukta
EndChar

StartChar: bnSSA.nukt
Encoding: 409 -1 153
Width: 650
VWidth: 0
GlyphClass: 3
Flags: W
HStem: -38.752 97.9033<130.673 226> 0 21G<414.838 588 414.838 588> 297 104<390.393 468> 530 106.328<-10 91 183 468 588 661>
VStem: 130.673 95.3271<-38.752 59.1514> 468 120<123 297 401 530>
AnchorPoint: "anchor 1" 466 10 basechar 0
AnchorPoint: "anchor0" 403 636.4 basechar 0
LayerCount: 2
Fore
SplineSet
463 0 m 1029,51,-1
EndSplineSet
Refer: 107 2492 N 1 0 0 1 335 141 2
Refer: 24 2487 N 1 0 0 1 0 0 2
Validated: 1
LCarets2: 1 0
Ligature2: "'nukt' Nukta Forms lookup 1 subtable" bnSSA bnNukta
EndChar

StartChar: bnK_SSA
Encoding: 412 -1 156
Width: 1000
VWidth: 0
Flags: W
HStem: 0 21G<591 711> 0 21G<591 711> 204 118<289.389 344.947> 320 115<536.85 591> 328 100<712 850.272> 530 106.328<-14 226 325 432 534 591 712 1011>
VStem: 256 99<464.002 521.286> 591 120<0 111 221 320 435 530>
AnchorPoint: "anchor0" 728.2 636 basechar 0
AnchorPoint: "anchor 1" 591.2 0 basechar 0
LayerCount: 2
Fore
SplineSet
711 328 m 29xaf
 711 0 l 5
 591 0 l 13
 591 111 l 5
 591 111 342 204 318 204 c 4
 296 204 272 161 284 147 c 4
 291.836914062 137.856445312 355 79 355 79 c 5
 305 11 l 5
 305 11 241.869140625 40.103515625 195 79 c 4
 147.203125 118.666992188 158.288166244 193.736280536 194 254 c 4
 226 308 266 322 293 322 c 4
 308 322 346 314 346 314 c 5
 346 314 224.001966879 374.002957203 192 390 c 4
 176.138671875 397.928710938 168.65176205 388.2360743 164 381 c 4
 155 367 156 346 168 334 c 4
 183.5078125 318.4921875 187 315 187 315 c 5
 148 249 l 5
 148 249 96.0478515625 275.952148438 72 300 c 4
 44 328 51.0002273327 390.999870097 71 426 c 4
 98.7568359375 474.575195312 120 492 152 492 c 4
 188 492 247 463.349609375 247 463.349609375 c 5
 247 463.349609375 256 477.348632812 256 488 c 4
 256 503 226 530 226 530 c 5
 -14 530 l 5
 -14 636.328125 l 5
 1011 636.328125 l 5
 1011 530 l 29
 712 530 l 5
 712 428 l 29
 815 428 l 6
 949 428 992 317 925 207 c 4
 899.410014476 164.98659093 828 93 828 93 c 5
 758 138 l 5
 837 257 l 6
 871.14103935 308.427641552 851 328 800 328 c 6
 711 328 l 29xaf
343 415 m 5
 346.885742188 412.09375 415.372070312 375.494140625 429 347 c 4
 440 324 424 291 424 291 c 5
 591 221 l 5
 591 320 l 5x17
 532 320 461 332 438 384 c 4
 423.342773438 417.138671875 432 530 432 530 c 5
 325 530 l 21
 325 530 355 501 355 480 c 4
 355 451 343 415 343 415 c 5
591 435 m 29
 591 530 l 29
 534 530 l 21
 534 530 534 491 534 463 c 4
 534 440.977539062 549 435 562 435 c 5
 591 435 l 29
EndSplineSet
Validated: 33
LCarets2: 2 0 0
Ligature2: "'akhn' Akhand lookup 2 subtable" bnKA bnVirama bnSSA
EndChar

StartChar: bnJ_NYA
Encoding: 413 -1 157
Width: 995
VWidth: 0
Flags: W
HStem: 0 106<352.892 495.851> 61 97<675.488 828.866> 240 80<762 828.502> 403 103<747.515 858.366> 530 106.328<-15 361 459 1014>
VStem: 601.099 109.903<206.418 271.977> 832 100<158.64 236.862 322.477 402.367>
AnchorPoint: "anchor0" 729 637 basechar 0
AnchorPoint: "anchor 1" 385 8 basechar 0
LayerCount: 2
Fore
SplineSet
675 158 m 9x7e
 795 158 l 2
 824.993164062 158 832 159 832 191 c 0
 832 236.244140625 815.763671875 240 780 240 c 2
 762 240 l 17
 762 320 l 9
 799 320 l 2
 815 320 833 327 833 361 c 0
 833 397.76953125 825.543945312 403 804 403 c 0
 789 403 777.58203125 402.258789062 750 384 c 2
 677 342 l 1
 677 342 711.001953125 319 711.001953125 263.791992188 c 0
 711.001953125 209.57421875 675 158 675 158 c 9x7e
493 362 m 1
 438 407 l 1
 430 354 l 1
 430 354 472.177734375 362 493 362 c 1
399 0 m 0xbe
 345.637695312 0 278 26 214 116 c 0
 148.575195312 208.002929688 76 416 76 416 c 1
 156 446 l 1
 156 446 267.321289062 236.297851562 321 161 c 0
 355.610351562 112.450195312 391.37890625 106 423 106 c 0xbe
 449.963867188 106 486.742763896 118.824023675 509 136 c 0
 560.442382812 175.698242188 601.098632812 224.689453125 601.098632812 252.250976562 c 0
 601.098632812 270.484375 579.264648438 275 552 275 c 0
 523 275 317 259 317 259 c 1
 361 530 l 1
 -15 530 l 1
 -15 636.328125 l 1
 1014 636.328125 l 1
 1014 530 l 25
 459 530 l 25
 456 511 l 1
 597 387 l 1
 597 387 731 506 834 506 c 0
 882.732421875 506 933 480.778320312 933 394 c 0
 933 286 905 286 905 286 c 1
 905 286 932 276 932 196 c 0
 932 87 850.708007812 61 796 61 c 0x7e
 710 61 597 79 597 79 c 1
 597 79 570.994140625 55.98828125 551 43 c 0
 513.735351562 18.7919921875 466 0 399 0 c 0xbe
EndSplineSet
Validated: 1
LCarets2: 2 0 0
Ligature2: "'akhn' Akhand lookup 2 subtable" bnJA bnVirama bnNYA
EndChar

StartChar: bnReph
Encoding: 414 -1 158
Width: 0
VWidth: 2048
GlyphClass: 4
Flags: W
HStem: 652.612 289.146
AnchorPoint: "anchor0" -127 634 basechar 0
LayerCount: 2
Fore
SplineSet
-243 748 m 1
 -243 748 -235.791015625 755.887695312 -198.754882812 782.854492188 c 0
 -124.787109375 836.712890625 -13.427734375 903.716796875 53.7880859375 941.7578125 c 1
 107 860 l 1
 -163.018554688 652.612304688 l 1
 -243 748 l 1
EndSplineSet
Validated: 1
LCarets2: 1 0
Ligature2: "'rphf' Reph Form lookup 3 subtable" bnRA bnVirama
EndChar

StartChar: bnRAc2
Encoding: 415 -1 159
Width: 0
VWidth: 0
GlyphClass: 4
Flags: W
HStem: -228 110<-476.009 -298.191>
VStem: -197 120<-228 -155 -41 138>
LayerCount: 2
Fore
SplineSet
-197 -155 m 5
 -197 -155 -297.475585938 -228 -394 -228 c 4
 -437 -228 -539 -220 -600 -131 c 4
 -625.715820312 -93.48046875 -661 6 -681 73 c 5
 -610 108 l 5
 -521 -47 l 6
 -478.915474184 -120.293275298 -421 -118 -393 -118 c 4
 -302.122070312 -118 -197 -41 -197 -41 c 5
 -197 138 l 5
 -77 196 l 13
 -77 -228 l 5
 -197 -228 l 5
 -197 -155 l 5
EndSplineSet
Validated: 33
LCarets2: 1 0
Ligature2: "'blwf' Below Base Forms in Bengali2 lookup 5 subtable" bnVirama bnRA
Ligature2: "'blwf' Below Base Forms in Bengali2 lookup 5 subtable" bnVirama asRA
Ligature2: "'blwf' Below Base Forms in Bengali lookup 4 subtable" asRA bnVirama
Ligature2: "'blwf' Below Base Forms in Bengali lookup 4 subtable" bnRA bnVirama
EndChar

StartChar: bnBAc2
Encoding: 416 -1 160
Width: 0
VWidth: 0
GlyphClass: 4
Flags: W
VStem: -176.402 120.594<-187 -38>
LayerCount: 2
Fore
SplineSet
-55.80859375 -321.99609375 m 21
 -176.40234375 -322 l 5
 -429.40234375 -143 l 5
 -429.40234375 -20 l 5
 -175.40234375 87 l 29
 -55.80859375 87 l 29
 -55.80859375 -321.99609375 l 21
-176.40234375 -187 m 5
 -176.40234375 -38 l 5
 -308.40234375 -93 l 5
 -176.40234375 -187 l 5
EndSplineSet
Validated: 1
LCarets2: 1 0
Ligature2: "'blwf' Below Base Forms in Bengali2 lookup 5 subtable" bnVirama bnBA
Ligature2: "'blwf' Below Base Forms in Bengali lookup 4 subtable" bnBA bnVirama
EndChar

StartChar: bnKA.half
Encoding: 417 -1 161
Width: 685
VWidth: 0
GlyphClass: 3
Flags: W
HStem: 530 106.328<-12 306 428 697>
VStem: 307 120<247 399 511 530> 545 105.705<279.099 371.678>
LayerCount: 2
Fore
SplineSet
427 403 m 5
 427 112 l 5
 307 112 l 5
 47 317 l 5
 47 405 l 5
 306 511 l 5
 306 530 l 5
 -12 530 l 1
 -12 636.328125 l 1
 697 636.328125 l 1
 697 530 l 1
 428 530 l 29
 428 509 l 5
 549 476 l 6
 608.698242188 459.71875 650.705078125 412.88671875 650.705078125 347.375976562 c 4
 650.705078125 326.4765625 647.153320312 301.643554688 632 276 c 4
 606 232 566 186 566 186 c 5
 497 229 l 5
 523.854492188 280.197265625 l 6
 535.8046875 302.98046875 545 323.34765625 545 335 c 4
 545 368.176757812 521.669921875 375.899414062 478 389 c 6
 427 403 l 5
307 247 m 5
 307 399 l 5
 184 344 l 5
 307 247 l 5
EndSplineSet
Validated: 1
LCarets2: 1 0
Ligature2: "'half' Half Forms in Bengali2 lookup 7 subtable" bnKA bnVirama
Ligature2: "'half' Half Forms in Bengali lookup 6 subtable" bnKA bnVirama
EndChar

StartChar: bnGA.half
Encoding: 419 -1 163
Width: 400
VWidth: 0
GlyphClass: 3
Flags: W
HStem: 513 112<157.106 295.621>
VStem: 16 124<393.258 496.605> 220 110<217.158 312.74>
LayerCount: 2
Fore
SplineSet
405 469 m 21
 285 495 l 4
 262.241210938 501.090820312 206 513 186 513 c 4
 166.521484375 513 140 470 140 457 c 4
 140 441 227.380859375 417.8984375 257.959960938 404.31640625 c 4
 294.459960938 388.104492188 301 383 315 333 c 4
 318.575195312 320.231445312 330 273.665039062 330 242 c 4
 330 192.31640625 140 96 140 96 c 5
 93 170 l 5
 93 170 220 253.459960938 220 275 c 4
 220 295.006835938 214.966796875 306.745117188 192 316 c 4
 130.75 340.682617188 16 358.516601562 16 428 c 4
 16 493.19921875 73.583984375 578.384765625 92 596 c 4
 115 618 144.095703125 625 170 625 c 4
 264.471679688 625 446 555 446 555 c 5
 405 469 l 21
EndSplineSet
Validated: 1
LCarets2: 1 0
Ligature2: "'half' Half Forms in Bengali2 lookup 7 subtable" bnGA bnVirama
Ligature2: "'half' Half Forms in Bengali lookup 6 subtable" bnGA bnVirama
EndChar

StartChar: bnNGA.half
Encoding: 421 -1 165
Width: 590
GlyphClass: 3
Flags: W
HStem: 92 103<220.814 363.598> 300 91<322.064 455.581> 414 78<322 409.901> 530 106.328<-10 216 513 601> 538 98.3281<322.546 409.993>
VStem: 208 114<378 414 492 529.813> 457.161 109.839<254.619 326.861>
LayerCount: 2
Fore
SplineSet
10 437 m 1xf6
 78 464 l 1
 78 464 134.445806116 352.703359255 178 272 c 0
 212 209 243 195 280 195 c 0
 308 195 325.024995272 201.464089104 350 211 c 0
 405 232 457.161132812 260 457.161132812 284 c 0
 457.161132812 299.3046875 437.344726562 300 398 300 c 0
 369 300 208 300 208 300 c 1
 208 481 l 2
 208 518 216 530 216 530 c 1
 -10 530 l 1
 -10 636.328125 l 1
 601 636.328125 l 1
 601 530 l 1
 513 530 l 17
 513 530 513.891601562 527.564453125 514 509 c 1
 514 444 497.994140625 414 421 414 c 2
 322 414 l 1
 322 378 l 1
 322 378 409.896484375 391 452 391 c 0
 529 391 567 355 567 298 c 0
 567 216 504 160 403 118 c 0
 365.323245086 102.332438551 329 92 288 92 c 0
 244 92 167 96 109 194 c 0
 36.3255912236 316.794690691 10 437 10 437 c 1xf6
322 492 m 1
 363 492 l 2
 394.997070312 492 410 492 410 517 c 1
 410 538 401 538 350 538 c 0xee
 324.251953125 538 322 538 322 492 c 1
EndSplineSet
Validated: 1
LCarets2: 1 0
Ligature2: "'half' Half Forms in Bengali2 lookup 7 subtable" bnNGA bnVirama
Ligature2: "'half' Half Forms in Bengali lookup 6 subtable" bnNGA bnVirama
EndChar

StartChar: bnCA.half
Encoding: 422 -1 166
Width: 575
VWidth: 0
GlyphClass: 3
Flags: W
HStem: 94 120.854<190.087 303.689> 530 106.328<-10.1719 63.002 183.027 583.828>
VStem: 63.002 120.017<220.241 415.749 511.38 530> 420.713 117.287<308.025 405.883>
LayerCount: 2
Fore
SplineSet
183.018554688 415.749023438 m 5
 183.018554688 289.48828125 l 5
 183.018554688 249.930664062 184.24609375 214.854492188 228.96875 214.854492188 c 4
 268.302734375 214.854492188 337 243 390 298 c 4
 406.128989667 314.737630787 420.712890625 333.197265625 420.712890625 351 c 4
 420.712890625 369 394.72594558 375.289264748 365.83984375 380.943359375 c 4
 298.36328125 394.151367188 183.018554688 415.749023438 183.018554688 415.749023438 c 5
183.02734375 511.379882812 m 5
 183.02734375 511.379882812 313.616770875 495.153667715 406 483 c 4
 482.383789062 472.951171875 538 435.766601562 538 376 c 4
 538 332.997070312 522.795898438 286.857421875 506 262 c 4
 431 151 315 94 218 94 c 4
 145 94 63.001953125 140.383789062 63.001953125 262.379882812 c 6
 63.001953125 530 l 5
 -10.171875 530 l 5
 -10.171875 636.328125 l 5
 583.828125 636.328125 l 5
 583.828125 530 l 5
 183.02734375 530 l 5
 183.02734375 511.379882812 l 5
EndSplineSet
Validated: 1
LCarets2: 1 0
Ligature2: "'half' Half Forms in Bengali lookup 6 subtable" bnCA bnVirama
EndChar

StartChar: bnTTA.half
Encoding: 427 -1 171
Width: 595
VWidth: 0
GlyphClass: 3
Flags: W
HStem: 96 121<219.021 326.064> 390 99<278.137 447.156> 682 97<115.582 422.721>
VStem: 90 120<225.87 312> 452 113<317.79 380.318>
LayerCount: 2
Fore
SplineSet
538 636.328125 m 21
 538 714.328125 498 779 376 779 c 4
 222 779 61 765 61 765 c 5
 65 682 l 21
 65 682 276.614257812 682 362 682 c 4
 410 682 426 679.328125 426 636.328125 c 13
 -13 636.328125 l 5
 -13 530 l 5
 90 530 l 5
 90 277 l 6
 90 126.001953125 179.86328125 96 244.86328125 96 c 4
 333.86328125 96 453 161 530 267 c 4
 543.505753007 285.592335309 565 329 565 364 c 4
 565 433 520.8828125 489 408 489 c 4
 373 489 268.13671875 481 268.13671875 481 c 5
 278.13671875 390 l 5
 278.13671875 390 328.909179688 390 353 390 c 4
 394 390 452 385 452 361 c 4
 452 334 431.324415989 317.945846191 402 291 c 4
 368.14453125 259.890625 305 217 252 217 c 4
 214 217 210 252 210 312 c 5
 210 530 l 5
 612 530 l 5
 612 636.328125 l 5
 538 636.328125 l 21
EndSplineSet
Validated: 9
LCarets2: 1 0
Ligature2: "'half' Half Forms in Bengali2 lookup 7 subtable" bnTTA bnVirama
Ligature2: "'half' Half Forms in Bengali lookup 6 subtable" bnTTA bnVirama
EndChar

StartChar: bnDDHA.half
Encoding: 435 -1 179
Width: 595
VWidth: 0
GlyphClass: 3
Flags: W
HStem: 96 121<219.021 326.064> 390 99<278.137 447.156> 530 106.328<-13 90 210 612>
VStem: 90 120<225.87 530> 452 113<317.79 380.318>
LayerCount: 2
Fore
SplineSet
612 636.328125 m 21
 612 530 l 5
 210 530 l 5
 210 312 l 5
 210 252 214 217 252 217 c 4
 305 217 368.14453125 259.890625 402 291 c 4
 431.324415989 317.945846191 452 334 452 361 c 4
 452 385 394 390 353 390 c 4
 328.909179688 390 278.13671875 390 278.13671875 390 c 5
 268.13671875 481 l 5
 268.13671875 481 373 489 408 489 c 4
 520.8828125 489 565 433 565 364 c 4
 565 329 543.505753007 285.592335309 530 267 c 4
 453 161 333.86328125 96 244.86328125 96 c 4
 179.86328125 96 90 126.001953125 90 277 c 6
 90 530 l 5
 -13 530 l 5
 -13 636.328125 l 5
 612 636.328125 l 21
EndSplineSet
Validated: 1
LCarets2: 1 0
Ligature2: "'half' Half Forms in Bengali2 lookup 7 subtable" bnDDHA bnVirama
Ligature2: "'half' Half Forms in Bengali lookup 6 subtable" bnDDHA bnVirama
EndChar

StartChar: bnBA.half
Encoding: 436 -1 180
Width: 480
VWidth: 0
GlyphClass: 3
Flags: W
HStem: 530 106.328<-12 306 427 490>
VStem: 307 120<247 398 511 530>
LayerCount: 2
Fore
SplineSet
427 530 m 21
 427 100 l 5
 321 100 l 5
 44 311 l 5
 44 410 l 5
 306 511 l 5
 306 530 l 5
 -12 530 l 5
 -12 636.328125 l 5
 490 636.328125 l 5
 490 530 l 5
 427 530 l 21
307 247 m 5
 307 398 l 5
 179 345 l 5
 307 247 l 5
EndSplineSet
Validated: 1
LCarets2: 1 0
Ligature2: "'half' Half Forms in Bengali2 lookup 7 subtable" bnBA bnVirama
Ligature2: "'half' Half Forms in Bengali lookup 6 subtable" bnBA bnVirama
EndChar

StartChar: bnPA.half
Encoding: 437 -1 181
Width: 555
VWidth: 0
GlyphClass: 3
Flags: W
HStem: 500 122<281.551 389.568>
LayerCount: 2
Fore
SplineSet
446 429 m 5
 446 429 432 445 416 458 c 4
 386.661132812 481.837890625 363 500 335 500 c 4
 307 500 288.333984375 483.067382812 275 474 c 4
 250 457 227 439 227 439 c 5
 319 324 l 5
 446 429 l 5
528 344 m 5
 516 357 l 5
 337 203 l 5
 270 212 l 5
 147 375 l 5
 100 343 l 5
 37 433 l 5
 37 433 111.000976562 516.999023438 225 587 c 4
 255.547851562 605.7578125 296 622 325 622 c 4
 361 622 391.337734571 613.573991672 414 598 c 4
 486.928710937 547.881835937 605 423 605 423 c 5
 528 344 l 5
EndSplineSet
Validated: 1
LCarets2: 1 0
Ligature2: "'half' Half Forms in Bengali2 lookup 7 subtable" bnPA bnVirama
Ligature2: "'half' Half Forms in Bengali lookup 6 subtable" bnPA bnVirama
EndChar

StartChar: bnNA.half
Encoding: 438 -1 182
Width: 450
VWidth: 0
GlyphClass: 3
Flags: W
HStem: 377 113<162.425 306.998>
VStem: 41 109<272.258 365.225>
LayerCount: 2
Fore
SplineSet
443 312 m 5
 443 312 265.079101562 377 205 377 c 4
 170.736328125 377 150 347.482421875 150 317 c 4
 150 278.078125 248 188 248 188 c 5
 201 116 l 5
 201 116 130.013671875 162.986328125 94 199 c 4
 59 234 41 283.596679688 41 325 c 4
 41 364.700195312 59.212890625 419.365234375 88 445 c 4
 127.502929688 480.177734375 164.944335938 490 213 490 c 4
 299.98828125 490 477 405 477 405 c 5
 443 312 l 5
464 530 m 9
 464 636.328125 l 1
 -14 636.328125 l 1
 -14 530 l 1
 464 530 l 9
EndSplineSet
Validated: 9
LCarets2: 1 0
Ligature2: "'half' Half Forms in Bengali2 lookup 7 subtable" bnNA bnVirama
Ligature2: "'half' Half Forms in Bengali lookup 6 subtable" bnNA bnVirama
EndChar

StartChar: bnDA.half
Encoding: 439 -1 183
Width: 495
GlyphClass: 3
Flags: W
LayerCount: 2
Fore
SplineSet
65 530 m 1
 64.900390625 359 l 1
 130 269 l 1
 310 361 l 1
 263.499023438 112 l 1
 376 112 l 1
 441 469 l 1
 380 499 l 1
 185.099609375 406 l 1
 185 530 l 5
 509 530 l 1
 509 636.328125 l 1
 -11 636.328125 l 1
 -11 530 l 1
 65 530 l 1
EndSplineSet
Validated: 9
LCarets2: 1 0
Ligature2: "'half' Half Forms in Bengali2 lookup 7 subtable" bnDA bnVirama
Ligature2: "'half' Half Forms in Bengali lookup 6 subtable" bnDA bnVirama
EndChar

StartChar: bnNNA.half
Encoding: 440 -1 184
Width: 460
VWidth: 0
GlyphClass: 3
Flags: W
HStem: 491 115.844<184.534 323.488>
VStem: 39 115<354.363 457.851>
LayerCount: 2
Fore
SplineSet
450 416 m 5
 450 416 306 491 228 491 c 4
 192.68359375 491 154 442.666015625 154 404 c 4
 154 358.735351562 252 264 252 264 c 5
 196 198 l 5
 196 198 129.23046875 239.305664062 91 281 c 4
 66 308.264648438 39 353.596679688 39 404 c 4
 39 469.700195312 89.45703125 542.965820312 122 569 c 4
 162 601 188.677734375 606.84375 227.091796875 606.84375 c 4
 242.393554688 606.84375 273.364257812 604.869140625 290 601 c 4
 376 581 499 512 499 512 c 5
 450 416 l 5
EndSplineSet
Validated: 1
LCarets2: 1 0
Ligature2: "'half' Half Forms in Bengali2 lookup 7 subtable" bnNNA bnVirama
Ligature2: "'half' Half Forms in Bengali lookup 6 subtable" bnNNA bnVirama
EndChar

StartChar: bnDDA.half
Encoding: 441 -1 185
Width: 630
VWidth: 0
GlyphClass: 3
Flags: W
HStem: 117 101<268.355 382.822> 377 95<371.71 469.281> 530 106.328<-14 250 370 645>
VStem: 250 120<462 530> 471 101<303.084 373.674>
LayerCount: 2
Fore
SplineSet
330 117 m 4
 287 117 222 136 155 218 c 4
 95.8987577473 290.332863653 61 378 61 378 c 5
 123 420 l 5
 123 420 195.999948573 323.999959752 232 278 c 4
 268.865234375 230.89453125 297 218 323 218 c 4
 386.946289062 218 471 313 471 347 c 4
 471 371.416015625 450 377 427 377 c 4
 374 377 250 357 250 357 c 5
 250 530 l 5
 -14 530 l 5
 -14 636.328125 l 5
 645 636.328125 l 5
 645 530 l 5
 370 530 l 29
 370 462 l 5
 370 462 408.010638203 472 453 472 c 4
 539 472 572 428 572 364 c 4
 572 264.220703125 441.5390625 117 330 117 c 4
EndSplineSet
Validated: 1
LCarets2: 1 0
Ligature2: "'half' Half Forms in Bengali2 lookup 7 subtable" bnDDA bnVirama
Ligature2: "'half' Half Forms in Bengali lookup 6 subtable" bnDDA bnVirama
EndChar

StartChar: bnMA.half
Encoding: 442 -1 186
Width: 590
VWidth: 0
GlyphClass: 3
Flags: W
HStem: 308 98<337.385 419.027> 380 101<132.247 196.835> 530 106.328<-10 166 275 409 502 602>
VStem: 47 104<308.165 374.816> 200 101<474.279 519.457> 431 95<415.426 526.101>
LayerCount: 2
Fore
SplineSet
416 308 m 4xbc
 371.515625 308 223 380 184 380 c 4
 168.797851562 380 151 356 151 342 c 4
 151 320.447265625 200 284 200 284 c 5
 165 226 l 5
 165 226 120 242 88 265 c 4
 55.3369140625 288.4765625 47 314 47 337 c 4
 47 408.551757812 108.012695312 481 157 481 c 4x7c
 182 481 196 474 196 474 c 5
 196 474 200 481.052734375 200 489 c 4
 200 504 166 530 166 530 c 5
 -10 530 l 5
 -10 636.328125 l 5
 602 636.328125 l 5
 602 530 l 5
 502 530 l 5
 502 530 526 488.090820312 526 458 c 4
 526 414 469 308 416 308 c 4xbc
292 443 m 5
 292 443 378 406 395 406 c 4xbc
 407 406 431 438 431 460 c 4
 431 484 409 530 409 530 c 5
 275 530 l 5
 275 530 301 514 301 487 c 4
 301 467 292 443 292 443 c 5
EndSplineSet
Validated: 1
LCarets2: 1 0
Ligature2: "'half' Half Forms in Bengali2 lookup 7 subtable" bnMA bnVirama
Ligature2: "'half' Half Forms in Bengali lookup 6 subtable" bnMA bnVirama
EndChar

StartChar: bnLA.half
Encoding: 443 -1 187
Width: 585
VWidth: 0
GlyphClass: 3
Flags: W
HStem: 384 110<179.363 319.333 465.732 589.669> 530 106.328<-14 596>
VStem: 56 113<219.091 372.823> 350 85<224 274.909>
LayerCount: 2
Fore
SplineSet
592 358 m 5
 592 358 585.50390625 385 538 385 c 4
 469.796875 385 450.755922447 358.353399395 446 304 c 6
 435 224 l 5
 350 224 l 5
 346 275 l 5
 339 375 306.225585938 384 237 384 c 4
 184.37109375 384 169 363 169 317 c 4
 169 268.916015625 203 142 203 142 c 5
 127 114 l 5
 127 114 56 216.530273438 56 343 c 4
 56 477 146 494 207 494 c 4
 287.517578125 494 379.249023438 493.481445312 399 426 c 5
 427 485 472 490 540 490 c 4
 628.284179688 490 652 430 652 430 c 5
 592 358 l 5
596 636.328125 m 9
 596 530 l 17
 -14 530 l 1
 -14 636.328125 l 1
 596 636.328125 l 9
EndSplineSet
Validated: 1
LCarets2: 1 0
Ligature2: "'half' Half Forms in Bengali2 lookup 7 subtable" bnLA bnVirama
Ligature2: "'half' Half Forms in Bengali lookup 6 subtable" bnLA bnVirama
EndChar

StartChar: bnSHA.half
Encoding: 444 -1 188
Width: 475
VWidth: 0
GlyphClass: 3
Flags: W
HStem: 526 108<341.746 466.913>
VStem: 200 123<360.344 507.399>
LayerCount: 2
Fore
SplineSet
488 472 m 5
 488 506 446 526 401 526 c 4
 346.770507812 526 323 497 323 444 c 4
 323 390.71484375 324 371 359 350 c 4
 393.999870512 329.000077693 449 308 449 308 c 5
 425 226 l 5
 425 226 376 234 339 249 c 4
 298.330078125 265.487304688 274 283 274 283 c 5
 274 283 254.553710938 264.166992188 208 246 c 4
 167 230 97 226 97 226 c 5
 75 312 l 5
 75 312 108.999175958 322.00065625 151 342 c 4
 195.701171875 363.28515625 200 388.141601562 200 450 c 4
 200 500 184.918945312 513.954101562 148 518 c 4
 110.108398438 522.15234375 -10 530 -10 530 c 5
 -10 636.328125 l 5
 -10 636.328125 126 636.328125 178 636.328125 c 4
 218 636.328125 244 629 268 599 c 5
 295 630 333 634 369 634 c 4
 413 634 450 622 488 602 c 5
 488 472 l 5
EndSplineSet
Validated: 1
LCarets2: 1 0
Ligature2: "'half' Half Forms in Bengali2 lookup 7 subtable" bnSHA bnVirama
Ligature2: "'half' Half Forms in Bengali lookup 6 subtable" bnSHA bnVirama
EndChar

StartChar: bnSA.half
Encoding: 445 -1 189
Width: 710
VWidth: 0
GlyphClass: 3
Flags: W
HStem: 278 127<459.712 545.545> 280 113<104.218 192.657> 530 106.328<-10 257 373 528 641 724>
VStem: 556 111<415.152 517.079>
LayerCount: 2
Fore
SplineSet
347 472 m 5xb0
 347 472 486.126953125 405 512 405 c 4
 532 405 556 432 556 450 c 4
 556 477 528 530 528 530 c 5
 373 530 l 5
 347 472 l 5xb0
542 278 m 4
 476 278 295 376 295 376 c 5
 295 376 242 280 190 280 c 4
 123 280 23 343 23 343 c 5
 54 419 l 5
 54 419 138 393 166 393 c 4x70
 196 393 257 530 257 530 c 5
 -10 530 l 5
 -10 636.328125 l 5
 724 636.328125 l 5
 724 530 l 5
 641 530 l 5
 641 530 667 480 667 443 c 4
 667 373 593 278 542 278 c 4
EndSplineSet
Validated: 1
LCarets2: 1 0
Ligature2: "'half' Half Forms in Bengali2 lookup 7 subtable" bnSA bnVirama
Ligature2: "'half' Half Forms in Bengali lookup 6 subtable" bnSA bnVirama
EndChar

StartChar: bnSSA.half
Encoding: 447 -1 191
Width: 560
VWidth: 0
GlyphClass: 3
Flags: W
HStem: 530 106.328<-14 79 178 385 485 574>
VStem: 412 103<399.489 512.275>
LayerCount: 2
Fore
SplineSet
76 305 m 4
 25 374 79 530 79 530 c 6
 -14 530 l 5
 -14 636.328125 l 5
 574 636.328125 l 5
 574 530 l 5
 485 530 l 5
 485 530 515 468.922851562 515 439 c 4
 515 380 449.852707754 253.888024864 405 246 c 4
 360.179131752 238.117574593 129.418945312 232.7265625 76 305 c 4
155 443 m 5
 155 443 137.999955536 386.999959983 156 367 c 4
 177.841796875 342.731445312 336 337 336 337 c 5
 155 443 l 5
392 399 m 5
 392 399 412 428 412 452 c 4
 412 479.057617188 385 530 385 530 c 5
 178 530 l 5
 173 517 l 5
 392 399 l 5
EndSplineSet
Validated: 33
LCarets2: 1 0
Ligature2: "'half' Half Forms in Bengali2 lookup 7 subtable" bnSSA bnVirama
Ligature2: "'half' Half Forms in Bengali lookup 6 subtable" bnSSA bnVirama
EndChar

StartChar: bnK_RA
Encoding: 481 -1 225
Width: 900
VWidth: 0
GlyphClass: 3
Flags: W
HStem: -26 114<241.165 414.203> 382 117<383.053 509.643> 530 106.328<-14 916>
VStem: 524 120<-21 48 165 283> 749.146 107.44<181.155 256.652>
AnchorPoint: "anchor0" 650.96 637 basechar 0
AnchorPoint: "anchor 1" 523.96 -18.1 basechar 0
LayerCount: 2
Fore
SplineSet
524 165 m 1
 524 296 l 1
 524 354 508 382 466 382 c 0
 408.774414062 382 254 303 254 303 c 1
 210 362 l 1
 316 462 407 499 467 499 c 0
 604.981445312 499 636 395 636 395 c 1
 768 358 l 2
 827.674985367 341.272920768 856.5859375 306.313476562 856.5859375 247.802734375 c 0
 856.5859375 226.903320312 837.89656731 181.353459949 821.294921875 156.624023438 c 0
 798.854492188 123.197265625 768 87 768 87 c 1
 694 123 l 1
 734 188 l 2
 743.046529586 202.700610577 749.145507812 219.150390625 749.145507812 230.802734375 c 0
 749.145507812 252.979492188 729.889648438 258.014648438 688.559570312 271 c 2
 644 283 l 1
 644 -21 l 1
 524 -21 l 1
 524 48 l 17
 524 48 401.524414062 -26 317 -26 c 0
 274 -26 181.000301053 -24.9997936598 120 64 c 0
 94.2841796875 101.51953125 73 163 53 230 c 1
 119 264 l 1
 186 162 l 2
 230.911099174 93.6278788693 297 88 334 88 c 0
 412.877929688 88 524 165 524 165 c 1
916 636.328125 m 9
 916 530 l 17
 -14 530 l 1
 -14 636.328125 l 1
 916 636.328125 l 9
EndSplineSet
Validated: 1
LCarets2: 1 0
Ligature2: "'pres' Pre Base Substitutions in Bengali2 lookup 12 subtable" bnKA bnRAc2
EndChar

StartChar: bnKH_RA
Encoding: 482 -1 226
Width: 740
VWidth: 0
GlyphClass: 3
Flags: W
HStem: -216 110<270 447.809> 420 103<219.982 294> 530 106.328<669 750>
VStem: 110 104<523.709 580.768> 549 120<-216 -143 -29 0 119 530>
AnchorPoint: "anchor0" 549 636.328 basechar 0
LayerCount: 2
Fore
SplineSet
549 0 m 1
 146 227 l 1
 146 330 l 1
 369 425 l 1
 369.013671875 425 363.770267453 438.406155538 360 448 c 0
 358.1171875 452.791015625 354.703125 459 348 459 c 0
 338 459 264 420 223 420 c 0
 178.278320313 420 153.15902732 448.45463024 140 466 c 0
 125 486 110 519 110 548 c 0
 110 587 119.910634225 606.10870073 143 625 c 0
 176 652 250 654 250 654 c 1
 268 595 l 1
 268 595 257.504280534 590.956491152 229 578 c 0
 218 573 214 568 214 560 c 0
 214 552 223.336775064 536.695577894 226.352539062 531 c 0
 229 526 232 523 237 523 c 0
 268.807617188 523 364 589 403 589 c 0
 441 589 441.000178022 567.000072826 450 545 c 0
 461.534179688 516.8046875 507 369 507 369 c 1
 283 269 l 1
 549 119 l 1
 549 636.294921875 l 9
 545 702 l 1
 632 702 l 1
 655 636.328125 l 1
 750 636.328125 l 1
 750 530 l 25
 669 530 l 25
 669 -216 l 1
 549 -216 l 1
 549 -143 l 1
 549 -143 448.524414062 -216 352 -216 c 0
 309 -216 207 -208 146 -119 c 0
 120.284179688 -81.48046875 85 18 65 85 c 1
 136 120 l 1
 225 -35 l 2
 267.125381411 -108.3644283 325 -106 353 -106 c 0
 443.877929688 -106 549 -29 549 -29 c 1
 549 0 l 1
EndSplineSet
Validated: 33
LCarets2: 1 0
Ligature2: "'pres' Pre Base Substitutions in Bengali2 lookup 12 subtable" bnKHA bnRAc2
EndChar

StartChar: bnG_RA
Encoding: 483 -1 227
Width: 725
VWidth: 0
GlyphClass: 3
Flags: W
HStem: -94 110<250.958 428.809> 513 111.778<276.062 426.412> 530 106.328<650 734>
VStem: 153 131<407.758 509.343> 353.035 105.965<225.287 326.831> 530 120<-94 -21 93 465>
AnchorPoint: "anchor0" 533 636.2 basechar 0
LayerCount: 2
Fore
SplineSet
650 -94 m 5xbc
 530 -94 l 5
 530 -21 l 5
 530 -21 429.524414062 -94 333 -94 c 4
 290 -94 188 -86 127 3 c 4
 101.284179688 40.51953125 66 140 46 207 c 5
 117 242 l 5
 206 87 l 6
 247.936924811 13.9637826332 306 16 334 16 c 4
 424.877929688 16 530 94 530 93 c 5
 530 465 l 21
 407 496 l 4
 384.241210938 502.090820312 336 513 316 513 c 4
 296.521484375 513 284 480 284 467 c 4
 284 451 355.896484375 432.750976562 386.959960938 420.31640625 c 4
 427.459960938 404.104492188 431 397 445 347 c 4
 448.575195312 334.231445312 459 287.665039062 459 256 c 4
 459 197.31640625 281 121 281 121 c 5
 239 189 l 5
 239 189 353.03515625 258.698242188 353.03515625 280.23828125 c 4
 353.03515625 300.245117188 348.856445312 320.4765625 326 330 c 4
 264.75 354.682617188 153 379.516601562 153 436 c 4
 153 491.19921875 200.573242188 586.76953125 220.220703125 603 c 4
 243.220703125 622 263.110351562 624.778320312 289.014648438 624.778320312 c 4xdc
 383.486328125 624.778320312 530.837890625 571 530.837890625 571 c 5
 531 636.19921875 l 5
 527 702 l 5
 614 702 l 5
 637 636.328125 l 5
 734 636.328125 l 5
 734 530 l 5
 650 530 l 29
 650 -94 l 5xbc
EndSplineSet
Validated: 33
LCarets2: 1 0
Ligature2: "'pres' Pre Base Substitutions in Bengali2 lookup 12 subtable" bnGA bnRAc2
EndChar

StartChar: bnGH_RA
Encoding: 484 -1 228
Width: 720
VWidth: 0
GlyphClass: 3
Flags: W
HStem: -218 110<260.999 438.809> 360.544 93.4561<249.141 344.98> 530 106.328<-10 148.996 255 540 660 733>
VStem: 540 120<-218 -145 -31 -8 117 530>
AnchorPoint: "anchor0" 503.1 636.3 basechar 0
LayerCount: 2
Fore
SplineSet
255 530 m 1
 256 530 231.712890625 489.701171875 250.002929688 471.190429688 c 0
 266 455 316.599609375 454 378 454 c 0
 411.087890625 454 442.002929688 454.190429688 442.002929688 454.190429688 c 1
 474 322 l 1
 308 227 l 1
 540 117 l 1
 540 530 l 1
 255 530 l 1
540 -8 m 1
 180 165 l 1
 180 274 l 1
 345 360.428710938 l 1
 345 360.428710938 318.048828125 360.543945312 294.78125 360.543945312 c 0
 237.145507812 360.543945312 161 371 134 408 c 0
 124.495117188 421.025390625 121 436 121 451 c 0
 121 489 148.99609375 530 148.99609375 530 c 1
 -10 530 l 1
 -10 636.328125 l 1
 733 636.328125 l 1
 733 530 l 9
 660 530 l 25
 660 -218 l 1
 540 -218 l 1
 540 -145 l 1
 540 -145 439.524414062 -218 343 -218 c 0
 300 -218 198 -210 137 -121 c 0
 111.284179688 -83.48046875 76 16 56 83 c 1
 127 118 l 1
 216 -37 l 2
 258.12032032 -110.35561404 316 -108 344 -108 c 0
 434.877929688 -108 540 -31 540 -31 c 1
 540 -8 l 1
EndSplineSet
Validated: 33
LCarets2: 1 0
Ligature2: "'pres' Pre Base Substitutions in Bengali2 lookup 12 subtable" bnGHA bnRAc2
EndChar

StartChar: bnNG_RA
Encoding: 485 -1 229
Width: 750
GlyphClass: 3
Flags: W
HStem: -201 110<242.975 431.739> -0.356445 103.892<351.151 490.688> 263.208 102<441.063 586.047> 401 88<441 539.824> 547 90<442.041 538.399>
VStem: 320.998 120<360.476 401 505 544.824> 540 98<490.072 543.375> 562 120<-201 -128 -14 44> 594.637 117.363<184.97 252.931>
AnchorPoint: "anchor 1" 562.2 -196.2 basechar 0
AnchorPoint: "anchor0" 514 636.5 basechar 0
LayerCount: 2
Fore
SplineSet
562 44 m 1xfd
 562 44 474 0 401.94921875 -0.3564453125 c 0
 341.999616346 -0.653024397312 264.525390625 31.8935546875 206 108 c 0
 84.5 266 52 402 52 402 c 1
 122 428.267578125 l 1
 122 428.267578125 228.165039062 268.72265625 292 186.267578125 c 0
 327.737304688 140.106445312 364.638671875 103.53515625 404.638671875 103.53515625 c 0
 492 103.53515625 594.63671875 185.208007812 594.63671875 216.208007812 c 0xfc80
 594.63671875 244.208007812 570.72265625 263.208007812 531.998046875 263.208007812 c 0
 477.998046875 263.208007812 320.998046875 263.208007812 320.998046875 263.208007812 c 1
 320.998046875 410.208007812 l 1
 320.998046875 410.208007812 268.275390625 431.262695312 214 458 c 0
 188.70703125 470.459960938 170 482 170 482 c 9
 206 554 l 1
 322 505 l 1
 322 542 324.30078125 580.4140625 350 607 c 0
 373 631 415 637 475 637 c 0
 581 637 638 628 638 529 c 0xfe
 638 464 627 401 550 401 c 2
 441 401 l 1
 440.998046875 360.475585938 l 1
 440.998046875 360.475585938 530.998046875 365.208007812 566.998046875 365.208007812 c 0
 649.99609375 365.208007812 712 319.805664062 712 242 c 0xfc80
 712 213.144348172 682 172 682 172 c 9
 682 -201 l 1
 562 -201 l 1
 562 -128 l 1
 562 -128 421.524414062 -201 325 -201 c 0
 282 -201 180 -193 119 -104 c 0
 93.2841796875 -66.48046875 58 33 38 100 c 1
 109 135 l 1
 198 -20 l 2
 240.014648438 -93.171875 298 -91 326 -91 c 0
 416.877929688 -91 562 -14 562 -14 c 1
 562 44 l 1xfd
438 489 m 1
 493 489 l 2
 525 489 540 490 540 515 c 0xfe
 540 539 533 547 484 547 c 0
 444 547 438 538 438 489 c 1
EndSplineSet
Validated: 33
LCarets2: 1 0
Substitution2: "Single Substitution lookup 21 subtable" bnNG1_RA
Ligature2: "'pres' Pre Base Substitutions in Bengali2 lookup 12 subtable" bnNGA bnRAc2
EndChar

StartChar: bnNG1_RA
Encoding: 486 -1 230
Width: 725
GlyphClass: 3
Flags: W
HStem: -99 110<243.006 420.809> 92 102<310.626 449.202> 300 88<416.951 579.073> 411 77<415 496.915> 530 106.328<-10 306 416.3 496.998 585 741>
VStem: 298 117<378 411 488 529.72> 497 91<488.493 529.97> 522 120<-99 -26 88 142> 541.161 116.839<254.487 336>
AnchorPoint: "anchor 1" 522 -94.2 basechar 0
AnchorPoint: "anchor0" 479 636.328 basechar 0
LayerCount: 2
Fore
SplineSet
522 142 m 1xfd
 522 142 483.446289062 121.490234375 463 114 c 0
 424.685546875 99.9638671875 400 92 359 92 c 0
 315 92 242.760742188 110.854492188 199 183 c 0
 125 305 99 430 99 430 c 1
 172 464 l 1
 172 464 225 353 268 272 c 0
 296.96484375 217.4375 327 194 364 194 c 0
 392 194 415.413085938 201.50390625 440 212 c 0
 488.875976562 232.864257812 541.161132812 260 541.161132812 284 c 0xfc80
 541.161132812 299.3046875 521.344726562 300 482 300 c 0
 453 300 298 291 298 291 c 1
 298 481 l 2
 298 518 306 530 306 530 c 1
 -10 530 l 1
 -10 636.328125 l 1
 741 636.328125 l 1
 741 530 l 1
 585 530 l 17
 585 530 587.891601562 527.564453125 588 509 c 1xfe
 588 444 579.994140625 411 503 411 c 2
 415 411 l 1
 415 378 l 1
 415 378 497.896484375 388 540 388 c 0
 617 388 658 359 658 313 c 0xfc80
 658 291.642804673 642 253 642 253 c 9
 642 -99 l 1
 522 -99 l 1
 522 -26 l 1
 522 -26 421.524414062 -99 325 -99 c 0
 282 -99 180.000301053 -90.9997936598 119 -2 c 0
 93.2841796875 35.51953125 58 135 38 202 c 1
 109 237 l 1
 198 82 l 2
 240.150563591 8.59171509509 298 11 326 11 c 0
 416.877929688 11 522 88 522 88 c 1
 522 142 l 1xfd
415 488 m 1
 466 488 l 2
 483.997070312 488 497 488 497 513 c 1xfe
 497 534 494 534 453 534 c 0
 427.251953125 534 415 534 415 488 c 1
EndSplineSet
Validated: 33
EndChar

StartChar: bnC_RA
Encoding: 487 -1 231
Width: 760
VWidth: 0
GlyphClass: 3
Flags: W
HStem: -172 110<265.991 443.809> 0 116<339.371 439.952> 530 106.328<-12 211.995 332 771>
VStem: 211.995 120.005<119.874 389 490 530> 545 120<-172 -99 15 70> 587 121<249.514 341.744>
AnchorPoint: "anchor0" 525 637 basechar 0
AnchorPoint: "anchor 1" 545 -167 basechar 0
LayerCount: 2
Fore
SplineSet
332 389 m 1xf4
 332 208 l 1
 332 148 332 116 372 116 c 0
 416 116 500 162 557 238 c 0
 581.298828125 270.397460938 587 288 587 307 c 0
 587 343 562.219726562 344 528 351 c 0
 430.258789062 370.993164062 332 389 332 389 c 1xf4
665 191 m 9xf8
 665 -172 l 1
 545 -172 l 1
 545 -99 l 1
 545 -99 444.524414062 -172 348 -172 c 0
 305 -172 203 -164 142 -75 c 0
 116.284179688 -37.48046875 81 62 61 129 c 1
 132 164 l 1
 221 9 l 2
 263.084960938 -64.29296875 321 -62 349 -62 c 0
 439.877929688 -62 545 15 545 15 c 1
 545 70 l 1xf8
 545 70 465.661132812 0 373 0 c 0
 308 0 211.995117188 29 211.995117188 159 c 2
 211.995117188 530 l 1
 -12 530 l 1
 -12 636.328125 l 1
 771 636.328125 l 1
 771 530 l 1
 332 530 l 17
 332 490 l 25
 332 490 378.709960938 484.448242188 416 480 c 0
 534.9765625 465.806640625 559.131835938 461.709960938 588 456 c 0
 679 438 708 375.7421875 708 316 c 0xf4
 708 287 697.532226562 249.840820312 686 228 c 0
 679.98828125 216.614257812 665 191 665 191 c 9xf8
EndSplineSet
Validated: 33
LCarets2: 1 0
Ligature2: "'pres' Pre Base Substitutions in Bengali2 lookup 12 subtable" bnCA bnRAc2
EndChar

StartChar: bnCH_RA
Encoding: 488 -1 232
Width: 795
VWidth: 0
GlyphClass: 3
Flags: W
HStem: -280 110<259.991 437.809> 155 114.98<292.615 377.115> 530 106.328<98 171 291 808>
VStem: 171 120.071<270.038 416.411 506 530> 539 120<-280 -207> 618 120<221.305 349.475>
AnchorPoint: "anchor 1" 539 -277 basechar 0
AnchorPoint: "anchor0" 512 636.2 basechar 0
LayerCount: 2
Fore
SplineSet
435 327 m 0xf0
 453.397460938 341.37109375 456.170898438 354.290039062 456.170898438 364.74609375 c 0
 456.170898438 390.73046875 430.337890625 391.133789062 404.15234375 395.7265625 c 0
 333.358398438 408.1484375 291.071289062 416.411132812 291.071289062 416.411132812 c 1
 291.071289062 303.268554688 l 1
 291.721679688 274.514648438 302.578125 269.98046875 314.931640625 269.98046875 c 0
 343.54296875 269.98046875 403.014648438 302.015625 435 327 c 0xf0
539 -65 m 1xf8
 539 -65 393.028320312 -15.546875 324 12 c 1
 324 116 l 1
 324 116 587.055664062 185.692382812 605 233 c 0
 616 262 618 311 618 321 c 0
 618 333 617.922851562 341.791992188 596 350 c 0
 579.114257812 356.322265625 571 359 571 359 c 1
 571 359 570.571289062 345.36328125 570.33203125 336 c 0
 570 323 548.837890625 290.618164062 503 253 c 0
 462.279296875 219.58203125 379.76953125 155 295 155 c 0
 256 155 171 184 171 268 c 2
 171 530 l 1
 98 530 l 1
 98 636.328125 l 1
 808 636.328125 l 1
 808 530 l 1
 291 530 l 1
 291 506 l 1
 291 506 358 500 573 463 c 0
 669.444335938 446.40234375 738 415 738 320 c 0xf4
 738 292 726.897460938 217.271484375 720 187 c 0
 702 108 527 58 527 58 c 1
 727 -30 l 1
 699 -111 l 1
 659 -101 l 25
 659 -280 l 1
 539 -280 l 1
 539 -207 l 1
 539 -207 438.524414062 -280 342 -280 c 0
 299 -280 197 -272 136 -183 c 0
 110.284179688 -145.48046875 75 -46 55 21 c 1
 126 56 l 1
 215 -99 l 2
 257.084960938 -172.29296875 315 -170 343 -170 c 0
 433.877929688 -170 539 -93 539 -93 c 1
 539 -65 l 1xf8
EndSplineSet
Validated: 33
LCarets2: 1 0
Ligature2: "'pres' Pre Base Substitutions in Bengali2 lookup 12 subtable" bnCHA bnRAc2
EndChar

StartChar: bnJ_RA
Encoding: 489 -1 233
Width: 950
GlyphClass: 3
Flags: W
HStem: -200 110<254.991 472.704> -10.3564 112.892<358.091 473.406> 273.208 92<446.08 580.485> 530 106.328<-15 325 445 964>
VStem: 325 120<360.476 426 513 530> 583 123<208.998 325.903> 680 120<-200 -127 -13 21>
AnchorPoint: "anchor 1" 680 -196 basechar 0
AnchorPoint: "anchor0" 685 636.5 basechar 0
LayerCount: 2
Fore
SplineSet
800 11 m 9xfa
 800 -200 l 1
 680 -200 l 1
 680 -127 l 1
 680 -127 433.524414062 -200 337 -200 c 0
 294 -200 192 -192 131 -103 c 0
 105.284179688 -65.48046875 70 34 50 101 c 1
 121 136 l 1
 210 -19 l 2
 252.084960938 -92.29296875 310 -90 338 -90 c 0
 428.877929688 -90 680 -13 680 -13 c 1
 680 21 l 1xfa
 680 21 746.561523438 176.65234375 772.518554688 267.977539062 c 0
 786.528320312 317.26953125 786.256835938 346.692382812 737.518554688 360.977539062 c 0
 679.518554688 377.977539062 445 426 445 426 c 1
 444.998046875 360.475585938 l 1
 444.998046875 360.475585938 482.998046875 365.208007812 518.998046875 365.208007812 c 0
 601.99609375 365.208007812 706 364.805664062 706 287 c 0
 706 210.186523438 629 110.35546875 552 50 c 0
 501.779433919 10.6352492636 470.6953125 -10.234375 413.94921875 -10.3564453125 c 0
 353.999023438 -10.486328125 266.525390625 31.8935546875 208 108 c 0
 86.5 266 41 386 41 386 c 1
 111 422.267578125 l 1
 111 422.267578125 230.165039062 268.72265625 294 186.267578125 c 0
 329.737304688 140.106445312 376.638671875 102.53515625 416.638671875 102.53515625 c 0
 442.1015625 102.53515625 475.6484375 123.44921875 500 143 c 0
 550.89453125 183.860351562 583 225.3671875 583 241 c 0xfc
 583 273 556.72265625 273.208007812 500.998046875 273.208007812 c 0
 446.998046875 273.208007812 324.998046875 263.208007812 324.998046875 263.208007812 c 1
 325 530 l 1
 -15 530 l 1
 -15 636.328125 l 1
 964 636.328125 l 1
 964 530 l 1
 445 530 l 1
 445 513 l 1
 445 513 651 493 736 467 c 0
 811.2734375 443.974609375 896.184570312 401 896.184570312 326 c 0
 896.184570312 311.653320312 893.842773438 300.040039062 890 285 c 2
 800 11 l 9xfa
EndSplineSet
Validated: 33
LCarets2: 1 0
Ligature2: "'pres' Pre Base Substitutions in Bengali2 lookup 12 subtable" bnJA bnRAc2
EndChar

StartChar: bnJH_RA
Encoding: 490 -1 234
Width: 935
VWidth: 0
GlyphClass: 3
Flags: W
HStem: -193 110<251.991 429.809> 530 106.328<-14 531 859 945>
VStem: 531 120<-193 -120 -6 28 160 167 289 389 507 530> 739 120<39 145 264 530>
AnchorPoint: "anchor 1" 531 -189 basechar 0
AnchorPoint: "anchor0" 739 636.328 basechar 0
LayerCount: 2
Fore
SplineSet
328 293 m 1
 531 160 l 1
 531 389 l 1
 328 293 l 1
651 -193 m 1
 531 -193 l 1
 531 -120 l 1
 531 -120 430.524414062 -193 334 -193 c 0
 291 -193 189 -185 128 -96 c 0
 102.284179688 -58.48046875 67 41 47 108 c 1
 118 143 l 1
 207 -12 l 2
 249.084960938 -85.29296875 307 -83 335 -83 c 0
 425.877929688 -83 531 -6 531 -6 c 1
 531 28 l 1
 179 261 l 1
 179 348 l 1
 531 507 l 1
 531 530 l 1
 -14 530 l 17
 -14 636.328125 l 1
 651 636.328125 l 9
 651 289 l 1
 739 264 l 29
 739 636.298828125 l 5
 735 702 l 5
 822 702 l 5
 845 636.328125 l 5
 945 636.328125 l 5
 945 530 l 5
 859 530 l 29
 859 39 l 5
 739 39 l 5
 739 145 l 5
 651 167 l 25
 651 -193 l 1
EndSplineSet
Validated: 33
LCarets2: 1 0
Ligature2: "'pres' Pre Base Substitutions in Bengali2 lookup 12 subtable" bnJHA bnRAc2
EndChar

StartChar: bnNY_RA
Encoding: 491 -1 235
Width: 1000
VWidth: 0
GlyphClass: 3
Flags: W
HStem: -198 110<246.991 441.205> 0 113<288.521 460.78> 74 94<706.054 852.735> 257 101<761 854.871> 443 105<706.9 852.526> 516 120<439.663 562.42>
VStem: 586 120<-198 -125 -10 70 207 435> 857 102<170.735 254.679 360.937 439.215>
AnchorPoint: "anchor0" 812 636.2 basechar 0
LayerCount: 2
Fore
SplineSet
706 -198 m 5xbb
 586 -198 l 1
 586 -125 l 1
 586 -125 425.524414062 -198 329 -198 c 0
 286 -198 184 -190 123 -101 c 0
 97.2841796875 -63.48046875 62 36 42 103 c 1
 113 138 l 1
 202 -17 l 2
 244.084960938 -90.29296875 302 -88 330 -88 c 0
 420.877929688 -88 586 -10 586 -10 c 5
 586 70 l 21
 586 70 488.524414062 0 394 0 c 4
 351 0 239 2 178 91 c 4
 152.284179688 128.51953125 122 186 102 253 c 5
 168 293 l 5
 234 189 l 6
 280.041992188 119.936523438 335 113 372 113 c 4
 462.877929688 113 586 207 586 207 c 5
 586 433 l 5
 586 491 547 516 505 516 c 4
 437.774414062 516 268 382 268 382 c 5
 215 453 l 5
 319 571 424 636 504 636 c 4xd7
 642.6171875 636 686 526.081054688 686 526.081054688 c 5
 686 526 784 548 821 548 c 4
 885 548 959 547 959 434 c 6
 959 396 l 6
 959 363 955 316 914 310 c 5
 955 303 958 256 958 223 c 6
 958 190 l 6
 958 81 878.017578125 74 821 74 c 4
 779 74 706 88 706 88 c 13
 706 -198 l 5xbb
706 175 m 21
 706 175 780.905273438 168 821 168 c 4
 847 168 857 186 857 212 c 4
 857 250.677734375 851.59765625 257 814 257 c 6
 761 257 l 21
 761 358 l 13
 804 358 l 6
 843.34375 358 857 360.376953125 857 401 c 4
 857 434 838 443 813 443 c 4xbb
 772.35546875 443 706 435 706 435 c 13
 706 175 l 21
EndSplineSet
Validated: 33
LCarets2: 1 0
Ligature2: "'blws' Below Base Substitutions lookup 19 subtable" bnNYA bnRAc2
Ligature2: "'pres' Pre Base Substitutions in Bengali2 lookup 12 subtable" bnNYA bnRAc2
EndChar

StartChar: bnTT_RA
Encoding: 492 -1 236
Width: 740
VWidth: 0
GlyphClass: 3
Flags: W
HStem: -200 110<222.991 400.809> 0 131<296.717 433.109> 337 104<371 534.025> 530 106.328<-12 164 284 509 630 756> 702 97<211.448 498.473>
VStem: 164 120<142.399 530> 502 120<-200 -127 -13 56> 509 121<636.328 691.095> 546 124<227.089 322.715>
AnchorPoint: "anchor 1" 504 -187 basechar 0
AnchorPoint: "anchor0" 504 636.3 basechar 0
LayerCount: 2
Fore
SplineSet
622 164 m 0xfe
 622 -200 l 1
 502 -200 l 1
 502 -127 l 1
 502 -127 401.524414062 -200 305 -200 c 0
 262 -200 160 -192 99 -103 c 0
 73.2841796875 -65.48046875 38 34 18 101 c 1
 89 136 l 1
 178 -19 l 2
 220.084960938 -92.29296875 278 -90 306 -90 c 0
 396.877929688 -90 502 -13 502 -13 c 1
 502 56 l 1xfe
 502 56 417.23989796 0 330 0 c 0
 265 0 164 37 164 159 c 2
 164 530 l 9
 -12 530 l 1
 -12 636.328125 l 1
 509 636.328125 l 17
 509 679.328125 493 702 445 702 c 0
 359.614257812 702 85 702 85 702 c 9
 81 785 l 1
 81 785 318 799 472 799 c 0
 624 799 630 714.328125 630 636.328125 c 9xfd
 756 636.328125 l 1
 756 530 l 17
 284 530 l 1
 284 530 284 264 284 223 c 0
 284 177.6015625 285 131 344 131 c 0
 408 131 468.399414062 161.7421875 515 215 c 0
 543 247 546 277 546 292 c 0
 546 332 492 337 425 337 c 0
 380 337 371 337 371 337 c 1
 361 433 l 1
 361 433 455 441 505 441 c 0
 613 441 670 376.557617188 670 305 c 0xfc80
 670 277 657 212 622 164 c 0xfe
EndSplineSet
Validated: 33
LCarets2: 1 0
Ligature2: "'pres' Pre Base Substitutions in Bengali2 lookup 12 subtable" bnTTA bnRAc2
EndChar

StartChar: bnTTH_RA
Encoding: 493 -1 237
Width: 695
GlyphClass: 3
Flags: W
HStem: -188 110<234.991 412.809> -0.148438 123.208<362.228 458.011> 530.001 106.327<-14 253.592 393 712>
VStem: 311 82<444 530.001> 514 120<-188 -115 -1 42> 522.276 124.724<184.707 261.647>
AnchorPoint: "anchor0" 457 637 basechar 0
AnchorPoint: "anchor 1" 531 -186 basechar 0
LayerCount: 2
Fore
SplineSet
514 42 m 1xf8
 514 42 456.661132812 -0.1484375 388.408203125 -0.1484375 c 0
 280.004882812 -0.1484375 157 218 157 311 c 1
 157 311 239.740234375 344.266601562 294.094726562 397.038085938 c 0
 310.286132812 412.7578125 311 425.7890625 311 444 c 0
 311 472.421875 259 530 259 530 c 1
 -14 530 l 1
 -14 636.328125 l 1
 253.591796875 636.328125 l 1
 253.591796875 636.328125 254.686523438 659.389648438 280 687 c 0
 333.553710938 745.412109375 460 841 460 841 c 1
 512 781 l 1
 512 781 413.852539062 689.1796875 383 658 c 0
 372.51953125 647.408203125 368.81640625 636.328125 368.81640625 636.328125 c 1
 712 636.328125 l 1
 712 530 l 1
 393 530.000976562 l 17
 393 500.822265625 647 335 647 225 c 0xf4
 647 208.145507812 634 174 634 174 c 9
 634 -188 l 1
 514 -188 l 1
 514 -115 l 1
 514 -115 413.524414062 -188 317 -188 c 0
 274 -188 172 -180 111 -91 c 0
 85.2841796875 -53.48046875 50 46 30 113 c 1
 101 148 l 1
 190 -7 l 2
 232.084960938 -80.29296875 290 -78 318 -78 c 0
 408.877929688 -78 514 -1 514 -1 c 1
 514 42 l 1xf8
522.276367188 224.666015625 m 0
 522.276367188 255.768554688 395.341796875 369.704101562 395.341796875 369.704101562 c 1
 395.341796875 369.704101562 380.447265625 344.788085938 359 322 c 0
 327 288 280 257 280 257 c 1
 280 257 353.288085938 123.059570312 400.268554688 123.059570312 c 0
 454.924804688 123.059570312 522.276367188 198.764648438 522.276367188 224.666015625 c 0
EndSplineSet
Validated: 33
LCarets2: 1 0
Ligature2: "'pres' Pre Base Substitutions in Bengali2 lookup 12 subtable" bnTTHA bnRAc2
EndChar

StartChar: bnDDH_RA
Encoding: 494 -1 238
Width: 740
VWidth: 0
GlyphClass: 3
Flags: W
HStem: -178 110<243.991 421.809> 0 131<317.717 454.134> 337 104<392 555.025>
VStem: 185 120<142.399 223> 567 124<227.294 322.715>
AnchorPoint: "anchor 1" 523 -175 basechar 0
AnchorPoint: "anchor0" 489 636.2 basechar 0
LayerCount: 2
Fore
SplineSet
523 56 m 1
 523 9 l 1
 523 9 417.877929688 -68 327 -68 c 0
 299 -68 241.084960938 -70.29296875 199 3 c 2
 110 158 l 1
 39 123 l 1
 59 56 94.2841796875 -43.48046875 120 -81 c 0
 181 -170 283 -178 326 -178 c 0
 422.524414062 -178 523 -105 523 -105 c 1
 523 -178 l 1
 643 -178 l 1
 643 166 l 17
 643 166 659.077148438 191.899414062 664 202 c 0
 683.4609375 241.928710938 691 279 691 305 c 0
 691 376.557617188 634 441 526 441 c 0
 476 441 382 433 382 433 c 1
 392 337 l 1
 392 337 401 337 446 337 c 0
 513 337 567 332 567 292 c 0
 567 277 564 247 536 215 c 0
 489.399414062 161.7421875 429 131 365 131 c 0
 306 131 305 177.6015625 305 223 c 0
 305 264 305 530 305 530 c 1
 754 530 l 9
 754 636.328125 l 9
 -12 636.328125 l 1
 -12 530 l 1
 185 530 l 17
 185 159 l 2
 185 37 286 0 351 0 c 0
 438.359375 0 523 56 523 56 c 1
EndSplineSet
Validated: 41
LCarets2: 1 0
Ligature2: "'pres' Pre Base Substitutions in Bengali2 lookup 12 subtable" bnDDHA bnRAc2
EndChar

StartChar: bnNN_RA
Encoding: 495 -1 239
Width: 710
VWidth: 0
GlyphClass: 3
Flags: W
HStem: -82 110<253.991 431.809> 487 120.844<295.858 437.746> 530 106.328<653 723>
VStem: 146.355 121.645<357.503 457.563> 533 120<-82 -9 104 423 636.328 662.023>
AnchorPoint: "anchor 1" 533 -80 basechar 0
AnchorPoint: "anchor0" 531.971 636.328 basechar 0
LayerCount: 2
Fore
SplineSet
653 -82 m 1xb8
 533 -82 l 1
 533 -9 l 1
 533 -9 432.524414062 -82 336 -82 c 0
 293 -82 191 -74 130 15 c 0
 104.284179688 52.51953125 69 152 49 219 c 1
 120 254 l 1
 209 99 l 2
 251.084960938 25.70703125 309 28 337 28 c 0
 427.877929688 28 533 104 533 104 c 1
 533 423 l 1
 533 423 417 487 339 487 c 0
 297.68359375 487 268 431.666015625 268 408 c 0
 268 363.735351562 368 264 368 264 c 1
 311 200 l 1
 311 200 241.23046875 238.041015625 203 279.735351562 c 0
 178 307 146.35546875 354.763671875 146.35546875 405.166992188 c 0
 146.35546875 456.8671875 190.928710938 540.03515625 220.298828125 565 c 0
 254.846679688 594.365234375 293.677734375 607.84375 332.091796875 607.84375 c 0xd8
 357.393554688 607.84375 392.456054688 603.2421875 416 597 c 0
 493.833984375 576.364257812 533 555 533 555 c 1
 533 636.298828125 l 1
 558.498046875 730 l 1
 650.796875 730 l 1
 650.80078125 636.328125 l 17
 723 636.328125 l 1
 723 530 l 1
 653 530 l 25
 653 -82 l 1xb8
EndSplineSet
Validated: 33
LCarets2: 1 0
Ligature2: "'pres' Pre Base Substitutions in Bengali2 lookup 12 subtable" bnNNA bnRAc2
EndChar

StartChar: bnT_RA
Encoding: 496 -1 240
Width: 710
VWidth: 0
GlyphClass: 3
Flags: W
HStem: -26 114<241.165 414.203> 382 117<383.053 510.581> 530 106.328<-14 722>
VStem: 524 120<-21 48 165 369.309>
AnchorPoint: "anchor 1" 524 -18 basechar 0
AnchorPoint: "anchor0" 473 636.734 basechar 0
LayerCount: 2
Fore
SplineSet
644 323 m 1
 644 -21 l 1
 524 -21 l 1
 524 48 l 17
 524 48 401.524414062 -26 317 -26 c 0
 274 -26 181.000301053 -24.9997936598 120 64 c 0
 94.2841796875 101.51953125 73 163 53 230 c 1
 119 264 l 1
 186 162 l 2
 230.911099174 93.6278788693 297 88 334 88 c 0
 412.877929688 88 524 165 524 165 c 1
 524 296 l 1
 524 354 508 382 466 382 c 0
 408.774414062 382 254 303 254 303 c 1
 210 362 l 1
 316 462 407 499 467 499 c 0
 636 499 644 394 644 323 c 1
722 636.328125 m 9
 722 530 l 17
 -14 530 l 1
 -14 636.328125 l 1
 722 636.328125 l 9
EndSplineSet
Validated: 1
LCarets2: 1 0
Ligature2: "'pres' Pre Base Substitutions in Bengali2 lookup 12 subtable" bnTA bnRAc2
EndChar

StartChar: bnTH_RA
Encoding: 497 -1 241
Width: 740
VWidth: 0
GlyphClass: 3
Flags: W
HStem: -214 110<233.991 411.809> 496 109<105 329.086> 530 106.328<633 714>
VStem: 342 119<416.218 482.541> 513 120<-214 -141 -27 13 147 530>
AnchorPoint: "anchor0" 548.8 636.328 basechar 0
AnchorPoint: "anchor 1" 512.6 -207.9 basechar 0
LayerCount: 2
Fore
SplineSet
633 -214 m 1xb8
 513 -214 l 1
 513 -141 l 1
 513 -141 412.524414062 -214 316 -214 c 0
 273 -214 171 -206 110 -117 c 0
 84.2841796875 -79.48046875 49 20 29 87 c 1
 100 122 l 1
 189 -33 l 2
 231.084960938 -106.29296875 289 -104 317 -104 c 0
 407.877929688 -104 513 -27 513 -27 c 1
 513 13 l 1
 119 222 l 1
 119 330 l 1
 119 330 342 381 342 454 c 0
 342 481 312 496 211 496 c 0
 153 496 105 496 105 496 c 1
 90 592 l 1
 90 592 189 605 263 605 c 0xd8
 422.10546875 605 461 562 461 441 c 0
 461 335 269 274 269 274 c 1
 513 147 l 1
 512.95703125 711 l 1
 606 711 l 1
 627 636.328125 l 25
 714 636.328125 l 25
 714 530 l 25
 633 530 l 25
 633 -214 l 1xb8
EndSplineSet
Validated: 33
LCarets2: 1 0
Ligature2: "'pres' Pre Base Substitutions in Bengali2 lookup 12 subtable" bnTHA bnRAc2
EndChar

StartChar: bnD_RA
Encoding: 498 -1 242
Width: 760
GlyphClass: 3
Flags: W
HStem: -92 110<253.991 431.809>
VStem: 533 120<135 198.185>
AnchorPoint: "anchor 1" 533.4 -88.3 basechar 0
AnchorPoint: "anchor0" 524 636.3 basechar 0
LayerCount: 2
Fore
SplineSet
533 166 m 1
 533 95 l 1
 533 95 427.877929688 18 337 18 c 0
 309 18 251.084960938 15.70703125 209 89 c 2
 120 244 l 1
 49 209 l 1
 69 142 104.284179688 42.51953125 130 5 c 0
 191 -84 293 -92 336 -92 c 0
 432.524414062 -92 533 -19 533 -19 c 1
 533 -92 l 1
 653 -92 l 1
 653 135 l 17
 686.900390625 441 l 1
 615 479 l 1
 360 369 l 1
 360 530 l 1
 773 530 l 1
 773 636.328125 l 1
 -12 636.328125 l 1
 -12 530 l 1
 240 530 l 17
 240.103515625 280.500976562 l 1
 302 203 l 1
 554 318 l 1
 533 166 l 1
EndSplineSet
Validated: 41
LCarets2: 1 0
Ligature2: "'pres' Pre Base Substitutions in Bengali2 lookup 12 subtable" bnDA bnRAc2
EndChar

StartChar: bnDH_RA
Encoding: 499 -1 243
Width: 725
VWidth: 0
GlyphClass: 3
Flags: W
HStem: -187 110<258.991 436.809> 530 106.328<658 737> 571 97.3574<245.207 379.461>
VStem: 176 111<521.943 570.104> 538 120<-187 -114 0 26 165 389 507 530>
AnchorPoint: "anchor0" 544 636.3 basechar 0
AnchorPoint: "anchor 1" 538.3 -182.9 basechar 0
LayerCount: 2
Fore
SplineSet
335 293 m 1x98
 538 165 l 1
 538 389 l 1
 335 293 l 1x98
658 -187 m 1
 538 -187 l 1
 538 -114 l 1
 538 -114 437.524414062 -187 341 -187 c 0
 298 -187 196 -179 135 -90 c 0
 109.284179688 -52.48046875 74 47 54 114 c 1
 125 149 l 1
 214 -6 l 2
 256.084960938 -79.29296875 314 -77 342 -77 c 0
 432.877929688 -77 538 0 538 0 c 1
 538 26 l 1
 186 261 l 1
 186 348 l 1
 313 405 l 1
 313 405 176 457.061523438 176 534 c 0
 176 580.846679688 219.70703125 668.357421875 270.70703125 668.357421875 c 0
 325.70703125 668.357421875 402 637 402 637 c 1
 384 564 l 1
 384 564 330.84765625 571 310 571 c 0xb8
 297 571 287 560.705078125 287 544.486328125 c 0
 287 514.209960938 440 462 440 462 c 1
 538 507 l 1
 538 636.32421875 l 1
 534 702 l 1
 621 702 l 1
 644 636.328125 l 1
 737 636.328125 l 1
 737 530 l 1
 658 530 l 1xd8
 658 -187 l 1
EndSplineSet
Validated: 33
LCarets2: 1 0
Ligature2: "'pres' Pre Base Substitutions in Bengali2 lookup 12 subtable" bnDHA bnRAc2
EndChar

StartChar: bnN_RA
Encoding: 500 -1 244
Width: 725
VWidth: 0
GlyphClass: 3
Flags: W
HStem: -153 110<270.991 446.761> 353 114.398<280.034 423.148>
VStem: 153.355 116.684<254.125 342.528>
AnchorPoint: "anchor 1" 550.3 -148.9 basechar 0
AnchorPoint: "anchor0" 454 636.3 basechar 0
LayerCount: 2
Fore
SplineSet
550 35 m 1
 550 35 444.877929688 -43 354 -43 c 0
 326 -43 268.084960938 -45.29296875 226 28 c 2
 137 183 l 1
 66 148 l 1
 86 81 121.284179688 -18.48046875 147 -56 c 0
 208 -145 310 -153 353 -153 c 0
 449.524414062 -153 550 -80 550 -80 c 1
 550 -153 l 1
 670 -153 l 1
 670 530 l 1
 743 530 l 1
 743 636.328125 l 1
 -14 636.328125 l 1
 -14 530 l 1
 550 530 l 1
 550 401 l 1
 550 401 406.952148438 467.3984375 312.963867188 467.3984375 c 0
 275.908203125 467.3984375 242.502929688 456.177734375 203 421 c 0
 174.212890625 395.365234375 153.35546875 351.131835938 153.35546875 311.431640625 c 0
 153.35546875 270.028320312 165.462890625 223.28125 196 191 c 0
 231 154 321 96 321 96 c 1
 371 161 l 1
 371 161 270.0390625 262.557617188 270.0390625 301.479492188 c 0
 270.0390625 331.961914062 294.736328125 353 324 353 c 0
 384.079101562 353 550 287 550 287 c 1
 550 35 l 1
EndSplineSet
Validated: 41
LCarets2: 1 0
Ligature2: "'pres' Pre Base Substitutions in Bengali2 lookup 12 subtable" bnNA bnRAc2
EndChar

StartChar: bnP_RA
Encoding: 501 -1 245
Width: 745
VWidth: 0
GlyphClass: 3
Flags: W
HStem: -87 110<273.991 451.809> 506 116<306.551 418.013> 530 106.328<673 764>
VStem: 553 120<-87 -14 99 344 509 530>
AnchorPoint: "anchor 1" 563.3 -83.9 basechar 0
AnchorPoint: "anchor0" 565 636.628 basechar 0
LayerCount: 2
Fore
SplineSet
673 -87 m 5xb0
 553 -87 l 5
 553 -14 l 5
 553 -14 452.524414062 -87 356 -87 c 4
 313 -87 211 -79 150 10 c 4
 124.284179688 47.51953125 89 147 69 214 c 5
 140 249 l 5
 229 94 l 6
 271.084960938 20.70703125 329 23 357 23 c 4
 447.877929688 23 553 99 553 99 c 5
 553 344 l 5
 541 357 l 5
 362 203 l 5
 295 212 l 5
 172 375 l 5
 125 343 l 5
 62 433 l 5
 62 433 136.000976562 516.999023438 250 587 c 4
 280.547851562 605.7578125 321 622 350 622 c 4xd0
 386 622 416.337890625 613.57421875 439 598 c 4
 511.928710938 547.881835938 553 509 553 509 c 5
 553 636.291015625 l 5
 547.498046875 702 l 5
 634 702 l 5
 661.6015625 636.328125 l 5
 764 636.328125 l 5
 764 530 l 5
 673 530 l 29
 673 -87 l 5xb0
476 437 m 5
 476 437 461 451 445 464 c 4
 415.661132812 487.837890625 388 506 360 506 c 4
 332 506 313.333984375 489.067382812 300 480 c 4
 275 463 252 445 252 445 c 5
 344 330 l 5
 476 437 l 5
EndSplineSet
Validated: 33
LCarets2: 1 0
Ligature2: "'pres' Pre Base Substitutions in Bengali2 lookup 12 subtable" bnPA bnRAc2
EndChar

StartChar: bnPH_RA
Encoding: 502 -1 246
Width: 970
VWidth: 0
GlyphClass: 3
Flags: W
HStem: -210 110<268.991 446.809> 382 100<668 816.283> 530 106.328<-10 178 260 981>
VStem: 321 120<344.529 397.801> 548 120<-210 -137 -23 12 140 382> 818 111<300.927 377.408>
AnchorPoint: "anchor 1" 548 -207 basechar 0
AnchorPoint: "anchor0" 718 636 basechar 0
LayerCount: 2
Fore
SplineSet
668 -210 m 1
 548 -210 l 1
 548 -137 l 1
 548 -137 447.524414062 -210 351 -210 c 0
 308 -210 206 -202 145 -113 c 0
 119.284179688 -75.48046875 84 24 64 91 c 1
 135 126 l 1
 224 -29 l 2
 266.084960938 -102.29296875 324 -100 352 -100 c 0
 442.877929688 -100 548 -23 548 -23 c 1
 548 12 l 1
 180 188 l 1
 180 284 l 1
 180 284 321 336 321 371 c 0
 321 403.25 157 484 157 484 c 1
 178 530 l 1
 -10 530 l 1
 -10 636.328125 l 1
 981 636.328125 l 1
 981 530 l 1
 260 530 l 1
 260 530 310.456054688 508.037109375 363 477 c 0
 400.381835938 454.918945312 441 422 441 371 c 0
 441 312 368 270 329 243 c 1
 548 140 l 1
 548 482 l 25
 773 482 l 2
 885 482 929 439 929 366 c 0
 929 344 920.401367188 318.803710938 908 294 c 0
 886 250 801 166 801 166 c 1
 734 210 l 1
 734 210 778.416992188 271.4921875 798 304 c 0
 809.231445312 322.64453125 818 340 818 356 c 0
 818 382 779 382 763 382 c 2
 668 382 l 1
 668 -210 l 1
EndSplineSet
Validated: 33
LCarets2: 1 0
Ligature2: "'pres' Pre Base Substitutions in Bengali2 lookup 12 subtable" bnPHA bnRAc2
EndChar

StartChar: bnB_RA
Encoding: 503 -1 247
Width: 735
VWidth: 0
GlyphClass: 3
Flags: W
HStem: -200 110<270.991 448.809> 530 106.328<-12 550 670 748>
VStem: 550 120<-200 -127 -13 25 161 387 507 530>
AnchorPoint: "anchor 1" 550.3 -196.9 basechar 0
AnchorPoint: "anchor0" 474 636.3 basechar 0
LayerCount: 2
Fore
SplineSet
347 292 m 1
 550 161 l 1
 550 387 l 1
 347 292 l 1
670 -200 m 1
 550 -200 l 1
 550 -127 l 1
 550 -127 449.524414062 -200 353 -200 c 0
 310 -200 208 -192 147 -103 c 0
 121.284179688 -65.48046875 86 34 66 101 c 1
 137 136 l 1
 226 -19 l 2
 268.084960938 -92.29296875 326 -90 354 -90 c 0
 444.877929688 -90 550 -13 550 -13 c 1
 550 25 l 1
 193 258 l 1
 193 345 l 1
 550 507 l 1
 550 530 l 1
 -12 530 l 17
 -12 636.328125 l 1
 748 636.328125 l 9
 748 530 l 9
 670 530 l 25
 670 -200 l 1
EndSplineSet
Validated: 33
LCarets2: 1 0
Ligature2: "'pres' Pre Base Substitutions in Bengali2 lookup 12 subtable" bnBA bnRAc2
EndChar

StartChar: bnBH_RA
Encoding: 504 -1 248
Width: 750
VWidth: 0
GlyphClass: 3
Flags: W
HStem: -68 115<255.951 450.92> 217 111<291.702 427.874> 282 122<493.307 563.379> 387 102.098<291.455 410> 530 106.328<-14 762>
VStem: 185 106<331.647 386.651>
AnchorPoint: "anchor 1" 578.3 -64.9 basechar 0
AnchorPoint: "anchor0" 504 636.3 basechar 0
LayerCount: 2
Fore
SplineSet
699 230 m 1xac
 699 288 611 404 548 404 c 0xac
 492.598632812 404 421.115234375 328 365 328 c 0
 316.337890625 328 291 328.8125 291 356 c 0
 291 374 294.498046875 387 314.498046875 387 c 0
 351.595703125 387 410 387 410 387 c 1
 419 476 l 1
 419 476 319 489.09765625 283.72265625 489.09765625 c 0
 251 489.09765625 229 481 210 462 c 0
 196.416992188 448.416992188 185 395 185 349 c 0
 185 255.602539062 221.8515625 217 350 217 c 0xdc
 447.34765625 217 516.631835938 282 536 282 c 0
 550 282 579 244 579 232 c 1
 579 124 l 1
 579 124 436.877929688 47 346 47 c 0
 318 47 260.424980216 42.0848229812 213 112 c 2
 116 255 l 1
 45 220 l 1
 64 144 100.238948155 64.1563749735 125 26 c 0
 186 -68 302 -68 345 -68 c 0
 441.524414062 -68 579 5 579 5 c 1
 579 -68 l 1
 699 -68 l 1
 699 230 l 1xac
762 636.328125 m 17
 762 530 l 25
 -14 530 l 1
 -14 636.328125 l 1
 762 636.328125 l 17
EndSplineSet
Validated: 41
LCarets2: 1 0
Ligature2: "'pres' Pre Base Substitutions in Bengali2 lookup 12 subtable" bnBHA bnRAc2
EndChar

StartChar: bnM_RA
Encoding: 505 -1 249
Width: 725
VWidth: 0
Flags: W
HStem: -68 110<266.991 444.809> 309 97<470.213 545.688> 380 101<272.247 337.893> 530 106.328<-10 306 415 549 642 736>
VStem: 187 104<308.165 374.816> 340 101<474.279 519.457> 546 120<-68 5 119 309> 571 95<414.852 525.927>
AnchorPoint: "anchor 1" 546 -65 basechar 0
AnchorPoint: "anchor0" 553 636 basechar 0
LayerCount: 2
Fore
SplineSet
432 443 m 1xdd
 432 443 518 406 535 406 c 0
 547 406 571 438 571 460 c 0
 571 484 549 530 549 530 c 1
 415 530 l 1
 415 530 441 514 441 487 c 0
 441 467 432 443 432 443 c 1xdd
546 309 m 0xde
 491.515625 309 363 380 324 380 c 0
 308.797851562 380 291 356 291 342 c 0
 291 320.447265625 340 284 340 284 c 1
 305 226 l 1
 305 226 260 242 228 265 c 0
 195.336914062 288.4765625 187 314 187 337 c 0
 187 408.551757812 248.012695312 481 297 481 c 0
 322 481 336 474 336 474 c 1
 336 474 340 481.052734375 340 489 c 0
 340 504 306 530 306 530 c 1
 -10 530 l 1
 -10 636.328125 l 1
 736 636.328125 l 1
 736 530 l 1
 642 530 l 1
 642 530 666 488.090820312 666 457 c 9xbd
 666 -68 l 1
 546 -68 l 1
 546 5 l 1
 546 5 445.524414062 -68 349 -68 c 0
 306 -68 204 -60 143 29 c 0
 117.284179688 66.51953125 82 166 62 233 c 1
 133 268 l 1
 222 113 l 2
 264.084960938 39.70703125 322 42 350 42 c 0
 440.877929688 42 546 119 546 119 c 1
 546 309 l 0xde
EndSplineSet
Validated: 33
LCarets2: 1 0
Ligature2: "'pres' Pre Base Substitutions in Bengali2 lookup 12 subtable" bnMA bnRAc2
EndChar

StartChar: bnY_RA
Encoding: 506 -1 250
Width: 707
VWidth: 0
GlyphClass: 3
Flags: W
HStem: -228 110<248.991 426.809> 530 106.328<-12 151 241 528 648 722>
VStem: 312 116<350.885 403.491> 528 120<-228 -155 -41 -8 123 530>
AnchorPoint: "anchor 1" 528.3 -218.9 basechar 0
AnchorPoint: "anchor0" 471 636.3 basechar 0
LayerCount: 2
Fore
SplineSet
309 238 m 1
 528 123 l 1
 528 530 l 1
 241 530 l 1
 241 530 295 509 343 478 c 0
 377.287109375 455.856445312 428 425 428 378 c 0
 428 325 378 283 309 238 c 1
648 -228 m 1
 528 -228 l 1
 528 -155 l 1
 528 -155 427.524414062 -228 331 -228 c 0
 288 -228 186 -220 125 -131 c 0
 99.2841796875 -93.48046875 64 6 44 73 c 1
 115 108 l 1
 204 -47 l 2
 246.084960938 -120.29296875 304 -118 332 -118 c 0
 422.877929688 -118 528 -41 528 -41 c 1
 528 -8 l 1
 160 185 l 1
 160.001953125 285 l 1
 160.001953125 285 312 343 312 377 c 0
 312 407.25 137 500 137 500 c 1
 151 529.998046875 l 1
 -12 530 l 1
 -12 636.328125 l 1
 722 636.328125 l 1
 722 530 l 9
 648 530 l 25
 648 -228 l 1
EndSplineSet
Validated: 33
LCarets2: 1 0
Ligature2: "'pres' Pre Base Substitutions in Bengali2 lookup 12 subtable" bnYA bnRAc2
EndChar

StartChar: bnR_RA
Encoding: 507 -1 251
Width: 740
VWidth: 0
GlyphClass: 3
Flags: W
HStem: -253 110<270.991 448.809> -58 138<256.199 390.89> 530 106.328<-12 550 670 755>
VStem: 256.053 135<-57.8955 79.9283> 550 120<-253 -180 -66 25 161 387 507 530>
AnchorPoint: "anchor 1" 550.3 -249.9 basechar 0
AnchorPoint: "anchor0" 484 636.3 basechar 0
LayerCount: 2
Fore
SplineSet
347 292 m 1
 550 161 l 1
 550 387 l 1
 347 292 l 1
670 -253 m 1
 550 -253 l 1
 550 -180 l 1
 550 -180 449.524414062 -253 353 -253 c 0
 310 -253 208 -245 147 -156 c 0
 121.284179688 -118.48046875 86 -19 66 48 c 1
 137 83 l 1
 226 -72 l 2
 268.084960938 -145.29296875 326 -143 354 -143 c 0
 444.877929688 -143 550 -66 550 -66 c 1
 550 25 l 1
 193 258 l 1
 193 345 l 1
 550 507 l 1
 550 530 l 1
 -12 530 l 17
 -12 636.328125 l 1
 755 636.328125 l 9
 755 530 l 9
 670 530 l 25
 670 -253 l 1
256.052734375 -35 m 2
 256.052734375 55 l 2
 256.052734375 70 264.052734375 80 280.052734375 80 c 2
 368.052734375 80 l 2
 383.052734375 80 391.052734375 69 391.052734375 55 c 2
 391.052734375 -35 l 2
 391.052734375 -50 382.052734375 -58 368.052734375 -58 c 2
 280.052734375 -58 l 2
 266.052734375 -58 256.052734375 -49 256.052734375 -35 c 2
EndSplineSet
Validated: 33
LCarets2: 1 0
Ligature2: "'pres' Pre Base Substitutions in Bengali2 lookup 12 subtable" bnRA bnRAc2
EndChar

StartChar: bnL_RA
Encoding: 508 -1 252
Width: 870
VWidth: 0
GlyphClass: 3
Flags: W
HStem: -228 113<268.991 485.065> 351 111<276.774 411.563 564.176 682.71> 530 106.328<-14 688 808 885>
VStem: 146 120<200.214 341.582> 437 94<179 234.417> 688 120<-228 -155 -40 346.984 435 530>
AnchorPoint: "anchor 1" 688.3 -223.9 basechar 0
AnchorPoint: "anchor0" 564 636.3 basechar 0
LayerCount: 2
Fore
SplineSet
808 -228 m 1
 688 -228 l 1
 688 -155 l 1
 688 -155 447.524414062 -228 351 -228 c 0
 308 -228 206 -220 145 -131 c 0
 119.284179688 -93.48046875 84 6 64 73 c 1
 135 108 l 1
 224 -44 l 2
 266.084960938 -117.29296875 324 -115 352 -115 c 0
 442.877929688 -115 688 -40 688 -40 c 1
 688 274 l 0
 688 325 688 352 638 352 c 0
 587.796875 352 558.461914062 351.307617188 543 274 c 2
 531 179 l 1
 437 179 l 1
 433 250 l 1
 428.635742188 347.26171875 397.225585938 351 328 351 c 0
 277.37109375 351 266 327 266 281 c 0
 266 232.916015625 304 104 304 104 c 1
 225 75 l 1
 225 75 146 200.530273438 146 321 c 0
 146 435 248 462 309 462 c 0
 389.517578125 462 473.249023438 459.481445312 493 392 c 1
 521 451 569 458 627 458 c 0
 670.284179688 458 688 435 688 435 c 1
 688 530 l 1
 -14 530 l 1
 -14 636.328125 l 1
 885 636.328125 l 1
 885 530 l 1
 808 530 l 1
 808 -228 l 1
EndSplineSet
Validated: 33
LCarets2: 1 0
Ligature2: "'pres' Pre Base Substitutions in Bengali2 lookup 12 subtable" bnLA bnRAc2
EndChar

StartChar: bnSH_RA
Encoding: 509 -1 253
Width: 775
VWidth: 0
GlyphClass: 3
Flags: W
HStem: -68 110<257.991 452.478> 530 106.328<455.323 571.436 718 788>
VStem: 310 123<360.344 507.399> 598 120<-68 5 120 510.573>
AnchorPoint: "anchor 1" 598.3 -63.9 basechar 0
AnchorPoint: "anchor0" 518 636.3 basechar 0
LayerCount: 2
Fore
SplineSet
718 -68 m 1
 598 -68 l 1
 598 5 l 1
 598 5 436.524414062 -68 340 -68 c 0
 297 -68 195 -60 134 29 c 0
 108.284179688 66.51953125 73 166 53 233 c 1
 124 268 l 1
 213 113 l 2
 255.084960938 39.70703125 313 42 341 42 c 0
 431.877929688 42 598 120 598 120 c 1
 598 479 l 1
 598 511 548 526 511 526 c 0
 456.770507812 526 433 497 433 444 c 0
 433 390.71484375 433.6953125 371.182617188 469 350 c 0
 504 329 559 308 559 308 c 1
 535 226 l 1
 535 226 486 234 449 249 c 0
 408.330078125 265.487304688 384 283 384 283 c 1
 384 283 364.553710938 264.166992188 318 246 c 0
 277 230 207 226 207 226 c 1
 185 312 l 1
 185 312 218.999023438 322.000976562 261 342 c 0
 305.701171875 363.28515625 310 388.141601562 310 450 c 0
 310 500 294.918945312 513.958007812 258 518.00390625 c 0
 220.108398438 522.15625 -10 530 -10 530 c 1
 -10 636.328125 l 1
 -10 636.328125 236 636.328125 288 636.328125 c 0
 328 636.328125 354 629 378 599 c 1
 405 630 443 634 479 634 c 0
 523 634 560 622 598 602 c 1
 598 636 l 1
 623.498046875 717 l 1
 707 717 l 1
 707.00390625 636.328125 l 17
 788 636.328125 l 1
 788 530 l 1
 718 530 l 25
 718 -68 l 1
EndSplineSet
Validated: 33
LCarets2: 1 0
Ligature2: "'pres' Pre Base Substitutions in Bengali2 lookup 12 subtable" bnSHA bnRAc2
EndChar

StartChar: bnSS_RA
Encoding: 510 -1 254
Width: 735
VWidth: 0
GlyphClass: 3
Flags: W
HStem: -228 110<268.991 446.809> 297 104<470.393 548> 530 106.328<-12 171 263 548 668 751>
VStem: 548 120<-228 -155 -41 -8 123 297 401 530>
AnchorPoint: "anchor 1" 548.3 -224.9 basechar 0
AnchorPoint: "anchor0" 463 636.3 basechar 0
LayerCount: 2
Fore
SplineSet
548 -8 m 1
 180 185 l 1
 180.001953125 285 l 1
 180.001953125 285 332 343 332 377 c 0
 332 407.25 157 500 157 500 c 1
 171 529.998046875 l 1
 -12 530 l 1
 -12 636.328125 l 1
 751 636.328125 l 1
 751 530 l 9
 668 530 l 25
 668 -228 l 1
 548 -228 l 1
 548 -155 l 1
 548 -155 447.524414062 -228 351 -228 c 0
 308 -228 206 -220 145 -131 c 0
 119.284179688 -93.48046875 84 6 64 73 c 1
 135 108 l 1
 224 -47 l 2
 266.084960938 -120.29296875 324 -118 352 -118 c 0
 442.877929688 -118 548 -41 548 -41 c 1
 548 -8 l 1
548 401 m 1
 548 530 l 1
 263 530 l 1
 263 530 327 499 382 468 c 0
 447.360351562 431.161132812 504 401 548 401 c 1
548 297 m 1
 496 297 438 326 438 326 c 1
 438 326 420.405273438 301.9609375 406 291 c 0
 360 256 329 238 329 238 c 1
 548 123 l 1
 548 297 l 1
EndSplineSet
Validated: 33
LCarets2: 1 0
Ligature2: "'blws' Below Base Substitutions lookup 19 subtable" bnSSA bnRAc2
EndChar

StartChar: bnS_RA
Encoding: 511 -1 255
Width: 750
VWidth: 0
GlyphClass: 3
Flags: W
HStem: -68 110<281.267 458.809> 280 113<144.218 232.657> 284 121<491.939 559.633> 530 106.328<-10 297 413 568 681 764>
VStem: 560 120<-68 5 119 284> 596 111<414.591 517.079>
AnchorPoint: "anchor 1" 560 -65 basechar 0
AnchorPoint: "anchor0" 497 636 basechar 0
LayerCount: 2
Fore
SplineSet
387 472 m 1xb4
 387 472 526.126953125 405 552 405 c 0
 572 405 596 432 596 450 c 0
 596 477 568 530 568 530 c 1
 413 530 l 1
 387 472 l 1xb4
560 284 m 0xb8
 522 284 335 376 335 376 c 1
 335 376 282 280 230 280 c 0
 163 280 63 343 63 343 c 1
 94 419 l 1
 94 419 178 393 206 393 c 0
 236 393 297 530 297 530 c 1
 -10 530 l 1
 -10 636.328125 l 1
 764 636.328125 l 1
 764 530 l 1
 681 530 l 1
 681 530 707 480 707 443 c 0xd4
 707 412.387695312 680 356 680 356 c 9
 680 -68 l 1
 560 -68 l 1
 560 5 l 1
 560 5 459.524414062 -68 363 -68 c 0
 320 -68 218.000301053 -59.9997936598 157 29 c 0
 131.284179688 66.51953125 102 150 82 217 c 1
 153 252 l 1
 236 113 l 2
 279.325142693 40.443435731 336 42 364 42 c 0
 454.877929688 42 560 119 560 119 c 1
 560 284 l 0xb8
EndSplineSet
Validated: 33
LCarets2: 1 0
Ligature2: "'pres' Pre Base Substitutions in Bengali2 lookup 12 subtable" bnSA bnRAc2
EndChar

StartChar: bnH_RA
Encoding: 512 -1 256
Width: 795
VWidth: 0
GlyphClass: 3
Flags: W
HStem: -275 110<256.991 434.809> 378 111<328 607.93> 530 106.328<-14 806>
VStem: 536 120<-275 -202 -88 -71> 617 114<227.549 366.505>
AnchorPoint: "anchor 1" 536 -262 basechar 0
AnchorPoint: "anchor0" 545 636 basechar 0
LayerCount: 2
Fore
SplineSet
656 -71 m 12xf0
 656 -275 l 5
 536 -275 l 5
 536 -202 l 5
 536 -202 435.524414062 -275 339 -275 c 4
 296 -275 194 -267 133 -178 c 4
 107.284179688 -140.48046875 72 -41 52 26 c 5
 123 61 l 5
 212 -94 l 6
 254.084960938 -167.29296875 312 -165 340 -165 c 4
 430.877929688 -165 536 -88 536 -88 c 5
 536 -25 l 5xf0
 536 -25 371 40 291 92 c 5
 302 198 l 5
 302 198 617 240 617 318 c 0
 617 363 600 378 530 378 c 0
 467 378 328 378 328 378 c 1
 314 468 l 1
 314 468 438.418945312 489 533 489 c 0
 701 489 731 408.578125 731 288 c 0xe8
 731 171 483 120 483 120 c 1
 737 0 l 5
 693 -83 l 5
 656 -71 l 12xf0
806 636.328125 m 17
 806 530 l 25
 -14 530 l 1
 -14 636.328125 l 1
 806 636.328125 l 17
EndSplineSet
Validated: 33
LCarets2: 1 0
Ligature2: "'pres' Pre Base Substitutions in Bengali2 lookup 12 subtable" bnHA bnRAc2
EndChar

StartChar: bnDDx_RA
Encoding: 513 -1 257
Width: 785
VWidth: 0
GlyphClass: 3
Flags: W
HStem: -348 110<272.991 456.274> -180 138<312.146 446.837> -0.356445 112.892<362.05 481.375> 350 106<445.151 589.107> 530 106.328<-14 323 443 798>
VStem: 312 135<-179.896 -42.0717> 323 120<447.268 530> 572 120<-348 -275 -161 58> 595.639 118.363<241.158 340.752>
AnchorPoint: "anchor 1" 572 -342 basechar 0
AnchorPoint: "anchor0" 507 636 basechar 0
LayerCount: 2
Fore
SplineSet
572 58 m 5xf9
 572 57 510 -0.3564453125 419.94921875 -0.3564453125 c 4
 359.998940335 -0.3564453125 282.525390625 31.8935546875 224 108 c 4
 102.5 266 66 399 66 399 c 5
 142 428 l 5
 142 428 246.165039062 268.72265625 310 186.267578125 c 4
 345.737091304 140.106280114 382.638671875 112.53515625 422.638671875 112.53515625 c 4
 506 112.53515625 595.638671875 251 595.638671875 308 c 4
 595.638671875 336 571.724609375 350 533 350 c 4
 479 350 323 340 323 340 c 5
 323 530 l 13
 -14 530 l 5
 -14 636.328125 l 5
 798 636.328125 l 21
 798 530 l 5
 443 530 l 21
 443 447.267578125 l 5
 443 447.267578125 533 456 569 456 c 4
 651.998046875 456 714.001953125 406.59765625 714.001953125 328.791992188 c 4xfa80
 714.001953125 283.022314155 692 228 692 228 c 13
 692 -348 l 5
 572 -348 l 5
 572 -275 l 5
 572 -275 451.524414062 -348 355 -348 c 4
 312 -348 210 -340 149 -251 c 4
 123.284179688 -213.48046875 88 -114 68 -47 c 5
 139 -12 l 5
 228 -167 l 6
 270.084960938 -240.29296875 328 -238 356 -238 c 4
 446.877929688 -238 572 -161 572 -161 c 5
 572 58 l 5xf9
312 -157 m 2xfc
 312 -67 l 2
 312 -52 320 -42 336 -42 c 2
 424 -42 l 2
 439 -42 447 -53 447 -67 c 2
 447 -157 l 2
 447 -172 438 -180 424 -180 c 2
 336 -180 l 2
 322 -180 312 -171 312 -157 c 2xfc
EndSplineSet
Validated: 33
LCarets2: 1 0
Substitution2: "Single Substitution lookup 21 subtable" bnDDx1_RA
Ligature2: "'pres' Pre Base Substitutions in Bengali2 lookup 12 subtable" bnDDxA bnRAc2
EndChar

StartChar: bnDDx1_RA
Encoding: 514 -1 258
Width: 785
VWidth: 0
GlyphClass: 3
Flags: W
HStem: -355 138<202.146 336.837> -190 110<272.991 456.274> -0.356445 112.892<362.05 481.375> 350 106<445.151 589.107> 530 106.328<-14 323 443 798>
VStem: 202 135<-354.896 -217.072> 323 120<447.268 530> 572 120<-190 -117 -3 58> 595.639 118.363<241.158 340.752>
AnchorPoint: "anchor 1" 572 -186 basechar 0
AnchorPoint: "anchor0" 513 636 basechar 0
LayerCount: 2
Fore
SplineSet
572 58 m 1xf9
 572 57 510 -0.3564453125 419.94921875 -0.3564453125 c 0
 359.998940335 -0.3564453125 282.525390625 31.8935546875 224 108 c 0
 102.5 266 66 399 66 399 c 1
 142 428 l 1
 142 428 246.165039062 268.72265625 310 186.267578125 c 0
 345.737091304 140.106280114 382.638671875 112.53515625 422.638671875 112.53515625 c 0
 506 112.53515625 595.638671875 251 595.638671875 308 c 0
 595.638671875 336 571.724609375 350 533 350 c 0
 479 350 323 340 323 340 c 1
 323 530 l 9
 -14 530 l 1
 -14 636.328125 l 1
 798 636.328125 l 17
 798 530 l 1
 443 530 l 17
 443 447.267578125 l 1
 443 447.267578125 533 456 569 456 c 0
 651.998046875 456 714.001953125 406.59765625 714.001953125 328.791992188 c 0xfa80
 714.001953125 283.022314155 692 228 692 228 c 9
 692 -190 l 1
 572 -190 l 1
 572 -117 l 1
 572 -117 451.524414062 -190 355 -190 c 0
 312 -190 210 -182 149 -93 c 0
 123.284179688 -55.48046875 88 44 68 111 c 1
 139 146 l 1
 228 -9 l 2
 270.084960938 -82.29296875 328 -80 356 -80 c 0
 446.877929688 -80 572 -3 572 -3 c 1
 572 58 l 1xf9
202 -332 m 2xfc
 202 -242 l 2
 202 -227 210 -217 226 -217 c 2
 314 -217 l 2
 329 -217 337 -228 337 -242 c 2
 337 -332 l 2
 337 -347 328 -355 314 -355 c 2
 226 -355 l 2
 212 -355 202 -346 202 -332 c 2xfc
EndSplineSet
Validated: 33
EndChar

StartChar: bnDDHx_RA
Encoding: 515 -1 259
Width: 740
VWidth: 0
GlyphClass: 3
Flags: W
HStem: -340 112<241.945 421.809> -168 138<299.146 433.837> 0 131<317.717 454.134> 337 104<392 555.025>
VStem: 185 120<142.399 223> 299 135<-167.896 -30.0717> 567 124<227.294 322.715>
AnchorPoint: "anchor 1" 523 -334 basechar 0
AnchorPoint: "anchor0" 463 636 basechar 0
LayerCount: 2
Fore
SplineSet
523 56 m 1xfa
 523 -153 l 1
 523 -153 417.877929688 -228 327 -228 c 0
 299 -228 241.084960938 -232.29296875 199 -159 c 2
 110 -4 l 1
 39 -39 l 1
 59 -106 94.0473415173 -205.643900669 120 -243 c 0
 186 -338 283 -340 326 -340 c 0
 422.524414062 -340 523 -267 523 -267 c 1
 523 -340 l 1
 643 -340 l 1
 643 166 l 17
 643 166 659.077148438 191.899414062 664 202 c 0
 683.4609375 241.928710938 691 279 691 305 c 0
 691 376.557617188 634 441 526 441 c 0
 476 441 382 433 382 433 c 1
 392 337 l 1
 392 337 401 337 446 337 c 0
 513 337 567 332 567 292 c 0
 567 277 564 247 536 215 c 0
 489.399414062 161.7421875 429 131 365 131 c 0
 306 131 305 177.6015625 305 223 c 0
 305 264 305 530 305 530 c 1
 754 530 l 9
 754 636.328125 l 9
 -12 636.328125 l 1
 -12 530 l 1
 185 530 l 17
 185 159 l 2
 185 37 286 0 351 0 c 0
 438.359375 0 523 56 523 56 c 1xfa
299 -145 m 2xf6
 299 -55 l 2
 299 -40 307 -30 323 -30 c 2
 411 -30 l 2
 426 -30 434 -41 434 -55 c 2
 434 -145 l 2
 434 -160 425 -168 411 -168 c 2
 323 -168 l 2
 309 -168 299 -159 299 -145 c 2xf6
EndSplineSet
Validated: 41
Substitution2: "Single Substitution lookup 21 subtable" bnDDHx1_RA
LCarets2: 1 0
Ligature2: "'pres' Pre Base Substitutions in Bengali2 lookup 12 subtable" bnDDHxA bnRAc2
EndChar

StartChar: bnYx_RA
Encoding: 516 -1 260
Width: 710
VWidth: 0
GlyphClass: 3
Flags: W
HStem: -240 110<248.991 426.809> -88 138<255.146 389.837> 530 106.328<-12 151 241 528 648 722>
VStem: 255 135<-87.8955 49.9283> 312 116<350.885 403.491> 528 120<-240 -167 -53 -8 123 530>
AnchorPoint: "anchor 1" 528.3 -235.9 basechar 0
AnchorPoint: "anchor0" 461 636.3 basechar 0
LayerCount: 2
Fore
SplineSet
309 238 m 1xec
 528 123 l 1
 528 530 l 1
 241 530 l 1
 241 530 295 509 343 478 c 0
 377.287109375 455.856445312 428 425 428 378 c 0
 428 325 378 283 309 238 c 1xec
648 -240 m 1
 528 -240 l 1
 528 -167 l 1
 528 -167 427.524414062 -240 331 -240 c 0
 288 -240 186 -232 125 -143 c 0
 99.2841796875 -105.48046875 64 -6 44 61 c 1
 115 96 l 1
 204 -59 l 2
 246.084960938 -132.29296875 304 -130 332 -130 c 0
 422.877929688 -130 528 -53 528 -53 c 1
 528 -8 l 1
 160 185 l 1
 160.001953125 285 l 1
 160.001953125 285 312 343 312 377 c 0
 312 407.25 137 500 137 500 c 1
 151 529.998046875 l 1
 -12 530 l 1
 -12 636.328125 l 1
 722 636.328125 l 1
 722 530 l 9
 648 530 l 25
 648 -240 l 1
255 -65 m 2xf4
 255 25 l 2
 255 40 263 50 279 50 c 2
 367 50 l 2
 382 50 390 39 390 25 c 2
 390 -65 l 2
 390 -80 381 -88 367 -88 c 2
 279 -88 l 2
 265 -88 255 -79 255 -65 c 2xf4
EndSplineSet
Validated: 33
LCarets2: 1 0
Ligature2: "'pres' Pre Base Substitutions in Bengali2 lookup 12 subtable" bnYxA bnRAc2
EndChar

StartChar: bnK_SS_RA
Encoding: 517 -1 261
Width: 1050
VWidth: 0
GlyphClass: 3
Flags: W
HStem: -200 110<271.991 474.402> 204 118<339.389 394.947> 320 115<586.85 641> 328 100<762 900.272> 530 106.328<-14 276 375 482 584 641 762 1061>
VStem: 306 99<464.002 521.286> 641 120<-200 -127 -12 111 221 320 435 530>
AnchorPoint: "anchor 1" 641 -197 basechar 0
AnchorPoint: "anchor0" 783 636 basechar 0
LayerCount: 2
Fore
SplineSet
761 -200 m 1xde
 641 -200 l 1
 641 -127 l 1
 641 -127 450.524414062 -200 354 -200 c 0
 311 -200 209 -192 148 -103 c 0
 122.284179688 -65.48046875 87 34 67 101 c 1
 138 136 l 1
 227 -19 l 2
 269.084960938 -92.29296875 327 -90 355 -90 c 0
 445.877929688 -90 641 -12 641 -12 c 9
 641 111 l 1
 641 111 392 204 368 204 c 0
 346 204 322 161 334 147 c 0
 341.836914062 137.856445312 405 79 405 79 c 1
 355 11 l 1
 355 11 291.868858564 40.1031757519 245 79 c 0
 197.203125 118.666992188 208.288166244 193.736280536 244 254 c 0
 276 308 316 322 343 322 c 0
 358 322 396 314 396 314 c 1
 396 314 274.001953125 374.002929688 242 390 c 0
 226.138671875 397.928710938 218.65176205 388.2360743 214 381 c 0
 205 367 206 346 218 334 c 0
 233.5078125 318.4921875 237 315 237 315 c 1
 198 249 l 1
 198 249 146.047851562 275.952148438 122 300 c 0
 94 328 101.000227332 390.999870097 121 426 c 0
 148.756835938 474.575195312 170 492 202 492 c 0
 238 492 297 463.349609375 297 463.349609375 c 1
 297 463.349609375 306 477.348632812 306 488 c 0
 306 503 276 530 276 530 c 1
 -14 530 l 1
 -14 636.328125 l 1
 1061 636.328125 l 1
 1061 530 l 25
 762 530 l 1
 762 428 l 25
 865 428 l 2
 999 428 1042 317 975 207 c 0
 949.41015625 164.986328125 878 93 878 93 c 1
 808 138 l 1
 887 257 l 2
 921.140625 308.427734375 901 328 850 328 c 2
 761 328 l 25
 761 -200 l 1xde
393 415 m 1
 396.885742188 412.09375 465.372070312 375.494140625 479 347 c 0
 490 324 474 291 474 291 c 1
 641 221 l 1
 641 320 l 1xae
 582 320 511 332 488 384 c 0
 473.342773438 417.138671875 482 530 482 530 c 1
 375 530 l 17
 375 530 405 501 405 480 c 0
 405 451 393 415 393 415 c 1
641 435 m 25
 641 530 l 25
 584 530 l 17
 584 530 584 491 584 463 c 0
 584 440.977539062 599 435 612 435 c 1
 641 435 l 25
EndSplineSet
Validated: 33
LCarets2: 1 0
Ligature2: "'pres' Pre Base Substitutions in Bengali2 lookup 12 subtable" bnK_SSA bnRAc2
EndChar

StartChar: bnJ_NY_RA
Encoding: 518 -1 262
Width: 1015
VWidth: 0
GlyphClass: 3
Flags: W
HStem: -172 110<279.991 489.234> 0 106<372.892 515.851> 62 96<794 848.409> 240 80<782 848.502> 403 103<767.515 878.366> 530 106.328<-15 381 479 1034>
VStem: 621.099 109.903<206.418 271.977> 674 120<-172 -99 15 62> 852 100<158.661 236.862 322.477 402.367>
AnchorPoint: "anchor 1" 674 -169 basechar 0
AnchorPoint: "anchor0" 753 637 basechar 0
LayerCount: 2
Fore
SplineSet
695 158 m 9xbe80
 815 158 l 2
 844.993164062 158 852 159 852 191 c 0
 852 236.244140625 835.763671875 240 800 240 c 2
 782 240 l 17
 782 320 l 9
 819 320 l 2
 835 320 853 327 853 361 c 0
 853 397.76953125 845.543945312 403 824 403 c 0
 809 403 797.58203125 402.258789062 770 384 c 2
 697 342 l 1
 697 342 731.001953125 319 731.001953125 263.791992188 c 0
 731.001953125 209.57421875 695 158 695 158 c 9xbe80
513 362 m 1
 458 407 l 1
 450 354 l 1
 450 354 492.177734375 362 513 362 c 1
794 62 m 0xbd80
 794 -172 l 1
 674 -172 l 1
 674 -99 l 1
 674 -99 458.524414062 -172 362 -172 c 0
 319 -172 217 -164 156 -75 c 0
 130.284179688 -37.48046875 95 62 75 129 c 1
 146 164 l 1
 235 9 l 2
 277.084960938 -64.29296875 335 -62 363 -62 c 0
 453.877929688 -62 674 15 674 15 c 1
 674 71 l 1xbd80
 617 79 l 1
 617 79 590.994140625 55.98828125 571 43 c 0
 533.735351562 18.7919921875 486 0 419 0 c 0
 365.637695312 0 298 26 234 116 c 0
 168.575195312 208.002929688 96 416 96 416 c 1
 176 446 l 1
 176 446 287.321289062 236.297851562 341 161 c 0
 375.610351562 112.450195312 411.37890625 106 443 106 c 0
 469.963867188 106 506.743164062 118.82421875 529 136 c 0
 580.442382812 175.698242188 621.098632812 224.689453125 621.098632812 252.250976562 c 0xde80
 621.098632812 270.484375 599.264648438 275 572 275 c 0
 543 275 337 259 337 259 c 1
 381 530 l 1
 -15 530 l 1
 -15 636.328125 l 1
 1034 636.328125 l 1
 1034 530 l 25
 479 530 l 25
 476 511 l 1
 617 387 l 1
 617 387 751 506 854 506 c 0
 902.732421875 506 953 480.778320312 953 394 c 0
 953 286 925 286 925 286 c 1
 925 286 952 276 952 196 c 0
 952 87 872.708007812 62 794 62 c 0xbd80
EndSplineSet
Validated: 33
LCarets2: 1 0
MultipleSubs2: "Multiple Substitution lookup 22 subtable" bnJA.half bnNY_RA
Ligature2: "'pres' Pre Base Substitutions in Bengali2 lookup 12 subtable" bnJ_NYA bnRAc2
EndChar

StartChar: bnYAc2
Encoding: 519 -1 263
Width: 291
VWidth: 0
Flags: HW
HStem: 575 61<-14 99 165 246>
VStem: 41.1172 67.3458<380.6 504.114> 124.255 69.4916<121.057 257.367>
LayerCount: 2
Fore
SplineSet
199 530 m 17
 184 503 170.462890625 466.325195312 170.462890625 444.599609375 c 0
 170.462890625 352.002929688 255.747070312 269.2421875 255.747070312 183.02734375 c 0
 255.747070312 142.577148438 234.780273438 91.7802734375 192 49 c 0
 174 31 95 -35 95 -35 c 1
 25 22 l 1
 82 92 l 2
 101.794914524 116.50798941 124.255398034 149.01268578 124.255398034 179.46366811 c 0
 124.255398034 247.069750803 47.1171875 368.387695312 47.1171875 439.998046875 c 0
 47.1171875 475 85 530 85 530 c 9
 -14 530 l 1
 -14 636 l 1
 306 636 l 1
 306 530 l 5
 199 530 l 17
EndSplineSet
LCarets2: 2 0 0
Ligature2: "Ligature Substitution lookup 33 subtable" uni200D bnVirama bnYA
Ligature2: "'pstf' Post Base Forms in Bengali2 lookup 9 subtable" bnVirama bnYA
Ligature2: "'pstf' Post Base Forms in Bengali lookup 8 subtable" bnYA bnVirama
EndChar

